<svg xmlns="http://www.w3.org/2000/svg" width="280" height="182" viewBox="0 0 280 182" fill="none">
  <path d="M276.939 0.373444C276.71 0.535446 276.538 1.2375 276.481 1.83154C276.481 2.91164 276.423 2.91164 275.908 1.72354C275.622 1.02148 275.049 0.535446 274.706 0.697464C273.904 0.913483 273.847 1.72354 274.477 5.66585L274.877 8.36604L273.446 6.74593C272.415 5.50383 271.9 5.28781 271.385 5.71985C270.526 6.52991 271.328 7.98802 274.248 11.0122C276.423 13.2264 276.996 14.6845 276.366 16.1966C276.194 16.6287 275.908 19.3289 275.793 22.1371C275.507 27.9695 274.019 32.6679 271.499 35.6381C269.782 37.6363 263.541 42.4426 263.14 42.0646C263.026 41.9566 263.198 40.3365 263.484 38.4463C264.457 32.5059 262.052 26.1334 257.873 23.7572C255.525 22.3531 250.544 22.1911 247.968 23.4332C244.189 25.3233 241.784 30.0217 241.212 36.7722L240.868 40.8765L242.758 41.5246C243.788 41.8486 245.391 42.1186 246.25 42.1186C248.369 42.1186 248.77 42.9287 247.281 44.3328C246.365 45.1968 245.678 45.4128 244.304 45.1428C243.273 44.9808 241.498 44.6568 240.353 44.4948C238.75 44.2248 237.891 43.6847 236.803 42.1186C235.487 40.2825 232.452 38.3383 230.62 38.3383C230.219 38.3383 229.36 37.9603 228.788 37.5282C227.356 36.5022 225.009 36.5022 223.52 37.4742C222.375 38.2303 222.318 38.1223 221.345 34.288C220.371 30.3457 220.371 30.2917 221.516 29.2116C222.204 28.5636 222.719 27.5915 222.719 26.9975C222.719 26.3494 223.12 25.2693 223.692 24.5133C224.436 23.4332 224.494 22.7311 224.093 21.165C223.635 19.3289 223.406 19.1669 221.001 18.8428C219.57 18.6808 217.28 17.9788 215.848 17.3847C210.123 14.7925 202.966 16.8447 203.138 20.949C203.31 25.5393 204.397 31.8578 205.199 33.3699C206.287 35.3681 208.749 36.7182 211.268 36.7182C212.757 36.7182 212.986 36.9342 212.986 38.1223C212.986 39.3104 212.757 39.4724 211.726 39.2564C211.096 39.0944 209.608 39.3104 208.52 39.7424C207.432 40.1205 205.943 40.4985 205.142 40.4985C202.852 40.4985 200.447 42.0106 199.245 44.2788C197.985 46.6009 197.069 46.871 192.26 46.1149C190.256 45.7909 190.141 45.6289 189.511 42.9827C189.168 41.4706 188.767 37.4742 188.595 34.072C188.309 27.0515 187.508 24.9453 184.931 24.4593C184.015 24.2973 182.927 23.8112 182.584 23.4332C181.496 22.1911 177.431 22.5151 173.996 24.1352C169.301 26.4034 168.327 28.6176 168.327 36.8262C168.327 40.2825 168.098 43.2527 167.869 43.4147C167.583 43.5767 163.174 43.4147 157.964 43.1447L148.575 42.5506L146.399 40.6065C145.197 39.4724 142.391 37.7443 140.101 36.7182C136.551 35.0981 135.864 34.558 135.177 32.7759C134.49 30.9938 134.49 30.5077 135.406 28.4556C135.979 27.2135 136.952 25.8094 137.467 25.3773C138.956 24.1892 139.815 21.705 139.185 20.571C138.841 19.9769 138.841 18.7888 139.128 17.4927C139.929 14.3065 139.815 11.7143 138.784 10.3642C137.983 9.28412 137.467 9.1761 132.486 9.1761H127.047L124.413 11.4983C122.123 13.5504 121.78 14.0905 121.722 16.3586C121.665 17.7628 121.264 19.2209 120.921 19.5449C119.89 20.517 120.119 22.0291 121.436 23.2712C123.154 24.8913 124.871 30.3457 124.299 32.2899C123.383 35.2601 122.581 35.9621 118.631 37.4742C116.455 38.2303 113.65 39.7424 112.447 40.7145C110.73 42.0646 109.298 42.6586 106.207 43.1447C104.031 43.5227 101.683 43.9547 101.054 44.1167C99.9086 44.4408 99.9086 44.3868 100.996 43.3067C101.683 42.5506 101.912 41.7406 101.741 40.9305C101.512 40.1205 101.798 39.3104 102.6 38.4463C103.687 37.4202 103.745 37.0422 103.172 36.1781C102.6 35.3141 102.6 34.882 103.172 34.018C103.745 33.2079 103.745 32.7219 103.229 31.9118C102.886 31.3718 102.714 30.3997 102.886 29.7517C103.058 29.0496 102.829 28.1855 102.313 27.6455C101.798 27.1055 101.454 25.9714 101.512 25.1073C101.626 23.7572 101.397 23.4332 100.195 23.3252C99.3933 23.2172 98.2482 22.5151 97.5612 21.7591C96.4161 20.409 96.3588 20.409 94.6412 21.273C93.6106 21.7591 92.6945 21.9211 92.5228 21.651C91.8357 20.679 89.8318 20.679 88.515 21.651C87.7707 22.1911 86.4538 22.6771 85.6523 22.6771C84.1064 22.6771 82.446 24.4053 82.446 26.0254C82.446 26.6734 81.988 26.9975 81.0719 26.9975C79.4688 26.9975 78.7818 28.2935 79.6406 29.8057C80.3276 30.9938 80.3849 30.9398 78.5528 31.8038C76.4344 32.8299 77.1214 34.666 80.0414 36.0161C80.1559 36.0161 79.8124 36.8262 79.2971 37.7443C78.4383 39.3644 78.4383 39.4184 79.8124 40.0124C81.6445 40.8225 82.1598 43.5227 80.5567 43.9547C79.9269 44.1167 75.8618 43.1447 71.5105 41.7946C64.9263 39.7964 57.1397 37.8523 55.4221 37.7983C53.8189 37.7983 56.3954 31.4798 59.0863 28.7796C59.9451 27.9155 60.1742 27.1055 60.0024 25.8094C59.8306 24.8373 59.9451 23.4332 60.2314 22.6771C60.5749 21.7591 60.5749 20.625 60.1169 19.1669C59.1436 16.0346 58.6856 15.3866 57.4832 15.4946C56.9107 15.5486 56.1664 15.1706 55.7656 14.7385C55.4221 14.2525 54.735 13.9825 54.2197 14.1985C53.7044 14.3605 53.1319 14.3065 53.0174 14.0905C52.8456 13.8204 51.6433 13.6584 50.3837 13.6584C49.1241 13.6584 47.9218 13.8204 47.75 14.0905C47.6355 14.3065 47.1202 14.4145 46.7194 14.2525C46.2614 14.0905 45.5171 14.4685 45.0591 15.1166C44.4293 15.9806 44.143 16.0886 43.914 15.5486C43.3987 14.4145 41.223 17.1687 41.223 18.9509C41.223 19.8149 41.6238 21.435 42.1963 22.5691C42.7116 23.6492 43.1697 25.2153 43.2269 26.0794C43.3414 27.2675 43.2269 27.4295 42.5971 26.9435C41.6811 26.2414 41.5093 24.6213 42.3681 25.1073C42.7116 25.2693 42.7689 25.0533 42.5971 24.6213C42.4254 24.1352 42.0246 23.9192 41.7383 24.0812C40.8222 24.6213 41.223 26.9435 42.3109 27.6455C42.9407 28.0775 43.7422 29.5356 44.143 30.9398C44.4865 32.3439 45.0018 33.64 45.2881 33.802C45.8606 34.126 45.9751 36.7182 45.5171 37.9063C45.2881 38.3923 44.372 38.5543 42.3109 38.3923C38.6466 38.1763 35.1541 39.4184 32.8067 41.7406C31.8333 42.6586 29.6577 45.6289 28.0546 48.3291C22.2719 57.8338 20.955 57.9418 17.1763 49.3011C15.8594 46.1149 15.4586 45.6289 14.3135 45.7909C13.283 45.9529 13.1112 45.7909 13.3975 45.0888C14.3135 42.7666 14.3708 41.4165 13.512 38.6623C12.5387 35.5301 11.7371 34.612 10.7638 35.5301C10.363 35.9081 10.363 36.6642 10.821 37.9063C11.5653 40.0124 10.9356 39.3644 8.47362 35.4221C6.69874 32.6139 4.86661 31.9658 5.4964 34.396C5.89718 35.8541 5.83993 35.9081 4.7521 34.9361C3.20624 33.64 2.69095 33.802 3.09173 35.3681C3.43525 36.6102 3.378 36.6642 2.34742 36.0701C0.68705 35.0981 0.229017 35.9081 1.43135 37.6363C2.0039 38.4463 2.11841 38.8243 1.66037 38.4463C0.629796 37.5282 0 37.6363 0 38.6623C0 39.1484 1.88939 41.3085 4.17956 43.4687C7.84383 46.871 8.41637 47.681 8.47362 49.4091C8.58813 52.5954 10.821 59.5079 12.6532 62.5321C15.0579 66.5284 18.2641 68.5806 22.0429 68.5806C25.7644 68.5806 28.1691 67.6625 31.9478 64.8003L34.9251 62.6402V65.7184C34.8678 67.4465 34.6388 70.5247 34.2953 72.6309C33.0357 81.2176 33.3219 160.604 34.696 170.756C34.9251 172.484 35.3258 173.349 35.8411 173.349C36.2992 173.349 36.6427 173.889 36.6427 174.645C36.6427 175.833 36.2992 175.995 32.8067 176.589C28.3981 177.291 26.3369 178.317 26.3369 179.775C26.3369 181.341 29.1996 181.989 36.1847 181.989C44.4293 181.989 44.6583 181.881 44.6583 177.129C44.6583 174.321 44.83 173.349 45.4598 173.349C46.0324 173.349 46.3186 171.458 46.6049 164.816C47.1775 152.125 49.2386 116.05 49.7539 110.164C50.0974 105.519 50.2119 105.249 50.5555 107.464C50.7845 108.814 51.7578 119.128 52.6739 130.415C55.0785 159.037 56.8534 173.889 57.884 173.889C58.1703 173.889 58.3993 175.239 58.3993 176.859C58.3993 181.503 59.2008 181.989 67.2164 181.989C74.3732 181.989 77.2932 181.341 77.2932 179.829C77.2932 178.263 75.232 177.237 70.5944 176.535C66.7584 175.941 66.4149 175.779 66.4149 174.645C66.4149 173.781 66.7584 173.349 67.3882 173.349C68.247 173.349 68.3043 171.944 67.9607 156.769C67.789 147.589 67.2164 132.359 66.6439 122.855C66.0141 111.028 65.8423 102.657 66.1286 96.3927C66.3576 91.3163 66.5294 85.4839 66.4721 83.4317L66.3576 79.6514L70.1364 83.2157C73.6289 86.618 73.8579 86.996 73.8579 89.3182C73.8579 90.7223 74.2587 92.7204 74.7167 93.8005C75.232 94.9346 75.5755 97.4188 75.5755 100.119C75.5755 106.167 76.4916 115.942 77.923 125.555C78.8963 132.143 79.068 135.276 78.839 142.458C78.5528 150.829 79.0108 162.224 79.9269 168.326C80.2131 170.378 80.5567 171.188 81.1865 171.188C81.9308 171.188 81.988 171.89 81.7017 175.779C81.2437 182.205 80.8429 181.989 93.0381 181.989C103.63 181.989 105.92 181.611 105.92 179.829C105.92 178.425 104.031 177.291 100.195 176.535C98.4772 176.211 96.8741 175.617 96.6451 175.293C96.0725 174.483 96.0725 171.296 96.6451 170.972C96.9314 170.81 97.3321 168.272 97.5039 165.302C97.7329 162.332 98.8207 154.825 99.9658 148.669C104.317 124.529 104.775 121.721 105.29 114.754C105.806 107.788 105.462 98.2828 104.26 88.5621C104.031 86.3479 103.974 84.2418 104.26 83.9718C104.489 83.6477 104.432 82.4056 104.145 81.2176C103.573 79.1654 103.745 78.6794 106.722 72.8469L109.928 66.6905L109.699 79.2194L109.527 91.7484L111.13 92.2884C112.734 92.8284 112.791 92.9364 112.791 96.8247C112.791 100.983 114.508 133.71 115.997 157.687C116.627 168.866 117.028 172.106 117.657 172.592C118.115 172.916 118.516 173.781 118.516 174.537C118.516 175.779 118.173 175.995 115.195 176.535C113.363 176.859 111.302 177.507 110.615 177.993C108.897 179.127 109.012 180.801 110.844 181.449C112.734 182.151 124.013 182.151 125.387 181.449C126.417 180.909 126.417 180.153 126.188 164.87C125.902 147.751 126.475 133.71 128.249 113.728C128.879 106.924 129.394 100.929 129.452 100.497C129.566 98.0128 130.196 103.791 133.46 136.356C135.406 155.959 137.238 172.16 137.582 172.322C137.925 172.538 137.983 174.267 137.696 176.751C137.238 181.881 137.41 181.989 145.655 181.989C152.353 181.989 154.586 181.449 154.586 179.883C154.586 178.371 152.582 177.237 148.746 176.535C145.769 175.995 145.426 175.779 145.082 174.321C144.91 173.403 144.968 172.538 145.311 172.322C145.655 172.106 145.712 168.812 145.368 163.088C144.853 152.827 144.796 110.11 145.368 99.3629L145.712 92.0724L148.632 91.9104L151.609 91.7484L151.323 89.4802C151.151 88.2381 150.063 81.0555 148.918 73.549C147.716 66.0964 146.914 59.9399 147.086 59.9939C147.372 59.9939 155.903 69.1746 160.369 74.197L161.915 75.9252L161.113 79.9215C160.484 83.0537 160.426 85.3759 160.827 90.7223C161.171 94.4486 161.571 101.253 161.743 105.843C162.602 126.311 164.491 135.33 170.274 146.833L173.996 154.177L174.625 162.764C175.141 170.378 175.37 171.512 176.4 172.43C177.03 173.024 177.374 173.673 177.087 173.889C176.858 174.105 174.74 174.591 172.507 174.915C168.442 175.617 165.465 177.075 165.465 178.425C165.465 178.803 165.98 179.559 166.667 180.153C167.698 181.017 168.843 181.179 175.942 181.179C185.733 181.233 186.591 180.963 191.916 175.995C196.439 171.836 196.725 170.702 194.034 167.084C192.66 165.194 192.431 164.492 192.947 163.898C193.405 163.358 192.947 161.954 190.656 157.741C189.053 154.717 187.622 151.207 187.45 149.965C186.992 146.833 188.137 133.872 189.798 123.125C192.202 107.788 192.431 105.519 192.431 98.4449C192.431 90.1282 191.229 83.1077 189.168 79.2734C187.107 75.4931 186.591 69.1746 188.023 65.6104C188.939 63.4502 191.973 59.9399 193.004 59.9399C193.233 59.9399 193.176 60.75 192.889 61.6681C192.088 64.3683 192.26 66.9065 193.347 68.6346C194.55 70.5247 198.271 72.3609 200.848 72.3609C203.023 72.3609 203.081 72.6309 201.821 79.2194C200.962 83.8638 201.191 85.6459 203.023 87.32C203.539 87.8061 203.71 88.5081 203.481 89.0481C203.252 89.5342 202.966 108.328 202.794 130.847C202.565 167.624 202.623 171.728 203.424 171.728C204.684 171.728 205.027 172.43 204.627 174.321C204.283 175.779 203.997 175.995 200.733 176.589C196.668 177.291 194.664 178.371 194.664 179.775C194.664 181.395 197.183 181.989 203.882 181.989C212.241 181.989 212.413 181.881 212.413 176.859C212.413 173.781 212.585 172.808 213.215 172.808C213.73 172.808 214.131 171.944 214.36 170.486C214.703 168.056 215.963 147.157 217.051 125.015C217.909 106.761 218.196 105.843 219.742 115.024C221.402 124.853 224.723 148.507 226.326 161.738C227.471 171.674 227.7 172.538 228.731 172.7C229.761 172.808 229.876 173.187 229.704 176.697C229.532 179.937 229.647 180.693 230.505 181.287C231.708 182.151 250.544 182.259 251.918 181.449C252.663 181.017 252.777 176.751 252.949 149.317C253.006 129.227 253.293 117.724 253.636 117.724C253.98 117.724 254.209 119.722 254.209 122.423C254.209 125.069 254.724 138.084 255.354 151.477C255.984 164.816 256.499 176.805 256.499 178.047C256.499 181.611 257.3 181.989 264.514 181.989C271.499 181.989 273.675 181.503 273.675 179.829C273.675 178.317 271.557 177.183 267.377 176.481L263.77 175.833L264.171 153.097C264.343 140.622 264.686 127.445 264.915 123.773L265.259 117.184H266.919C268.522 117.184 268.522 117.184 268.522 113.674V110.11L264.686 110.272C260.278 110.434 260.106 110.65 260.793 114.808C261.136 117.022 261.251 117.184 262.911 117.184H264.686L264.285 120.479C264.114 122.315 263.77 133.71 263.541 145.806L263.198 167.84L260.278 168.164C258.732 168.326 257.3 168.326 257.129 168.164C256.842 167.894 254.896 128.309 254.838 120.803L254.781 117.184H257.358H259.934V113.944V110.704H256.27H252.548L252.491 138.516C252.491 153.799 252.319 166.652 252.147 167.084C251.804 168.002 248.884 168.596 246.995 168.164C245.735 167.84 245.621 167.57 245.563 163.952C245.563 161.846 244.933 150.613 244.246 139.056C243.044 120.803 242.987 117.886 243.731 117.4C244.361 116.914 244.418 116.104 244.132 113.998C243.731 111.244 243.731 111.19 241.956 111.352C240.983 111.46 240.181 111.838 240.239 112.162C240.296 112.54 240.353 113.836 240.41 115.024C240.468 116.536 240.697 117.184 241.326 117.184C241.784 117.184 242.185 117.4 242.185 117.724C242.185 118.534 244.991 165.464 245.334 170.972L245.678 175.941L243.674 176.265C242.529 176.481 240.754 176.481 239.666 176.319C238.006 175.995 237.662 175.671 237.433 174.267C237.261 173.133 237.433 172.322 238.006 171.89C238.75 171.35 238.75 169.46 238.235 157.039C236.975 129.551 236.059 116.536 234.112 99.0389L232.853 88.1301L234.112 86.51C235.544 84.5658 235.601 83.3237 234.399 77.3833L233.54 72.9009L235.429 69.2827L237.319 65.6644L237.777 68.3106C238.006 69.8227 238.063 72.3609 237.834 74.035L237.49 77.1132L239.609 77.7613C241.784 78.4633 241.842 78.5714 240.697 82.1896C240.468 82.9997 240.754 83.1617 242.414 83.1617C244.475 83.1617 244.475 83.1617 244.475 80.8395V78.5173L241.441 77.5993L238.406 76.6812L238.635 73.333C238.75 71.4428 238.578 68.5806 238.292 66.9605C237.834 64.7463 237.948 63.1262 238.578 60.21C239.437 56.3757 239.38 47.843 238.406 45.6829C238.006 44.7648 238.177 44.6568 240.181 44.9808C241.727 45.1968 242.987 45.8989 244.189 47.141C246.479 49.4632 249.457 50.4352 252.949 49.9492C255.125 49.6252 256.098 49.0851 258.503 46.817C260.106 45.2508 263.369 42.7126 265.831 41.1465C270.812 37.9603 273.732 34.612 275.106 30.3997C276.194 27.2135 277.11 21.8131 277.11 18.5728V16.3586L279.859 16.0346C281.347 15.8726 282.664 15.8726 282.779 15.9806C283.408 16.5207 283.466 24.7293 282.893 28.5636C281.519 37.3122 278.713 43.0907 271.9 51.0833C265.144 59.0219 263.541 63.6122 264.171 73.279C264.572 78.7334 264.514 78.8414 263.198 79.1114C261.079 79.6514 258.388 79.6514 251.518 79.1654L245.048 78.7334V80.9475V83.1617H247.624C249.972 83.1617 250.201 83.0537 250.201 81.8116C250.201 81.0555 250.487 80.4615 250.773 80.4615C251.117 80.4615 251.346 81.0555 251.346 81.8116C251.346 83.1077 251.518 83.1617 254.495 83.1617H257.644L257.358 81.3796L257.071 79.6514L257.873 81.2716C258.617 82.7837 258.903 82.8917 261.022 82.7297C263.312 82.5136 263.999 81.9736 262.797 81.2716C261.766 80.6775 262.224 80.0295 263.942 79.6514C265.602 79.3274 265.659 79.1654 265.316 77.3293C265.087 76.1952 264.858 73.0089 264.858 70.2007C264.858 62.6942 266.06 59.5079 270.87 53.6215C279 43.7387 281.404 39.3644 283.065 31.7498C283.981 27.6455 284.324 17.6547 283.637 15.9806C283.466 15.4946 282.893 15.1166 282.435 15.1166C281.691 15.1166 281.576 14.4145 281.92 10.3642C282.091 7.772 282.435 4.74777 282.607 3.55968C282.893 1.99356 282.779 1.56152 282.206 1.72354C281.805 1.83154 281.404 2.31758 281.233 2.74962C281.061 3.34366 281.118 3.34366 281.633 2.69562C282.435 1.61554 282.435 2.26358 281.347 7.01595C280.889 9.2301 280.603 11.9303 280.775 13.0104C281.061 14.5225 280.889 15.0625 280.202 15.3326C278.484 15.9266 277.797 15.6566 277.397 14.1985C277.225 13.3884 275.908 11.5523 274.477 10.1482C273.103 8.74408 271.957 7.28596 272.015 6.90793C272.015 6.52991 272.415 6.74593 272.931 7.39397C273.389 8.09602 274.19 8.63606 274.648 8.63606C275.335 8.63606 275.45 7.93401 275.164 4.96379C274.877 1.56152 274.935 1.50752 275.507 3.61368C275.851 4.90979 276.309 5.93587 276.595 5.93587C276.824 5.93587 277.168 4.90979 277.282 3.61368L277.511 1.34552L277.568 3.66769C277.683 6.25989 278.828 6.31389 278.828 3.72169C278.828 2.85762 279 2.15558 279.286 2.15558C279.515 2.15558 279.63 3.12766 279.515 4.31573C279.229 6.74593 279.744 7.12395 280.546 5.17981C281.233 3.45168 280.431 0.805466 279.229 0.859482C278.656 0.913483 278.255 0.751465 278.255 0.481445C278.255 -0.112595 277.454 -0.166595 276.939 0.373444ZM132.2 14.7925C136.036 14.9545 136.494 15.6566 136.437 20.841C136.322 26.4574 134.376 30.2917 131.341 30.9938C129.566 31.4258 126.188 29.9677 124.986 28.2395C123.784 26.5654 123.039 22.8391 123.497 20.625C123.784 19.0049 123.955 18.8968 126.074 18.8968C127.505 18.8968 128.192 18.6808 127.963 18.3028C127.734 17.9788 126.875 17.9248 125.902 18.0868C123.955 18.5188 123.841 17.9788 125.158 15.5486C125.902 14.1445 126.246 13.9825 127.562 14.3065C128.421 14.5225 130.482 14.7925 132.2 14.7925ZM56.9107 20.3009C57.4832 21.651 57.3115 27.8615 56.6817 29.4276C56.0519 30.9938 56.3954 30.9398 51.0135 29.9137C49.9829 29.6977 48.6661 29.9137 47.521 30.5077C45.2308 31.5878 44.7728 31.2098 44.3148 27.8615C43.9712 25.4853 44.0285 25.1073 45.2881 24.2432C46.0324 23.7032 47.1775 23.2172 47.8073 23.2172C48.6088 23.2172 48.7233 23.0552 48.2653 22.6231C47.75 22.1371 47.2347 22.1911 46.1469 22.8931C44.3148 23.9732 44.2002 23.4332 45.9179 21.7591C46.9484 20.733 47.75 20.517 50.6127 20.517C52.5594 20.517 54.506 20.2469 54.964 19.9769C56.1664 19.2749 56.5099 19.3289 56.9107 20.3009ZM215.562 21.8671C216.593 22.7851 216.993 23.7572 216.993 25.3233C216.993 27.5915 217.909 28.7796 218.482 27.2675C218.997 26.0794 221.001 25.1613 221.631 25.7554C222.547 26.6194 221.173 29.1576 219.799 29.1576C218.883 29.1576 218.711 29.3196 219.112 29.8057C219.799 30.6157 221.574 37.2582 221.574 38.8243C221.574 39.9584 217.509 43.1987 216.135 43.1987C214.818 43.1987 213.844 41.4706 213.558 38.6623L213.272 35.9081L210.81 35.8541C207.203 35.8001 205.657 34.126 204.913 29.4276C204.283 25.8634 204.34 25.7014 205.6 24.7293L206.974 23.7032L205.714 24.0272C204.97 24.2432 204.397 24.1892 204.397 23.9192C204.397 23.4872 212.07 20.625 213.444 20.571C213.844 20.517 214.818 21.111 215.562 21.8671ZM122.524 22.4611C122.524 22.8931 122.295 23.1092 121.951 22.9471C121.665 22.7851 121.379 22.2451 121.379 21.8131C121.379 21.381 121.665 21.165 121.951 21.327C122.295 21.489 122.524 22.0291 122.524 22.4611ZM137.983 23.7572C137.639 24.4053 137.181 24.7833 137.009 24.6753C136.895 24.5133 137.067 23.8652 137.41 23.2172C137.754 22.5691 138.212 22.1911 138.383 22.2991C138.498 22.4611 138.326 23.1092 137.983 23.7572ZM59.5444 26.4034C59.5444 26.8895 59.1436 27.8075 58.6283 28.4016C57.7695 29.3736 57.7695 29.3736 58.113 28.0775C58.342 27.3215 58.5138 26.2954 58.4565 25.7554C58.4565 25.2693 58.6856 24.9453 59.0291 25.1073C59.3153 25.3233 59.5444 25.8634 59.5444 26.4034ZM184.359 30.9938C184.359 32.8299 184.072 35.2061 183.786 36.2862C183.099 38.6083 180.293 41.0385 178.347 41.0385C175.141 41.0385 172.335 36.9882 172.335 32.2899C172.335 30.3997 172.45 30.2917 174.797 29.8057L177.202 29.2656L175.198 29.2116C172.621 29.1036 173.881 28.3475 177.488 27.8615C178.919 27.6455 180.694 27.1595 181.496 26.7274C182.755 26.0794 183.042 26.0794 183.671 26.8354C184.015 27.3215 184.359 29.2116 184.359 30.9938ZM92.7518 26.9975C92.7518 27.6455 95.042 27.6995 96.1298 27.0515C97.1031 26.4574 98.878 26.8895 99.2788 27.8615C99.5078 28.4016 99.107 28.5096 97.7329 28.3475L95.9008 28.0775L97.7902 28.6176C99.8513 29.2656 100.023 30.0217 98.9925 34.504C98.2482 37.8523 96.7023 39.7424 94.4694 40.2285C93.1526 40.4985 92.7518 40.8765 92.7518 41.8486C92.7518 44.0087 93.3816 44.7648 95.3855 45.1428C96.4733 45.3048 97.3321 45.6829 97.3321 46.0069C97.3321 46.817 92.6373 48.5451 89.9464 48.7071C87.4272 48.8691 87.4272 48.8691 86.5684 46.4929C85.824 44.3328 85.824 43.9547 86.6829 42.6586C87.5989 41.1465 87.9425 37.0422 87.2554 35.4221C87.0836 34.9361 86.4538 34.558 85.8813 34.558C84.5645 34.558 83.4194 33.2619 83.7056 32.0198C83.8201 31.3718 84.3927 31.0478 85.3088 31.0478C87.4272 31.0478 88.1715 30.3997 88.1715 28.5636C88.1715 27.2675 88.4005 26.9975 89.202 27.2135C89.7173 27.3755 90.5761 27.2675 91.0342 26.9975C92.122 26.2954 92.7518 26.2954 92.7518 26.9975ZM254.209 27.8075C254.609 28.2395 255.239 28.6176 255.583 28.6176C255.984 28.6176 256.785 28.9416 257.358 29.3736C258.388 30.0757 258.388 30.1297 256.785 29.9137C255.125 29.6977 255.125 29.7517 257.014 30.3457L258.903 30.9938L258.674 34.126C258.388 37.5823 257.071 39.7964 254.609 40.9305C253.35 41.4706 252.777 41.4706 251.117 40.8225C248.884 39.9584 247.682 38.1223 247.052 34.72C246.479 31.3178 247.052 30.2377 249.399 30.2377C250.716 30.2377 251.289 30.0217 251.002 29.6436C250.831 29.3196 250.029 29.2116 249.228 29.4276C248.311 29.6436 247.968 29.5356 248.197 29.1576C248.369 28.8876 248.999 28.6176 249.571 28.6176C250.086 28.6176 251.06 28.2395 251.689 27.8075C253.064 26.8354 253.35 26.8354 254.209 27.8075ZM129.853 31.5338C130.998 31.5338 132.372 31.3718 132.944 31.1018C133.631 30.7777 133.975 31.0478 134.261 32.3439C134.433 33.2079 135.292 34.558 136.093 35.3141L137.582 36.7182L136.265 38.0683C134.376 39.9584 130.482 41.2545 127.963 40.8225C126.818 40.6065 125.158 39.7964 124.184 38.9864L122.524 37.5282L123.955 34.882C124.757 33.4239 125.387 31.5878 125.387 30.8857C125.387 29.5356 125.387 29.5356 126.589 30.5077C127.276 31.1558 128.593 31.5338 129.853 31.5338ZM52.6739 31.8038C52.6739 32.6679 50.4409 32.8299 49.4104 32.0738C48.4943 31.4258 48.6088 31.3718 50.5555 31.3178C51.7005 31.3178 52.6739 31.5338 52.6739 31.8038ZM186.076 34.072C185.675 34.666 185.275 35.0441 185.103 34.9361C184.988 34.774 185.103 34.18 185.389 33.64C185.675 33.0999 185.79 32.2899 185.675 31.8578C185.504 31.3178 185.618 31.3718 186.076 31.9658C186.534 32.6679 186.534 33.2079 186.076 34.072ZM245.964 32.5059C246.193 32.8839 246.136 32.9379 245.735 32.7219C245.334 32.5059 245.048 32.5599 245.048 32.8839C245.048 33.1539 245.334 33.586 245.621 33.748C245.964 33.91 246.193 34.45 246.193 34.882C246.193 35.9621 245.105 35.2601 244.475 33.802C243.788 32.0738 244.991 30.9938 245.964 32.5059ZM261.48 32.7759C261.594 33.0459 261.136 33.91 260.449 34.612C259.419 35.6921 259.304 35.7461 259.705 34.828C259.934 34.234 260.106 33.3159 260.163 32.7759C260.163 31.8038 261.136 31.8038 261.48 32.7759ZM9.27518 38.0143C11.4508 41.4706 12.9394 41.2005 11.4508 37.5823C11.1646 36.8262 11.1073 36.1781 11.3936 36.1781C12.1379 36.1781 13.1685 39.2564 13.1685 41.3085C13.1685 44.7648 12.4814 46.4929 10.9928 47.033C9.67596 47.519 9.16067 47.195 5.32464 43.6307C3.03447 41.5246 1.31685 39.6344 1.43135 39.4724C1.60312 39.3644 2.34742 39.7964 3.14898 40.4985C5.32464 42.4426 5.4964 41.3625 3.378 38.7703L1.48861 36.4482L3.89329 38.5543C5.21013 39.7424 6.41247 40.6065 6.52698 40.4445C6.69874 40.3365 6.06894 39.1484 5.09562 37.8523C4.17956 36.5562 3.54976 35.3681 3.72152 35.2061C3.89329 35.0441 4.06505 35.0441 4.17956 35.1521C6.29796 38.0143 7.61481 39.3644 8.07284 39.1484C8.81715 38.6623 8.70264 38.1763 7.67206 36.9342C6.81325 35.9621 6.81325 35.9621 7.09952 36.9342C7.44305 37.7983 7.32854 37.8523 6.58423 37.2582C5.61091 36.5022 5.38189 35.3681 6.35522 35.9621C6.81325 36.1781 6.8705 35.9081 6.64149 35.0441C6.29796 33.91 6.35522 33.856 6.98501 34.666C7.38579 35.1521 8.41637 36.6642 9.27518 38.0143ZM51.0135 36.1781C53.1319 36.1781 53.9335 36.3942 54.2197 37.0962C54.735 38.3383 52.3876 39.9584 50.0974 39.9584C47.063 39.9584 46.3759 39.5264 46.3759 37.4202C46.3759 35.9081 46.5477 35.5841 47.292 35.8541C47.8073 36.0161 49.4676 36.1781 51.0135 36.1781ZM121.379 46.5469C121.379 58.2658 120.234 88.2921 119.719 90.4523C119.375 91.9104 119.031 92.0724 116.97 92.2344C115.653 92.3424 113.592 92.1264 112.39 91.8564L110.214 91.3163L110.386 77.7073C110.501 68.3646 110.386 64.2603 109.928 64.5303C109.642 64.6923 109.356 65.0703 109.356 65.2863C109.356 65.5564 108.039 68.3646 106.378 71.6048L103.458 77.4913L103 75.3311C102.771 74.143 102.542 70.0927 102.542 66.3124C102.485 60.264 102.657 59.0219 103.974 55.5116C106.092 50.0032 109.241 44.3868 111.588 42.2266C113.249 40.6605 119.49 37.3662 120.978 37.2582C121.207 37.2582 121.379 41.4706 121.379 46.5469ZM142.048 38.3383C144.681 39.6344 147.945 42.5506 150.063 45.6289C152.411 48.9771 162.945 64.4223 163.403 65.1783C163.919 65.9884 162.659 74.521 162.029 74.521C161.8 74.521 158.136 70.7408 153.957 66.1504C149.72 61.5601 146.227 58.0498 146.113 58.3198C145.998 58.5898 146.972 66.0424 148.346 74.7911C149.662 83.5397 150.636 90.8303 150.521 90.9383C150.407 91.0463 148.231 91.2623 145.655 91.4243L141.017 91.6943L139.815 83.4857C137.696 69.2827 137.238 62.9642 137.582 51.2993C137.925 40.0664 138.269 37.2582 139.242 37.2582C139.528 37.2582 140.788 37.7443 142.048 38.3383ZM228.616 38.2843C229.131 38.7703 226.04 40.8225 221.116 43.1447C217.566 44.8188 215.677 44.6568 218.597 42.9287C219.455 42.3886 221.23 40.8765 222.547 39.5264C224.608 37.4742 225.181 37.2042 226.555 37.5282C227.414 37.6903 228.387 38.0683 228.616 38.2843ZM69.4493 41.9026C73.9152 43.2527 77.6939 44.4948 77.8657 44.6028C78.0375 44.7648 77.6367 45.1428 77.0069 45.5209C75.003 46.5469 69.7356 51.5153 67.7317 54.2695L65.7278 56.9697L66.0141 54.9176C66.1859 53.8375 66.1286 52.9194 65.8423 52.9194C65.6133 52.9194 65.2698 54.2155 65.1553 55.7276C64.9835 57.2937 64.2965 60.048 63.5522 61.8301C61.6628 66.5284 61.7773 71.2268 63.8384 75.0611C65.2698 77.7073 65.4416 78.7334 65.6706 84.5118C65.7851 88.0761 65.6706 91.2623 65.4416 91.5863C65.098 92.0184 62.4643 92.0724 55.8228 91.6943C50.7845 91.4243 43.914 91.3163 40.536 91.4783L34.4098 91.8024L34.009 89.2642C33.78 87.752 34.009 82.9997 34.5815 77.7613C35.5549 68.3646 35.6694 59.6699 34.9251 54.2695C34.467 51.4613 34.467 51.7853 34.6388 56.2677L34.8106 61.5601L32.2341 63.6662C22.3864 71.8748 14.0273 68.4726 10.2485 54.6475C8.70264 48.9231 8.75989 48.7071 11.7944 47.519C13.2257 46.925 14.5998 46.4389 14.8861 46.4389C15.1724 46.4389 15.6877 47.357 16.0884 48.4371C17.2335 51.8933 19.4092 55.5656 20.6115 56.1597C22.8444 57.2937 24.9056 55.2956 29.1424 48.005C33.6082 40.2285 39.4481 37.2582 45.6316 39.6884C48.4371 40.8225 52.2731 40.7145 53.8189 39.5264C55.5938 38.1763 58.8001 38.6623 69.4493 41.9026ZM137.124 42.2266C136.666 46.925 136.036 47.951 134.49 46.6549C133.631 45.9529 133.231 45.8989 132.601 46.3849C131.971 46.871 131.513 46.871 130.597 46.3309C129.624 45.7369 129.337 45.7909 128.65 46.6009C127.963 47.519 127.849 47.519 126.875 46.4929C126.016 45.6289 125.616 45.5209 124.986 46.0069C123.555 47.087 122.409 45.3048 122.295 41.9026C122.295 40.2285 122.295 38.8784 122.352 38.8784C122.409 38.8784 123.44 39.4724 124.585 40.2285C126.016 41.1465 127.448 41.5786 129.223 41.5786C131.627 41.5786 135.807 40.0664 136.551 38.8784C137.353 37.6363 137.525 38.5543 137.124 42.2266ZM234.112 40.4445C237.891 42.9827 239.494 50.6512 238.006 58.9679C235.945 70.4707 231.822 75.0611 223.578 75.0611C217.795 75.0611 208.692 71.6048 205.371 68.2026C204.512 67.2305 204.569 67.0685 206.63 64.8003L208.806 62.4241L210.524 63.6122C214.36 66.2044 220.142 67.3385 224.78 66.4204C227.528 65.8804 227.929 65.6104 227.7 64.7463C227.528 64.2063 227.585 63.7202 227.757 63.7202C227.986 63.7202 228.215 61.236 228.272 58.1578C228.387 52.2714 228.158 51.8933 227.585 56.8077C227.242 59.6159 227.07 59.9399 225.868 59.9399C223.978 59.9399 217.051 61.9921 214.818 63.2342C212.871 64.2603 212.871 64.2603 210.81 63.0722C209.608 62.3701 208.463 61.9381 208.119 61.9921C207.833 62.1001 206.688 62.0461 205.657 61.8301L203.71 61.5061L203.939 56.1597C204.054 53.2434 203.939 50.9753 203.71 51.0833C203.481 51.2453 203.252 53.6215 203.252 56.3757V61.3981L201.42 61.8841C198.729 62.6402 198.558 64.4223 201.019 65.6644C202.05 66.1504 203.653 67.3385 204.627 68.2566C205.6 69.1746 207.031 70.3627 207.833 70.9028C209.207 71.8208 209.15 71.8208 203.825 71.6588C197.355 71.4428 195.008 70.5247 193.748 67.6625C192.66 65.2863 193.004 63.3422 195.638 55.4036C197.871 48.7611 199.989 43.9547 201.306 42.6046C202.623 41.2005 206.115 40.8225 208.119 41.7946C209.092 42.2806 210.066 42.6586 210.352 42.6586C211.554 42.6586 215.276 45.5749 215.276 46.4389C215.276 46.979 214.76 48.5451 214.073 49.9492C213.215 51.7853 213.043 52.6494 213.501 53.0814C213.959 53.5135 214.131 53.2974 214.131 52.3254C214.188 51.6233 214.531 50.4352 214.932 49.7332C215.677 48.4371 215.734 48.4911 216.364 51.3533C216.707 52.9734 217.051 55.2416 217.165 56.4297C217.337 58.4278 217.394 58.3738 217.451 55.8896C217.509 54.3775 217.337 51.7853 216.993 50.0572C216.707 48.3291 216.593 46.6549 216.764 46.2769C216.936 45.8989 218.711 44.9268 220.715 44.0627C222.719 43.2527 225.582 41.7406 227.127 40.7145C230.105 38.7703 231.593 38.7163 234.112 40.4445ZM213.501 41.8486C214.131 42.8746 214.932 43.7387 215.276 43.7387C215.619 43.7387 215.734 44.0087 215.562 44.2788C215.333 44.6028 214.417 44.2788 213.329 43.4687C212.299 42.7126 211.268 42.1186 211.096 42.1186C210.924 42.1186 210.066 41.9026 209.264 41.5786C207.317 40.8765 207.947 39.9584 210.409 39.9584C211.955 39.9584 212.528 40.2825 213.501 41.8486ZM180.923 42.3346C180.923 42.8746 181.839 44.1707 182.927 45.1428C184.817 46.817 184.874 46.979 183.843 47.519C183.213 47.789 181.496 48.0591 180.064 48.0591C177.889 48.0591 177.087 47.789 175.713 46.4389C174.74 45.5749 174.11 44.6028 174.282 44.3868C174.454 44.1167 174.797 43.3067 175.141 42.6046C175.541 41.4706 175.999 41.3085 178.29 41.3085C180.465 41.3085 180.923 41.4706 180.923 42.3346ZM253.293 42.1186C254.438 42.1186 254.781 42.3886 254.781 43.3607C254.781 44.8728 255.755 45.8989 257.358 45.8989C259.419 45.9529 255.125 49.1391 252.892 49.1931C249.628 49.3011 248.254 49.0851 246.537 48.1671C244.189 46.871 244.132 46.1149 246.193 45.6829C247.567 45.4669 248.197 44.8728 248.941 43.2527C249.743 41.5246 250.086 41.2545 250.888 41.6326C251.403 41.9026 252.491 42.1186 253.293 42.1186ZM106.836 47.627C105.462 50.1112 104.088 52.9194 103.745 53.8375C103 55.9977 102.313 56.1057 101.454 54.1075C100.825 52.7034 100.825 52.7574 101.054 54.8096C101.168 55.9977 101.454 60.966 101.683 65.8804C101.855 70.7948 102.371 76.5732 102.886 78.7874C103.344 80.9475 103.516 82.9457 103.229 83.1617C102.829 83.4857 96.5878 84.8358 96.3588 84.6198C96.3016 84.5658 96.0153 81.7036 95.6718 78.3013C94.6984 68.4726 94.8702 61.6141 96.1871 57.0777C96.8168 54.9716 97.5039 51.4613 97.7329 49.3011L98.0764 45.4128L101.283 44.7648C103.058 44.4408 105.405 43.9547 106.493 43.7387C107.581 43.5227 108.668 43.3067 108.84 43.2527C109.069 43.1987 108.153 45.1968 106.836 47.627ZM164.892 44.2788C173.079 44.8188 173.137 44.8188 174.454 46.3849C176.915 49.3551 181.954 49.8412 185.16 47.465C186.534 46.4389 187.107 46.3849 191.802 46.763C194.664 46.925 197.069 47.303 197.241 47.519C197.355 47.735 196.725 50.2192 195.695 52.9734C194.149 57.4558 193.634 58.3198 191.172 60.372C186.133 64.5843 184.931 71.3348 188.023 78.3013C188.882 80.2455 189.74 82.1896 189.855 82.6217C190.084 83.3237 189.111 83.4317 183.385 83.4857C176.4 83.5397 169.072 84.6738 164.205 86.4019L161.457 87.374V84.5658C161.457 83.0537 162.087 78.8954 162.888 75.3311C165.178 64.9083 164.663 59.6159 161.056 56.0517C160.255 55.2956 158.823 54.3235 157.907 53.9455C156.418 53.3514 153.842 50.1652 149.834 43.9547C149.433 43.3067 149.09 43.2527 164.892 44.2788ZM259.934 44.2788C258.274 45.5209 257.014 45.6289 256.041 44.7108C254.781 43.5227 255.296 43.1987 258.388 43.1987H261.365L259.934 44.2788ZM86.6256 48.5451C87.4844 50.9213 89.4883 54.8096 91.0342 57.1857L93.7824 61.6141L94.4122 71.4428C94.7557 76.8432 95.2137 82.0276 95.3855 82.9997L95.729 84.6738L92.4655 85.0518C89.4883 85.4299 84.679 85.2139 79.5833 84.4578L77.5222 84.1338L77.7512 70.9568C77.923 62.3701 77.8085 57.7798 77.4077 57.7798C76.7206 57.7798 72.6556 62.7482 71.3387 65.1783C69.5066 68.6346 70.5944 72.9549 74.6595 78.3553L76.6061 80.8935L75.232 82.8377C74.4305 83.9178 73.6289 84.7818 73.3426 84.7818C72.4266 84.7818 67.1592 79.2734 65.2698 76.3572C60.4604 68.8506 63.3804 58.7519 72.9991 49.6252C76.7779 46.0609 80.0986 44.2788 83.0186 44.2788C85.0225 44.2788 85.0225 44.3328 86.6256 48.5451ZM123.555 47.087C124.013 47.519 124.413 47.519 125.158 46.979C125.959 46.3309 126.131 46.3309 126.589 47.141C127.276 48.2751 128.593 48.3291 129.051 47.195C129.337 46.4389 129.509 46.4389 130.654 47.195C131.57 47.843 132.085 47.897 132.658 47.411C133.231 46.979 133.689 47.033 134.433 47.627C134.948 48.1131 135.75 48.3291 136.208 48.1671C136.78 48.005 136.895 48.1671 136.666 48.8151C136.437 49.3551 136.265 50.0032 136.265 50.3272C136.265 50.7052 136.036 50.7052 135.521 50.2732C134.948 49.8412 134.547 49.8952 134.089 50.3272C133.631 50.7592 133.345 50.7052 133.059 50.0032C132.715 49.1391 132.601 49.1391 131.627 50.0032C130.597 50.8673 130.482 50.8673 129.738 49.9492C129.051 49.0311 128.822 49.0311 128.02 49.6252C127.219 50.2732 126.933 50.2192 126.016 49.4632C125.043 48.6531 124.929 48.6531 124.184 49.4632C123.497 50.2192 123.383 50.2192 122.696 49.3551C121.264 47.519 121.951 45.5749 123.555 47.087ZM128.02 50.7052C128.822 50.1112 128.994 50.1652 129.509 50.9753C130.024 51.8393 130.196 51.8393 131.398 51.0833C132.601 50.3272 132.772 50.3272 133.059 51.1373C133.345 51.7313 133.631 51.7853 134.147 51.4073C135.635 50.2192 136.208 51.5693 136.322 56.8077C136.494 62.3161 136.15 63.4502 134.948 61.8841C134.261 61.02 134.147 61.02 133.46 61.7761C132.772 62.5861 132.601 62.5861 131.971 61.7221C131.341 60.912 131.112 60.912 130.253 61.5601C129.394 62.2621 129.165 62.2081 128.478 61.29C127.677 60.318 127.677 60.318 126.875 61.29C126.131 62.2621 126.074 62.2621 125.444 61.074C124.871 60.102 124.585 59.9939 123.955 60.48C122.409 61.6681 121.951 60.48 121.951 55.3496C121.951 50.7052 122.009 50.3272 123.039 50.5972C123.612 50.7592 124.299 50.5972 124.528 50.2192C124.814 49.7872 125.215 49.8952 126.016 50.5432C126.933 51.2993 127.219 51.3533 128.02 50.7052ZM159.968 56.1597C161.915 57.7798 164.091 61.9381 163.633 63.1802C163.518 63.5042 161.972 61.7221 160.255 59.1839C158.48 56.6457 157.22 54.5395 157.506 54.5395C157.793 54.5395 158.88 55.2956 159.968 56.1597ZM77.0069 76.6272L76.6061 79.5974L75.5183 78.2473C73.5716 75.9252 70.9952 70.6328 70.9952 69.0126C70.9952 67.1765 72.1403 64.9623 74.9457 61.29L77.0069 58.5898L77.1787 66.1504C77.2932 70.3087 77.1787 75.0611 77.0069 76.6272ZM227.643 60.966C227.471 61.236 226.44 61.6141 225.295 61.7761C222.318 62.3161 222.032 63.3962 225.009 62.9102C227.986 62.4241 227.7 63.4502 224.723 63.9362C221.917 64.4763 222.204 65.1243 225.181 64.9623C227.013 64.8543 227.299 64.9083 226.44 65.2863C224.723 66.0424 217.509 65.9344 215.562 65.1243L213.844 64.4223L215.562 63.6122C219.627 61.6681 228.444 59.7239 227.643 60.966ZM127.047 62.4241C127.791 61.6141 127.906 61.6141 128.536 62.4781C129.165 63.2882 129.394 63.2882 130.253 62.6402C131.112 61.9921 131.284 61.9921 131.799 62.8562C132.314 63.7202 132.429 63.7202 133.402 62.9102C134.318 62.1001 134.433 62.1001 134.776 62.9642C134.948 63.4502 135.463 63.7202 135.979 63.5042C136.609 63.2882 136.838 63.6122 136.78 64.9623C136.723 65.9344 136.952 68.5266 137.296 70.7408C137.754 74.143 137.696 74.9531 136.952 75.7631C136.093 76.6272 136.036 76.6272 134.776 75.5471L133.517 74.413L132.83 75.6011C132.2 76.7352 132.143 76.7352 131.341 75.7631C130.597 74.8451 130.482 74.8451 129.738 75.7091C129.051 76.6272 128.936 76.6272 127.906 75.5471C126.875 74.467 126.818 74.467 125.959 75.4391C125.444 76.0332 124.413 76.4652 123.383 76.4652C121.722 76.4112 121.665 76.3572 121.493 73.441C121.264 69.8227 121.894 65.4484 122.467 66.3664C122.81 66.8525 123.097 66.7985 123.669 66.1504C124.356 65.3944 124.471 65.3944 125.444 66.1504C126.36 66.9605 126.475 66.9605 126.99 66.0424C127.562 65.1243 127.62 65.1243 128.65 66.0424C129.509 66.6905 129.91 66.7985 130.425 66.3124C130.883 65.8804 131.284 65.8804 131.971 66.4204C132.601 66.9605 133.059 66.9605 133.517 66.5284C133.975 66.0964 134.376 66.1504 135.005 66.7445C135.463 67.1765 135.921 67.4465 136.093 67.2845C136.265 67.1765 135.807 66.5284 135.12 65.8804C134.089 64.9083 133.746 64.8003 133.345 65.3944C132.887 66.0424 132.658 65.9884 132.028 65.1783C131.341 64.3683 131.169 64.3143 130.54 65.0703C129.853 65.8264 129.681 65.8264 128.707 64.9623C127.62 64.0443 127.505 64.0443 126.875 64.9083C126.188 65.7724 126.074 65.7724 125.158 64.9083C124.356 64.1523 124.127 64.0983 123.726 64.7463C122.982 65.8804 121.951 64.9623 121.951 63.1802C121.951 62.0461 122.18 61.6681 122.753 61.8841C123.211 62.0461 123.726 61.8841 123.955 61.5601C124.184 61.182 124.7 61.3981 125.329 62.1541C126.188 63.1802 126.36 63.2342 127.047 62.4241ZM207.088 62.9102C207.203 62.9102 206.516 63.7742 205.657 64.6923L204.111 66.4744L202.107 65.4484C199.76 64.2063 199.531 63.0722 201.535 62.5861C202.68 62.3161 206.573 62.5321 207.088 62.9102ZM208.405 73.1709C208.405 73.603 207.661 74.7911 206.688 75.7631C205.772 76.7892 204.97 77.8153 204.97 78.0853C204.97 78.9494 208.348 75.4391 209.035 73.873C209.779 72.0909 209.779 72.0909 214.99 74.197C216.879 74.9531 219.055 75.6011 219.856 75.6011C220.658 75.6011 222.547 76.4652 224.093 77.4913C225.639 78.5173 227.471 79.3814 228.101 79.3814C228.902 79.3814 228.502 79.0034 226.956 78.3553C223.749 76.9512 223.463 76.3032 225.982 75.8711C227.127 75.6551 229.131 75.0071 230.334 74.413C231.536 73.873 232.624 73.441 232.738 73.549C233.025 73.819 234.742 82.5677 234.742 83.6477C234.742 84.1338 234.284 85.0518 233.712 85.7539C232.738 86.942 232.624 86.942 230.448 86.0779C226.898 84.6738 216.764 84.4578 209.321 85.5919C204.054 86.4019 203.081 86.4559 202.623 85.8079C201.707 84.4578 201.936 81.3796 203.539 74.143C203.939 72.5769 208.405 71.6588 208.405 73.1709ZM129.681 76.6812C130.368 76.1412 130.711 76.1412 131.456 76.7352C132.257 77.3293 132.486 77.3293 133.116 76.5192C133.746 75.6551 133.86 75.7091 134.834 76.6812C135.807 77.7073 135.921 77.7073 137.009 76.8432C137.868 76.0872 138.097 76.0332 137.925 76.6812C137.868 77.1132 137.983 77.8693 138.154 78.3013C138.326 78.7334 138.727 80.8935 139.013 82.9997C139.414 86.3479 139.357 86.942 138.612 87.158C135.521 87.9681 130.711 88.5621 126.246 88.7241L121.093 88.8321V84.7818V80.7315H123.211C124.642 80.7315 125.616 80.4075 126.188 79.6514C126.99 78.6254 127.047 78.6254 128.135 79.5434C129.223 80.5155 129.337 80.5155 129.853 79.5974C130.368 78.7334 130.54 78.7334 131.398 79.3814C132.257 80.0295 132.486 80.0295 133.059 79.2734C133.746 78.4093 133.86 78.4093 134.719 79.2194C135.463 79.9215 135.807 79.9755 136.494 79.3814C137.009 79.0034 137.41 78.4633 137.41 78.1933C137.41 77.8693 137.009 77.9773 136.494 78.3553C135.692 78.9494 135.463 78.8954 134.719 78.0313C133.975 77.0052 133.86 77.0052 133.173 77.8693C132.257 79.0574 131.742 79.1114 130.826 77.9233C130.196 77.1132 130.082 77.1132 129.681 78.2473C129.337 79.3814 129.223 79.3814 127.963 78.6254C126.704 77.8153 126.532 77.8693 125.73 78.8954C125.215 79.5974 124.528 79.9215 124.013 79.7594C123.555 79.5974 122.982 79.6514 122.81 79.9755C122.238 80.7855 121.379 79.9755 121.379 78.5714C121.379 77.5993 121.608 77.3293 122.238 77.5453C122.696 77.7613 123.097 77.5993 123.097 77.2213C123.097 76.7352 123.326 76.7352 124.013 77.2753C124.871 77.9233 125.1 77.8693 125.845 76.7892C126.646 75.6551 126.761 75.6011 127.734 76.4652C128.593 77.2213 128.936 77.2213 129.681 76.6812ZM76.4916 84.3498C76.3771 85.3219 76.2626 87.9681 76.2053 90.1282C76.1481 95.0966 75.2893 94.6646 74.545 89.3722C74.0869 86.0239 74.1442 85.4299 75.1175 84.0798C75.7473 83.2697 76.3198 82.6217 76.4344 82.6217C76.5489 82.6217 76.5489 83.4317 76.4916 84.3498ZM103.344 86.726C103.516 88.0761 103.63 89.3182 103.516 89.4262C103.058 89.8042 100.71 85.3219 101.054 84.7818C101.912 83.4857 102.943 84.3498 103.344 86.726ZM184.301 85.4299C185.103 86.1319 185.389 86.2399 184.988 85.6999C183.614 84.0258 184.874 83.9718 186.82 85.6999C187.794 86.618 189.225 87.644 189.969 87.9681C190.656 88.3461 191.229 88.8321 191.229 89.1562C191.229 89.4802 191 89.5342 190.656 89.3722C189.74 88.8321 189.969 89.6422 191 90.6143C192.546 92.0184 191.744 106.005 189.282 122.045C188.137 129.335 187.049 138.408 186.82 142.296L186.477 149.317L184.473 145.266C179.148 134.25 176.915 121.937 176.915 103.629C176.915 96.3387 176.915 96.2307 175.484 95.3666C174.683 94.8806 174.053 94.7186 174.053 94.9886C174.053 95.3126 174.511 95.7987 175.141 96.0687C176.114 96.5547 176.228 97.6888 176.515 108.922C176.744 115.672 177.259 123.287 177.66 125.825C178.118 128.363 178.347 131.279 178.175 132.251C178.003 133.44 178.118 133.98 178.519 133.71C178.862 133.548 179.664 135.168 180.58 137.76C181.381 140.136 184.301 146.508 186.992 151.909C189.683 157.309 192.031 162.116 192.202 162.602C192.374 163.142 191.286 164.168 188.939 165.734C185.618 167.948 183.958 168.38 185.446 166.652C186.019 166.004 185.962 165.896 184.988 166.166C182.698 166.706 170.388 147.319 166.953 137.652C164.32 130.253 163.003 119.938 162.258 101.523L161.858 91.5323L163.69 89.0481C165.121 86.996 165.923 86.4019 167.984 85.9159C171.476 85.1059 172.221 85.1599 172.507 86.2399C172.736 86.996 172.793 86.888 172.85 85.9699C172.965 84.2418 174.053 84.5118 174.11 86.2399C174.167 87.104 174.396 88.3461 174.683 89.1021C175.026 90.0742 175.083 89.6422 174.912 87.644C174.568 84.4038 174.625 84.3498 179.435 84.2958C182.183 84.2418 183.156 84.4578 184.301 85.4299ZM190.313 85.1059C191.172 87.212 190.714 87.644 188.824 86.4559C187.794 85.8619 186.878 85.1059 186.763 84.8358C186.42 83.8638 189.912 84.1338 190.313 85.1059ZM82.446 85.6999C82.6178 85.8619 81.4727 87.05 79.9269 88.3461C78.381 89.6962 77.0069 90.6683 76.8924 90.5063C76.7206 90.3442 76.7779 89.0481 77.0069 87.536L77.4077 84.7818L79.7551 85.1059C81.0719 85.3219 82.2743 85.5919 82.446 85.6999ZM102.485 89.6422C103.802 91.3703 103.974 92.0184 102.943 91.4783C102.542 91.2623 102.657 91.5863 103.229 92.2344C104.145 93.2065 104.374 94.6646 104.603 103.035C105.004 114.214 104.432 120.209 101.569 135.546C100.481 141.324 99.1643 148.237 98.649 150.937C98.1909 153.583 97.4466 158.605 97.1031 162.008C96.7023 165.95 96.1871 168.218 95.7863 168.218C95.4427 168.218 94.9275 168.38 94.6984 168.65C94.4694 168.866 94.6984 169.028 95.2137 169.028C95.7863 169.028 96.1871 169.244 96.1871 169.514C96.1871 170 91.1487 170.594 90.6907 170.162C90.5761 170.054 90.4616 166.49 90.4616 162.332C90.4616 154.771 91.0914 147.103 93.2671 125.825C93.8969 119.722 94.5839 110.596 94.813 105.573C95.0992 98.1748 95.3282 96.2847 96.0725 95.7447C97.3321 94.7726 96.6451 94.3946 95.2137 95.3126C94.1259 96.0147 94.0686 96.8247 93.7251 107.572C93.5534 113.89 92.6945 125.015 91.893 132.305C90.4044 146.184 89.0303 165.95 89.5456 167.192C89.7173 167.57 89.3738 168.164 88.8585 168.434C87.9425 168.974 87.9425 168.974 88.9158 169.028C89.4883 169.028 89.8891 169.352 89.7746 169.676C89.6028 170.108 88.1142 170.432 85.7095 170.54C82.6178 170.648 81.8735 170.54 81.8735 169.892C81.8735 169.46 82.446 168.974 83.1904 168.866C84.1064 168.704 83.9919 168.596 82.6751 168.542C81.301 168.488 80.7857 168.164 80.4994 167.3C79.9841 165.356 80.0986 162.548 80.7284 162.548C81.4727 162.548 81.4727 160.55 80.7857 160.118C80.4994 159.956 80.0986 160.28 79.9841 160.766C79.8124 161.306 79.6978 157.795 79.6406 152.935C79.5833 147.427 79.8124 144.186 80.1559 144.186C80.4994 144.186 80.7284 143.538 80.7284 142.782C80.7284 142.026 80.4994 141.54 80.1559 141.756C79.8124 141.972 79.5833 140.028 79.6406 136.248C79.6406 132.467 79.8124 130.793 80.1559 131.495C80.6139 132.521 80.6712 132.521 80.6712 131.387C80.7284 130.739 80.4421 130.145 80.0414 130.037C79.3543 129.821 77.923 122.261 77.923 119.344C77.923 118.102 77.9802 118.102 78.4383 119.074C78.8963 120.1 78.9535 120.1 78.9535 118.912C79.0108 118.21 78.6673 117.724 78.152 117.724C77.6939 117.724 77.2932 117.346 77.2932 116.914C77.2932 116.482 77.5794 116.104 77.8657 116.104C78.2092 116.104 78.4383 115.618 78.4383 115.024C78.4383 114.43 78.152 113.944 77.8657 113.944C77.4649 113.944 77.4077 113.242 77.6367 112C77.923 110.542 77.8657 110.11 77.3504 110.38C76.9496 110.65 76.7206 110.326 76.7206 109.678C76.7206 109.03 77.0069 108.544 77.2932 108.544C78.0947 108.544 77.9802 107.086 77.1787 106.761C76.6061 106.599 76.6061 106.275 77.1787 105.357C77.7512 104.385 77.8085 103.953 77.2359 103.359C76.7206 102.765 76.7206 102.279 77.2359 101.145C77.9802 99.5789 77.5794 98.6609 76.6634 99.903C76.2053 100.497 76.2053 100.335 76.5489 99.3629C76.7779 98.6069 76.9496 97.0948 76.8924 95.9607C76.7779 94.8806 77.0069 93.9625 77.2932 93.9625C78.0947 93.9625 77.9802 92.5044 77.1787 92.1264C76.6634 91.9644 76.7779 91.6403 77.5794 91.2083C78.2092 90.8303 79.9269 89.4262 81.4727 88.0761C83.1904 86.564 84.0492 86.0779 83.8774 86.726C83.5339 87.698 83.5339 87.698 84.3354 86.78C84.9652 86.0779 86.0531 85.8619 89.2593 85.8619C91.6067 85.8619 93.3243 86.0779 93.3243 86.4019C93.3243 86.672 93.6106 86.942 93.9541 86.942C94.2404 86.942 94.3549 86.672 94.1832 86.4019C94.0114 86.0779 94.1259 85.8619 94.4122 85.8619C94.7557 85.8619 95.042 86.942 95.042 88.2921C95.042 89.6422 95.2137 90.7223 95.5 90.7223C95.729 90.7223 95.7863 89.5342 95.729 88.0221C95.5 85.3219 95.5 85.3219 97.2176 85.3219C98.1909 85.3219 99.107 85.6459 99.2215 85.9699C99.3933 86.3479 99.565 86.1859 99.6223 85.5919C99.6223 84.7818 99.8513 84.9438 100.481 86.2939C100.939 87.266 101.855 88.7781 102.485 89.6422ZM229.189 86.4559C231.364 86.942 231.88 87.266 231.88 88.2921C231.88 89.4262 231.708 89.4262 229.189 89.0481C225.753 88.5081 214.016 88.5081 208.577 89.0481C204.512 89.4262 204.397 89.3722 204.397 88.2381C204.397 87.158 204.856 86.996 208.291 86.4559C210.409 86.1319 212.757 85.7539 213.558 85.6459C216.02 85.2139 226.383 85.7539 229.189 86.4559ZM163.06 88.8321C162.716 89.5882 162.201 90.1822 161.915 90.1822C161.171 90.1822 161.4 88.1301 162.201 87.8601C163.575 87.32 163.69 87.482 163.06 88.8321ZM217.108 92.1804L217.222 95.3126L217.394 92.1804L217.623 89.1021H220.658C223.578 89.1021 223.749 89.2102 224.494 90.8303C224.895 91.8024 227.127 94.3946 229.418 96.5547L233.597 100.497L234.399 108.976C235.601 120.857 236.403 133.71 237.204 152.503C238.006 171.08 238.578 169.298 231.88 169.622L228.158 169.838L227.471 164.708C227.127 161.9 226.097 154.339 225.295 147.967C222.375 125.447 219.055 104.925 218.139 104.007C217.509 103.359 217.165 107.95 215.562 139.056C214.76 154.177 214.016 167.354 213.844 168.218L213.558 169.838L208.806 169.46C206.23 169.298 203.882 169.082 203.596 169.082C203.367 169.028 203.195 153.313 203.31 133.656L203.539 98.3368L206.459 95.7447C208.119 94.3405 209.837 92.3964 210.352 91.4243C211.211 89.7502 212.07 89.4262 215.734 89.1562C216.879 89.1021 216.993 89.3722 217.108 92.1804ZM231.135 96.3387C232.624 97.6888 233.597 98.8229 233.254 98.8229C232.624 98.8229 227.356 93.8005 225.925 91.8024C225.41 91.1003 225.009 90.1282 225.009 89.6422C225.009 89.2102 225.811 89.9662 226.727 91.3703C227.643 92.7204 229.647 94.9886 231.135 96.3387ZM208.405 90.0742C208.405 90.2902 207.375 91.4783 206.115 92.6124C204.226 94.3405 203.825 94.5566 203.825 93.6925C203.825 91.3703 204.512 90.2362 206.058 90.0202C206.859 89.9122 207.718 89.7502 208.005 89.6962C208.234 89.6962 208.405 89.8582 208.405 90.0742ZM209.321 91.6943C208.405 93.3685 204.455 96.8787 203.997 96.4467C203.825 96.2847 205.085 94.7186 206.745 92.9364C208.463 91.1543 209.894 89.8042 210.008 89.9122C210.123 90.0202 209.837 90.7763 209.321 91.6943ZM232.166 90.2362C232.223 90.3442 232.509 91.8564 232.738 93.5305C233.025 95.6907 232.967 96.6627 232.509 96.6627C231.822 96.6627 226.727 90.7763 226.727 89.9662C226.727 89.5342 231.65 89.8042 232.166 90.2362ZM37.387 93.2605C36.8717 94.6646 35.4403 96.6627 34.9823 96.6627C34.7533 96.6627 34.696 95.6907 34.8106 94.5026C35.0396 92.6664 35.2113 92.3424 36.4137 92.3424C37.4442 92.3424 37.6733 92.5584 37.387 93.2605ZM49.8684 94.5026L50.2119 96.3927L50.3264 94.3405L50.3837 92.3424H55.5366H60.6322L61.6055 94.2325C62.1208 95.3126 63.0941 96.5007 63.7239 96.9327C64.7545 97.6348 64.869 98.5529 65.327 110.002C65.6133 116.752 66.0713 126.905 66.4149 132.575C66.7011 138.192 67.1019 149.533 67.3309 157.741L67.7317 172.646L63.2086 172.97C60.7467 173.133 58.5138 173.133 58.2848 172.916C57.3115 171.998 55.7083 157.417 52.3876 118.804C51.586 109.462 50.67 101.577 50.4409 101.361C50.1547 101.091 49.8112 102.063 49.5821 103.521C48.8951 108.544 46.8912 141.486 45.9179 163.898L45.5171 172.538L40.536 172.7L35.6121 172.862L35.2686 169.73C35.0968 168.002 34.8106 151.207 34.5815 132.413L34.1808 98.2288L35.9556 96.5007C36.8717 95.5286 37.845 94.2325 38.074 93.5305C38.4176 92.3424 38.6466 92.2884 43.9712 92.4504L49.5249 92.6124L49.8684 94.5026ZM64.6972 94.8806L64.64 96.9327L63.2659 95.3126C61.491 93.2605 61.491 92.8824 63.2659 92.8824C64.5255 92.8824 64.6972 93.0984 64.6972 94.8806ZM179.721 161.846C184.473 168.596 185.332 170.486 183.213 169.838C182.584 169.622 182.068 169.73 182.068 170.054C182.068 170.378 182.584 170.648 183.213 170.648C183.843 170.648 184.359 170.864 184.359 171.188C184.359 171.782 182.24 171.89 178.404 171.404C175.656 171.026 174.797 170.162 177.087 170.054C178.347 169.946 178.347 169.946 177.087 169.73C175.999 169.514 175.828 169.082 175.541 164.816C175.312 162.224 175.026 158.929 174.854 157.417C174.683 155.959 174.683 154.879 174.797 154.987C174.969 155.149 177.144 158.227 179.721 161.846ZM192.26 165.896C192.66 166.274 192.947 166.868 192.947 167.246C192.947 168.758 190.542 173.781 188.882 175.617C187.393 177.399 187.049 177.561 186.305 176.913C185.904 176.481 185.217 176.049 184.817 175.941C184.072 175.671 184.53 174.861 187.278 171.674C188.309 170.432 188.366 170.108 187.679 169.082C187.049 168.056 187.049 167.84 187.794 167.408C188.252 167.138 189.168 166.544 189.798 166.112C191.172 165.086 191.401 165.086 192.26 165.896ZM187.164 169.514C187.622 170.27 187.393 170.81 186.019 172.052L184.359 173.565L184.702 171.728C185.332 168.164 186.076 167.516 187.164 169.514ZM251.918 170.378C251.918 171.404 251.689 172.268 251.346 172.268C250.716 172.268 250.544 169.406 251.174 168.866C251.804 168.218 251.918 168.434 251.918 170.378ZM263.369 170.054C263.369 170.972 263.14 171.836 262.797 171.998C262.453 172.214 262.224 171.566 262.224 170.432C262.224 169.352 262.51 168.488 262.797 168.488C263.14 168.488 263.369 169.19 263.369 170.054ZM247.338 170.702C247.338 171.62 247.109 172.214 246.766 171.998C246.479 171.836 246.193 171.08 246.193 170.324C246.193 169.622 246.479 169.028 246.766 169.028C247.109 169.028 247.338 169.784 247.338 170.702ZM250.201 170.648C250.201 172.376 248.884 172.916 248.254 171.404C247.624 169.838 247.911 169.028 249.056 169.028C249.972 169.028 250.201 169.406 250.201 170.648ZM258.445 169.892C259.018 171.35 258.846 172.268 257.93 172.268C257.358 172.268 257.071 171.728 257.071 170.648C257.071 168.92 257.873 168.488 258.445 169.892ZM261.48 170.486C261.365 171.404 260.965 172.052 260.335 172.16C259.591 172.322 259.362 171.944 259.362 170.702C259.362 169.406 259.591 169.028 260.449 169.028C261.308 169.028 261.537 169.352 261.48 170.486ZM238.177 170.324C238.177 171.134 237.09 171.404 231.937 172.052C229.647 172.322 228.731 172.214 228.387 171.674C227.929 170.972 230.792 170.324 237.49 169.622C237.834 169.622 238.177 169.892 238.177 170.324ZM210.924 170.432C212.699 170.702 213.558 171.08 213.558 171.566C213.558 172.214 212.928 172.322 210.008 171.998C204.913 171.512 203.252 171.188 203.252 170.594C203.252 170.054 207.031 169.946 210.924 170.432ZM88.286 173.457C88.6868 176.805 87.2554 178.641 84.5072 178.317L82.446 178.101V175.023C82.446 173.295 82.6178 171.728 82.8468 171.566C83.0186 171.35 84.2782 171.188 85.6523 171.188H88.057L88.286 173.457ZM95.6145 174.213C95.6145 176.805 95.5 177.183 94.6412 176.913C94.0686 176.805 92.7518 176.535 91.7785 176.319C90.0036 175.995 89.8891 175.833 89.8891 173.565V171.188H92.7518H95.6145V174.213ZM183.786 173.511C183.786 175.293 181.668 176.967 177.889 178.209C173.652 179.613 171.763 179.613 171.705 178.209C171.648 177.615 171.591 176.805 171.534 176.481C171.476 176.049 172.793 175.563 174.625 175.239C177.202 174.753 177.832 174.483 177.946 173.457C178.118 172.43 178.461 172.268 180.981 172.268C183.557 172.268 183.786 172.376 183.786 173.511ZM209.15 172.592C212.413 173.133 211.898 174.429 208.405 174.429C205.943 174.429 205.543 174.267 205.543 173.349C205.543 172.16 205.886 172.106 209.15 172.592ZM236.46 173.349C236.46 174.267 236.059 174.429 233.597 174.429C231.479 174.429 230.734 174.213 230.734 173.673C230.734 172.916 232.051 172.538 235.2 172.322C236.116 172.268 236.46 172.538 236.46 173.349ZM125.272 173.943C125.387 174.591 124.871 174.915 123.268 175.185C119.604 175.725 119.089 175.617 119.089 174.267C119.089 173.187 119.375 173.079 122.066 173.079C124.413 173.079 125.1 173.295 125.272 173.943ZM144.281 174.213C144.281 175.563 144.166 175.617 142.162 175.293C140.96 175.131 139.643 174.969 139.299 174.969C138.899 174.969 138.555 174.483 138.555 173.889C138.555 172.97 138.956 172.808 141.418 172.808C144.109 172.808 144.281 172.862 144.281 174.213ZM251.918 176.805V180.747L250.144 181.125C247.224 181.665 246.823 181.557 247.224 180.261C247.453 179.397 247.109 178.803 245.85 177.831L244.189 176.589H246.136C248.025 176.589 248.082 176.535 246.995 175.779C245.907 175.023 245.907 175.023 247.052 174.969C248.14 174.915 248.14 174.915 247.224 174.213C245.621 173.079 245.964 172.808 249.056 172.808H251.918V176.805ZM263.369 173.349C263.369 173.619 262.969 173.889 262.51 173.889C262.052 173.889 261.652 174.105 261.652 174.429C261.652 174.699 262.11 174.807 262.682 174.645C263.598 174.375 263.598 174.375 262.682 175.131C261.48 176.049 261.365 176.481 262.396 176.427C263.427 176.319 268.522 177.237 268.522 177.453C268.522 177.561 268.293 178.101 268.007 178.641C267.721 179.127 267.32 179.991 267.148 180.585C266.805 181.503 266.347 181.557 262.51 181.341C260.106 181.179 258.045 180.909 257.873 180.747C257.644 180.531 257.358 178.695 257.186 176.589L256.9 172.808H260.163C261.938 172.808 263.369 173.024 263.369 173.349ZM44.0857 173.943C44.0857 175.023 41.5093 176.535 39.7344 176.589C38.2458 176.589 37.845 176.319 37.6733 175.239C37.5015 174.537 37.5015 173.781 37.6733 173.619C38.2458 173.079 44.0857 173.349 44.0857 173.943ZM65.7278 175.077C65.4416 176.913 62.6361 176.967 60.4032 175.239L58.6856 173.889H62.2926C65.7278 173.889 65.8996 173.943 65.7278 175.077ZM209.207 177.507C208.463 178.857 207.833 180.315 207.833 180.747C207.833 181.287 206.688 181.449 203.252 181.449C199.703 181.449 198.672 181.287 198.672 180.693C198.672 180.261 199.474 179.667 200.447 179.343C201.707 178.965 202.107 178.533 201.878 177.939C201.707 177.507 201.821 177.129 202.165 177.129C202.451 177.129 202.966 177.669 203.252 178.317C203.71 179.505 203.768 179.451 203.825 177.939V176.319L205.027 177.669C206.001 178.803 206.172 178.803 205.829 177.939C204.97 175.455 205.314 174.969 208.062 174.969H210.524L209.207 177.507ZM236.517 175.617C236.632 176.589 236.574 176.751 236.174 177.777C235.945 178.317 236.002 178.749 236.345 178.749C236.632 178.749 237.09 178.209 237.319 177.507C237.719 176.373 237.777 176.427 238.12 177.939C238.464 179.451 238.521 179.451 238.865 178.317C239.036 177.669 239.552 177.129 239.895 177.129C240.296 177.129 240.468 177.507 240.239 177.993C240.01 178.533 240.41 178.965 241.613 179.397C242.586 179.667 243.33 180.261 243.33 180.693C243.33 181.287 242.3 181.449 238.75 181.449C235.315 181.449 234.17 181.287 234.17 180.747C234.17 180.315 233.54 178.857 232.796 177.507L231.479 174.969H233.941C235.544 174.969 236.46 175.239 236.517 175.617ZM124.127 177.507C123.326 178.371 122.467 179.559 122.238 180.261C121.894 181.395 121.608 181.503 118.344 181.341C115.024 181.179 114.852 181.125 114.394 179.559C113.821 177.561 114.795 176.427 115.882 177.831C116.627 178.695 116.684 178.695 117.028 177.561L117.371 176.319L118.287 177.669C119.089 178.911 119.146 178.911 118.917 177.831C118.573 176.481 119.26 176.211 123.039 176.103L125.616 176.049L124.127 177.507ZM144.052 176.373C144.968 176.589 145.197 176.967 144.968 177.831C144.681 178.965 144.739 178.911 145.884 177.669L147.086 176.319L147.143 177.615C147.143 178.911 147.143 178.911 147.945 177.885C149.147 176.427 150.121 177.507 149.548 179.559C149.09 181.125 148.918 181.179 145.54 181.341C142.677 181.449 141.99 181.341 141.99 180.693C141.99 180.261 141.189 179.019 140.216 177.939L138.441 176.049H140.616C141.876 176.049 143.422 176.211 144.052 176.373ZM211.726 178.317C211.612 180.261 211.325 180.693 210.295 180.801C208.692 181.017 208.577 179.937 209.837 177.669C211.096 175.347 211.955 175.671 211.726 178.317ZM232.166 177.669C233.425 179.937 233.311 181.017 231.765 180.801C230.677 180.693 230.391 180.261 230.276 178.317C230.047 175.671 230.906 175.347 232.166 177.669ZM36.3564 179.181C36.0129 179.559 34.4098 177.615 34.4098 176.859C34.4098 176.535 34.9251 176.913 35.5549 177.615C36.1847 178.317 36.5282 179.019 36.3564 179.181ZM68.476 178.317C67.8462 179.127 67.56 179.289 67.56 178.695C67.56 177.831 68.7623 176.427 69.1631 176.859C69.2776 176.967 68.9913 177.615 68.476 178.317ZM89.4883 177.777C89.2593 178.857 89.3166 178.911 89.8891 178.047C90.6334 176.913 91.7212 176.805 91.2632 177.939C91.0342 178.371 91.2059 178.749 91.5495 178.749C91.893 178.749 92.1793 178.371 92.1793 177.885C92.1793 177.291 92.5228 177.129 93.4961 177.399C96.4733 178.209 97.9047 178.911 97.9047 179.613C97.9047 180.801 95.3855 181.449 90.9769 181.449C87.2554 181.449 87.0264 181.395 87.0264 180.207C87.0264 178.911 88.4577 176.589 89.3166 176.589C89.5456 176.589 89.6601 177.129 89.4883 177.777ZM34.009 177.993C34.5815 179.343 33.9517 179.559 33.2074 178.263C32.8639 177.615 32.8067 177.129 33.1502 177.129C33.4365 177.129 33.8372 177.507 34.009 177.993ZM70.6517 178.425C70.3082 179.289 69.2776 179.667 69.2776 178.857C69.2776 178.317 70.5372 177.075 70.8234 177.345C70.938 177.453 70.8807 177.939 70.6517 178.425ZM99.0498 178.047C99.107 178.965 99.107 178.965 99.6223 178.101C100.08 177.399 100.538 177.291 102.027 177.723C104.432 178.371 105.806 179.613 104.947 180.423C104.661 180.693 102.829 181.125 100.996 181.287C98.0764 181.557 97.7329 181.503 98.3055 180.855C98.7635 180.315 98.8207 179.775 98.4772 179.289C97.7329 178.209 97.7902 177.129 98.4772 177.129C98.8207 177.129 99.0498 177.561 99.0498 178.047ZM200.962 177.939C200.962 178.371 200.619 178.749 200.218 178.749C199.76 178.749 198.958 179.235 198.386 179.829C197.241 181.017 196.096 181.233 195.523 180.369C194.951 179.505 196.267 178.263 198.329 177.723C200.848 177.021 200.962 177.021 200.962 177.939ZM245.506 178.533C246.995 179.451 247.109 180.261 245.85 180.747C245.334 180.909 244.533 180.585 243.846 179.883C243.216 179.289 242.357 178.749 241.899 178.749C241.441 178.749 241.04 178.371 241.04 177.939C241.04 176.967 243.33 177.291 245.506 178.533ZM113.936 180.477C113.936 181.287 113.65 181.395 112.39 181.125C109.814 180.585 109.47 179.883 111.073 178.695C112.39 177.615 112.505 177.615 113.192 178.533C113.592 179.073 113.936 179.937 113.936 180.477ZM125.73 180.153C125.387 181.071 123.097 181.179 123.097 180.261C123.097 179.937 123.555 179.181 124.07 178.641C124.929 177.723 125.1 177.723 125.558 178.479C125.845 178.965 125.902 179.721 125.73 180.153ZM140.845 180.207C140.845 181.125 138.727 181.125 138.383 180.207C138.269 179.883 138.269 179.127 138.441 178.587C138.67 177.669 138.784 177.669 139.757 178.533C140.387 179.019 140.845 179.775 140.845 180.207ZM153.785 179.343C154.243 180.099 153.556 180.693 151.609 181.125C149.834 181.503 149.491 180.639 150.579 178.695C151.094 177.885 151.437 177.777 152.296 178.209C152.869 178.533 153.556 179.019 153.785 179.343ZM271.671 178.317C273.045 178.911 273.561 180.045 272.645 180.585C272.415 180.693 271.27 180.963 270.068 181.179C268.293 181.503 267.95 181.395 267.95 180.639C267.95 179.505 268.98 177.669 269.667 177.669C269.954 177.669 270.87 177.939 271.671 178.317ZM85.9958 179.073C86.1676 179.235 86.2248 179.775 86.0531 180.315C85.7095 181.665 82.446 181.179 82.446 179.775C82.446 179.019 82.8468 178.749 84.0492 178.749C84.9652 178.749 85.824 178.911 85.9958 179.073Z" fill="#4F967D"/>
</svg>