<svg xmlns="http://www.w3.org/2000/svg" width="243" height="174" viewBox="0 0 243 174" fill="none">
  <path fill-rule="evenodd" clip-rule="evenodd" d="M87.9347 0.90094C79.3689 3.69468 73.132 10.9739 71.5357 20.042C70.8244 24.0837 71.5442 29.2852 73.3951 33.4724C75.9218 39.1894 82.7641 44.9165 89.0742 46.5965C91.4423 47.2272 116.753 47.4076 119.129 46.811C120.125 46.561 120.507 47 121.916 50.0119C122.813 51.9319 123.684 53.5026 123.85 53.5026C124.016 53.5026 123.535 52.2843 122.781 50.7959C122.027 49.3069 121.494 48.0053 121.596 47.9034C121.698 47.801 122.848 48.5632 124.151 49.5962C127.425 52.1909 134.277 55.413 138.723 56.4487C143.244 57.5013 150.889 57.6 155.087 56.6594C162.537 54.9905 166.199 50.8256 166.199 44.021C166.199 29.4408 148.369 21.239 138.387 31.2275C134.197 35.4205 133.265 40.7532 135.751 46.3141C137.688 50.6473 141.306 52.9717 146.114 52.9717C151.156 52.9717 154.69 50.9047 156.552 46.8673C157.803 44.1563 157.795 41.6073 156.527 38.8136C153.699 32.5811 144.48 32.7043 142.743 38.9983C141.691 42.8117 144.179 46.6586 147.765 46.76C150.92 46.8497 152.885 43.5979 150.886 41.5967C149.897 40.6067 147.944 40.5064 147.051 41.3997C145.991 42.4609 146.339 43.1186 147.436 42.1254C148.886 40.8127 150.357 41.2501 150.564 43.0554C150.785 44.9754 149.847 46.071 147.984 46.071C145.779 46.071 144.869 45.5763 144.008 43.9095C142.431 40.8578 143.471 36.772 146.135 35.558C151.276 33.2139 156.719 37.0268 156.648 42.9238C156.578 48.8287 151.596 52.8704 145.057 52.3279C139.315 51.8512 135.274 46.9909 135.274 40.5605C135.274 36.6048 136.689 33.4894 139.627 30.9727C147.507 24.2233 159.59 27.6487 164.313 37.9711C165.461 40.4809 165.61 41.4189 165.393 44.7912C165.193 47.9167 164.856 49.1153 163.714 50.764C161.02 54.6534 155.374 56.6875 147.269 56.6875C138.667 56.6875 128.342 52.7722 122.917 47.4522C120.172 44.7609 120.156 44.7243 120.214 41.559L120.273 38.374L119.949 41.559L119.625 44.7439L118.034 42.6812C117.158 41.5468 115.427 39.3407 114.187 37.7785C112.948 36.2168 111.935 34.7559 111.937 34.533C111.939 34.31 113.713 32.2987 115.879 30.064C122.425 23.3097 123.46 19.8737 120.194 15.7317C117.116 11.8269 116.256 11.0365 115.087 11.0365C114.466 11.0365 113.027 10.2387 111.889 9.2641C109.436 7.16309 106.736 6.2591 102.915 6.2591C99.0596 6.2591 96.3902 7.16627 93.8555 9.33682C92.4094 10.5752 91.0879 11.2197 89.8392 11.2956C88.6355 11.3688 87.478 11.9097 86.5608 12.827C84.6505 14.7385 84.546 18.9575 86.3464 21.4826L87.5496 23.1707L86.2138 25.14C84.7847 27.2469 84.433 30.3395 85.5412 31.0486C85.9061 31.2822 86.6069 32.3455 87.0987 33.4114C88.2626 35.9322 90.7192 37.753 94.8077 39.1252C100.51 41.0383 104.989 40.3296 109.092 36.8638C110.009 36.0888 110.987 35.4545 111.263 35.4545C111.54 35.4545 113.242 37.46 115.044 39.9113C116.847 42.3621 118.698 44.6803 119.158 45.0619C119.911 45.6872 119.897 45.7934 119.013 46.1416C118.474 46.3534 112.175 46.544 105.015 46.5647C90.8381 46.605 88.2949 46.2589 83.6505 43.6574C79.9758 41.5983 76.0942 37.4111 74.1213 33.3774C72.497 30.0555 72.4116 29.5761 72.4116 23.7763C72.4116 18.0089 72.5055 17.4738 74.1097 14.084C77.1945 7.56864 82.6336 2.99876 89.4058 1.23377C93.6178 0.136022 115.652 0.0808153 119.695 1.15786C128.081 3.39211 134.5 9.6861 136.593 17.7265C137.224 20.154 137.254 20.8849 136.731 21.2167C136.271 21.5092 136.373 21.6392 137.066 21.6451C137.932 21.652 138.018 21.3749 137.724 19.535C136.445 11.5313 130.743 4.63848 122.543 1.18228C120.425 0.289961 118.505 0.160969 105.567 0.0420645C92.5266 -0.0773713 90.6556 0.0133998 87.9347 0.90094ZM26.0676 5.77498C21.6572 7.12328 17.1252 11.4548 15.678 15.7051C13.9264 20.8488 15.0791 26.8514 18.5835 30.8353C24.7892 37.8894 35.6721 37.9059 41.8608 30.8703C44.6761 27.6705 45.8262 24.1076 45.5026 19.5913C45.0962 13.9285 41.8963 9.22535 36.7554 6.73472C34.069 5.43366 28.7466 4.95539 26.0676 5.77498ZM27.5854 6.21716C18.9214 7.98162 13.5869 16.7806 16.1799 25.0301C18.7676 33.2611 27.5302 37.4849 35.653 34.4157C41.5908 32.1724 45.5238 25.8577 44.9472 19.4942C44.1652 10.8667 35.8769 4.5286 27.5854 6.21716ZM97.7344 7.73585C96.4899 8.25978 94.848 9.31187 94.0863 10.0747C92.7691 11.3927 92.7431 11.5217 93.5637 12.6938C95.2348 15.0809 94.0443 19.25 91.0678 21.437L89.9177 22.2821L91.1378 21.9232C93.4534 21.2427 97.1074 21.5607 99.1376 22.6197C102.019 24.1219 102.791 23.3326 100.529 21.1976C98.4628 19.2468 97.2915 16.0937 97.8326 13.9359C98.0315 13.1423 98.8803 11.8068 99.7179 10.9686C101.729 8.95622 104.819 8.84368 106.579 10.7191C108.014 12.2479 108.594 15.7147 107.695 17.3953L107.051 18.5987L108.415 17.6044C109.315 16.9473 109.783 16.0974 109.795 15.0979C109.805 14.1169 110.37 13.0637 111.401 12.0998L112.99 10.614L110.297 8.88509C108.026 7.42638 107.009 7.12699 103.801 6.96987C101.004 6.83292 99.398 7.03569 97.7344 7.73585ZM100.912 11.0386C98.6309 12.4305 97.8766 14.4073 98.6442 16.9844C99.3052 19.2059 101.595 22.1839 102.641 22.1839C103.779 22.1839 106.542 18.6358 107.143 16.4037C107.806 13.9385 107.248 12.0615 105.483 10.8247C103.898 9.71371 103.016 9.75511 100.912 11.0386ZM88.5055 12.2049C85.4764 13.2373 84.6977 18.338 87.1024 21.3972C88.4641 23.1293 89.1177 22.6478 89.1395 19.8965C89.149 18.673 89.5861 16.4281 90.1113 14.9078C91.1558 11.8821 90.8688 11.3996 88.5055 12.2049ZM114.585 12.0393C114.585 13.111 116.547 14.8606 117.53 14.6658C118.49 14.4757 118.461 14.3568 117.129 13.0139C115.698 11.5711 114.585 11.1448 114.585 12.0393ZM236.702 12.2373C235.952 13.1418 233.643 25.4633 232.452 34.9237C231.579 41.8494 231.441 42.3812 231.074 40.2319C230.567 37.262 228.008 26.6826 226.797 22.5469C225.915 19.5382 224.824 18.3582 223.838 19.3455C222.148 21.0362 220.893 49.7603 221.918 63.2814L222.358 69.0791L219.324 66.305C214.892 62.2516 211.99 60.9341 207.495 60.9341C204.031 60.9341 203.177 60.562 203.177 59.0513C203.177 58.9393 205.598 58.78 208.558 58.6967C215.731 58.495 215.907 58.2248 212.814 52.1734C207.696 42.1594 201.316 35.5278 196.34 35.0495C192.559 34.6859 189.315 36.2826 187.265 39.5159C185.041 43.0262 184.616 44.9404 184.613 51.4743C184.609 58.5178 184.82 58.8108 189.896 58.8108C192.763 58.8108 193.584 58.9918 193.849 59.683C194.033 60.1628 194.112 60.6263 194.026 60.7133C193.939 60.7998 191.959 61.1104 189.626 61.4034C187.293 61.6959 185.02 62.0754 184.575 62.2458C183.443 62.6805 181.129 66.3969 179.711 70.0564L178.514 73.1431H174.365C169.169 73.1431 167.933 73.7122 168.372 75.9045C168.618 77.1376 168.387 77.868 167.367 79.0809C165.923 80.7992 165.626 83.6381 166.552 86.8719C167.034 88.553 166.998 88.631 165.889 88.2982C158.869 86.194 149.393 88.7802 144.224 94.2111C141.983 96.5647 134.069 108.319 124.811 123.041L118.301 133.392L120.114 133.923C121.11 134.215 122.069 134.598 122.246 134.775C122.421 134.951 121.617 137.131 120.457 139.619C118.618 143.566 117.907 144.495 114.876 146.908C112.966 148.429 111.402 149.862 111.402 150.094C111.402 151.194 113.808 151.893 126.709 154.539C134.349 156.106 140.732 157.52 140.892 157.68C141.052 157.841 140.901 159.408 140.556 161.162C139.989 164.045 139.577 164.719 136.275 168.149C134.266 170.236 132.622 172.288 132.622 172.707C132.622 173.345 130.809 173.469 121.482 173.469C110.922 173.469 110.341 173.417 110.341 172.469C110.341 171.918 109.685 171.041 108.883 170.52C108.081 169.999 106.188 168.663 104.676 167.55L101.93 165.529L106.054 156.361C110.429 146.638 115.333 134.595 117.245 128.88C118.744 124.401 118.574 118.606 116.84 115.062C115.175 111.657 111.726 108.273 108.267 106.649C105.326 105.27 105.18 105.256 90.7134 105.09L76.125 104.921L73.9351 102.424C72.7214 101.04 70.5655 99.3733 69.0976 98.6859L66.4505 97.4449L67.7523 95.1145C68.4685 93.8326 69.1199 92.7837 69.2005 92.7837C69.2812 92.7837 71.3495 93.719 73.7972 94.8618C79.4241 97.4894 83.8399 98.4125 86.8716 97.5956C92.4741 96.0859 94.4783 92.1254 97.4846 76.6206L98.4055 71.8702L101.944 71.221C107.687 70.1668 109.019 69.0175 109.402 64.7831C109.641 62.1513 108.949 60.381 108.038 61.2924C107.846 61.4846 107.689 61.363 107.689 61.0228C107.689 60.1878 105.84 60.2398 104.082 61.1236C103.294 61.5202 101.894 61.9873 100.972 62.163L99.2946 62.4815L100.569 61.2064C101.805 59.9691 101.852 58.28 100.648 58.28C100.34 58.28 98.2103 59.0295 95.917 59.9452C90.4927 62.111 89.5941 63.2114 82.6394 76.1954C80.1556 80.8316 78.5122 82.3779 78.5122 80.0773C78.5122 79.176 75.6131 76.2893 69.8668 71.4684C68.4441 70.2745 68.3512 69.8971 67.6022 62.2612C66.72 53.2695 65.4335 45.5784 64.3964 43.0952C63.2994 40.4671 60.7743 38.6448 58.1802 38.6087C56.9627 38.5922 55.1309 38.4128 54.1098 38.2106C52.5194 37.8958 52.2371 37.615 52.1406 36.2507C51.992 34.1455 49.3454 31.7387 47.1789 31.7387C43.4523 31.7387 40.3903 35.1907 41.1722 38.511C41.5558 40.1406 43.8809 42.8861 44.8777 42.8861C45.3811 42.8861 45.3684 43.4843 44.8204 45.562C43.7477 49.6302 42.1202 52.3528 38.4009 56.2974C32.9751 62.0531 30.6325 66.6071 30.6903 71.2852C30.7083 72.745 30.1497 75.8503 29.4484 78.186C28.7471 80.5216 27.657 84.4035 27.0257 86.8119L25.8777 91.1912H17.9782C10.7864 91.1912 9.98431 91.2862 9.01829 92.2528C8.43476 92.8368 7.95732 93.6399 7.95732 94.0375C7.95732 95.7834 10.6697 107.876 11.2066 108.523C11.5333 108.917 12.4877 109.239 13.3269 109.239H14.8537L14.8653 117.6C14.8754 124.719 15.0133 126.129 15.7937 127.093C16.8849 128.44 18.6588 129.415 19.9909 129.399C20.5209 129.393 19.9814 128.945 18.792 128.405C15.6955 126.998 15.3253 125.705 15.5009 116.921L15.6494 109.505L20.5564 109.424L25.4634 109.343V111.084C25.4634 112.042 25.0777 113.749 24.6067 114.877C23.5903 117.312 23.8804 121.899 25.1764 123.878C25.9886 125.118 25.9722 125.164 24.7186 125.164C23.1637 125.164 21.2195 127.416 21.2195 129.217C21.2195 129.907 21.697 130.95 22.2805 131.534C23.3006 132.555 24.0486 132.596 41.8263 132.596C59.0603 132.596 60.3706 132.53 61.1891 131.625C61.6719 131.091 62.0671 130.374 62.0671 130.032C62.0671 129.588 64.1232 129.411 69.2854 129.411C74.8322 129.411 76.4491 129.564 76.2677 130.074C76.1383 130.439 74.0481 136.423 71.6233 143.372C69.1984 150.321 67.0409 155.816 66.8293 155.581C66.6171 155.347 64.9614 150.677 63.1503 145.203C61.3387 139.729 59.6719 135.25 59.4454 135.25C59.2189 135.25 60.7308 140.264 62.805 146.392L66.5762 157.535L64.3216 164.057C61.9265 170.986 61.6894 172.348 62.7037 173.363C63.1944 173.854 86.0096 174 162.17 174H261V147.99V121.979H255.165C250.398 121.979 249.329 121.837 249.329 121.202C249.329 120.367 252.001 109.22 257.532 86.9828C259.439 79.3145 261 72.9441 261 72.8262C261 72.7084 259.064 72.6123 256.697 72.6123H252.394L252.702 70.8871C253.531 66.2339 254.209 49.781 253.888 42.0898C253.278 27.4836 252.308 19.6221 251.057 19.1412C249.467 18.5307 249.228 19.2643 244.115 40.4973C243.607 42.6074 243.603 42.61 243.549 40.8912C243.462 38.1352 241.402 24.0423 240.237 18.2281C238.971 11.9055 238.142 10.5015 236.702 12.2373ZM111.219 13.0691C110.011 14.4046 110.044 16.0427 111.27 15.5682C111.78 15.3707 112.855 15.0761 113.657 14.9142C115.295 14.5835 115.383 14.3531 114.377 13.0271C113.47 11.8312 112.325 11.8466 111.219 13.0691ZM91.002 14.3542C90.3537 15.9106 89.985 18.5275 90.1293 20.551C90.2222 21.8622 92.7982 18.9814 93.4353 16.8528C93.865 15.418 93.8576 14.6106 93.4078 13.7687C92.5542 12.1725 91.8375 12.3471 91.002 14.3542ZM236.898 13.2485C233.84 22.6425 230.481 57.3139 231.537 68.5918L231.914 72.6123H234.521H237.128V44.7439C237.128 26.5191 237.312 16.8756 237.659 16.8756C238.005 16.8756 238.189 26.5191 238.189 44.7439V72.6123H240.803H243.418L243.796 69.5818C244.288 65.642 243.662 48.9481 242.659 39.2515C241.961 32.5047 239.989 19.8843 238.838 14.7921C238.411 12.9029 237.299 12.018 236.898 13.2485ZM22.4131 14.6079C23.5075 14.7226 25.2979 14.7226 26.3918 14.6079C27.4862 14.4938 26.5907 14.3998 24.4024 14.3998C22.2142 14.3998 21.3192 14.4938 22.4131 14.6079ZM34.0838 14.6079C35.1782 14.7226 36.9686 14.7226 38.0625 14.6079C39.1569 14.4938 38.2614 14.3998 36.0732 14.3998C33.8849 14.3998 32.99 14.4938 34.0838 14.6079ZM112.65 15.8102C110.688 16.6028 110.733 17.3459 112.909 20.0802C114.839 22.5055 115.094 22.6611 115.864 21.8903C116.866 20.8876 116.84 21.2634 116.133 17.9633C115.532 15.16 115.03 14.8494 112.65 15.8102ZM116.786 17.4935C117.437 20.3929 117.614 20.5357 118.305 18.716C119.074 16.6914 118.777 15.5809 117.414 15.3856C116.337 15.2311 116.303 15.3436 116.786 17.4935ZM119.005 18.07C118.667 19.0186 118.006 20.9895 117.535 22.4493C114.867 30.7259 114.865 30.7142 118.312 26.3508C121.002 22.9445 121.877 20.1752 120.962 17.9649C120.112 15.91 119.768 15.9286 119.005 18.07ZM108.087 18.8662C106.019 21.0357 104.915 23.3703 105.718 23.8809C106.639 24.4664 108.968 24.4011 111.698 23.7132C114.337 23.0486 114.467 22.8267 113.084 21.3414C112.55 20.7682 111.687 19.6481 111.166 18.8524C109.992 17.0593 109.809 17.0598 108.087 18.8662ZM23.6985 19.397C24.1971 19.7622 24.9913 20.0606 25.4634 20.0606C25.9355 20.0606 26.7297 19.7622 27.2283 19.397C27.9981 18.8338 27.7307 18.7335 25.4634 18.7335C23.1961 18.7335 22.9287 18.8338 23.6985 19.397ZM33.1242 19.2813C34.4377 20.2755 35.6016 20.2692 36.9002 19.2611C37.8779 18.5021 37.863 18.4851 36.6037 18.9246C35.8742 19.1789 34.8 19.1969 34.2165 18.9649C32.5194 18.2897 32.0096 18.4373 33.1242 19.2813ZM224.17 20.1046C222.691 24.3656 221.714 54.7744 222.734 64.7736C223.412 71.4195 223.962 72.6123 226.35 72.6123C227.283 72.6123 228.14 72.4329 228.254 72.2142C228.367 71.9955 227.581 61.0668 226.508 47.9289C225.43 34.723 224.759 23.8162 225.007 23.5375C225.266 23.2476 225.459 23.6994 225.461 24.5991C225.463 25.4601 226.298 36.556 227.317 49.256C228.336 61.956 229.17 72.4069 229.17 72.4796C229.17 72.5523 229.493 72.6123 229.886 72.6123C230.461 72.6123 230.664 69.8186 230.917 58.4127L231.232 44.2131L229.41 35.9853C226.481 22.7449 224.908 17.9781 224.17 20.1046ZM249.979 20.4019C249.283 21.7465 246.979 30.6999 245.421 38.1086C244.194 43.9451 244.151 44.8368 244.424 58.4127C244.641 69.2055 244.868 72.6123 245.368 72.6123C246.246 72.6123 246.35 71.678 248.346 45.6729C249.294 33.3381 250.256 23.2455 250.485 23.2455C250.713 23.2455 250.784 24.2605 250.642 25.5015C250.402 27.5962 248.994 45.2275 247.727 61.9958C247.43 65.9372 247.086 69.9385 246.965 70.8871L246.744 72.6123H249.318H251.891L252.334 68.4984C252.578 66.236 252.773 56.7406 252.767 47.3981C252.754 26.8116 251.74 16.995 249.979 20.4019ZM145.221 20.9842C147.045 21.0882 150.029 21.0882 151.852 20.9842C153.676 20.8807 152.184 20.7958 148.537 20.7958C144.889 20.7958 143.398 20.8807 145.221 20.9842ZM159.82 21.4901C160.336 21.6249 161.052 21.6159 161.411 21.4704C161.77 21.325 161.348 21.2151 160.473 21.2257C159.597 21.2363 159.303 21.3552 159.82 21.4901ZM104.329 22.0071C104.135 22.2014 103.976 22.6075 103.976 22.9095C103.976 23.2418 104.223 23.2105 104.603 22.8299C104.949 22.4843 105.108 22.0782 104.957 21.9275C104.806 21.7767 104.524 21.8123 104.329 22.0071ZM132.091 22.7694C130.257 23.8284 130.583 23.7721 134.213 22.401C135.37 21.9641 135.67 21.6992 135.009 21.6987C134.426 21.6982 133.113 22.1801 132.091 22.7694ZM91.0322 22.8755C90.1341 23.5322 90.1331 23.6049 91.0121 24.3353C92.1399 25.2717 97.9233 25.3561 99.4665 24.4585C100.459 23.8814 100.4 23.788 98.5551 23.0125C96.1557 22.0044 92.3181 21.9344 91.0322 22.8755ZM115.479 23.1128C115.352 23.3315 115.44 23.9887 115.676 24.5726C116.048 25.4994 116.107 25.449 116.14 24.1745C116.176 22.7343 115.928 22.3357 115.479 23.1128ZM168.236 24.6527C169.83 25.7186 172.059 27.8685 173.19 29.4302C175.254 32.2791 176.061 33.0748 175.13 31.3406C173.462 28.2347 167.531 22.7147 165.862 22.7147C165.574 22.7147 166.642 23.5868 168.236 24.6527ZM0 57.4838V91.722L3.31555 91.6217L6.6311 91.5214L3.58079 91.3297L0.530488 91.1381V57.4758V23.8135L5.96799 23.6415L11.4055 23.4695L5.70274 23.3575L0 23.2455V57.4838ZM102.09 23.8225C101.544 24.7079 102.773 25.7229 103.505 24.9903C104.117 24.3778 103.734 23.2455 102.915 23.2455C102.657 23.2455 102.287 23.5051 102.09 23.8225ZM110.711 24.5036L108.163 25.1161L109.734 26.6216C110.601 27.4534 111.46 28.9583 111.652 29.9849C111.983 31.7509 112.049 31.7987 112.979 30.9558C114.334 29.729 115.23 27.3647 115.024 25.5631C114.822 23.8066 114.224 23.6596 110.711 24.5036ZM128.841 24.7053C128.181 25.5472 128.2 25.5658 129.041 24.9059C129.925 24.2121 130.206 23.7763 129.769 23.7763C129.659 23.7763 129.241 24.1941 128.841 24.7053ZM88.3384 24.8189C88.1453 25.131 87.7819 25.2589 87.5305 25.1034C87.279 24.9479 86.9008 25.1002 86.6897 25.4421C86.4382 25.8492 86.5364 25.9209 86.9751 25.6496C87.4737 25.3412 87.5517 25.5567 87.2801 26.4968C87.0796 27.1901 86.792 28.1992 86.6403 28.7385C86.1937 30.3294 87.9867 34.2177 89.9707 35.9604C90.9829 36.85 92.0221 37.5778 92.2799 37.5778C92.5378 37.5778 93.1542 37.7333 93.6497 37.9239C94.4205 38.2196 94.465 38.1102 93.9579 37.1622C93.2391 35.8181 93.1972 32.828 93.882 31.744C94.2412 31.175 94.0295 30.5794 93.1266 29.6207C92.437 28.8882 91.4211 27.4682 90.8694 26.466C89.7861 24.4983 88.8944 23.9175 88.3384 24.8189ZM175.326 24.8114C174.719 25.0572 175.854 25.1246 177.979 24.9691C180.021 24.8199 181.792 24.6097 181.913 24.5025C182.355 24.1124 176.358 24.3937 175.326 24.8114ZM98.6707 25.4463C97.9413 25.7436 95.9716 25.8927 94.2942 25.777C92.6168 25.6613 91.2439 25.76 91.2439 25.9968C91.2439 26.2335 92.0609 27.3318 93.0587 28.4375C94.6926 30.2471 95.0894 30.4271 97.0374 30.2413C98.2278 30.1277 99.2012 29.7837 99.2012 29.4769C99.2012 29.1706 99.7879 28.1498 100.505 27.2097C102.254 24.9139 101.576 24.2615 98.6707 25.4463ZM104.506 26.6072C104.506 28.2347 108.008 31.7387 109.634 31.7387C111.585 31.7387 111.343 28.8893 109.224 26.9087C107.101 24.9245 104.506 24.7584 104.506 26.6072ZM125.262 27.7459C124.058 29.0527 123.073 30.2869 123.073 30.4881C123.073 30.6893 123.152 30.7546 123.248 30.633C123.344 30.5115 124.449 29.2768 125.703 27.8902C126.957 26.5037 127.863 25.3688 127.718 25.3688C127.572 25.3688 126.467 26.4384 125.262 27.7459ZM187.069 28.1233C188.276 29.4429 189.432 31.0529 189.638 31.7016C189.843 32.3497 190.138 32.7537 190.293 32.5992C190.806 32.0848 187.86 27.6583 186.356 26.6831C185.161 25.9092 185.299 26.1874 187.069 28.1233ZM25.8613 26.8254C28.2681 26.9236 32.2075 26.9236 34.6143 26.8254C37.0211 26.7272 35.052 26.6465 30.2378 26.6465C25.4236 26.6465 23.4545 26.7272 25.8613 26.8254ZM85.7396 27.2474C85.5576 27.7214 85.4292 28.5081 85.4542 28.9954C85.4791 29.4822 85.7098 29.1764 85.9671 28.3149C86.4674 26.6396 86.2902 25.8105 85.7396 27.2474ZM100.85 27.8042C99.4383 29.6011 99.4484 29.9467 100.925 30.3416C102.317 30.7137 103.57 29.393 103.333 27.8032C103.098 26.2309 102.087 26.2314 100.85 27.8042ZM26.7896 29.0846C26.5827 29.4195 27.8554 29.6154 30.2378 29.6154C32.6202 29.6154 33.8929 29.4195 33.686 29.0846C33.5056 28.7926 31.9539 28.5538 30.2378 28.5538C28.5217 28.5538 26.97 28.7926 26.7896 29.0846ZM103.896 28.9806C103.852 29.3298 103.793 29.8665 103.763 30.1733C103.734 30.4807 105.143 31.3157 106.893 32.0291C110.295 33.4156 112.393 33.7835 109.28 32.4479C108.259 32.0094 106.648 30.9069 105.7 29.9981C104.751 29.0894 103.94 28.6313 103.896 28.9806ZM96.9641 31.3326C97.8591 31.7642 98.336 31.7552 98.7943 31.2965C99.2659 30.8246 98.9784 30.6856 97.5832 30.7132C95.8644 30.7466 95.8268 30.7843 96.9641 31.3326ZM99.7317 31.2079C99.7317 31.4999 100.104 31.7387 100.559 31.7387C101.013 31.7387 101.238 31.4999 101.058 31.2079C100.878 30.9159 100.506 30.6771 100.231 30.6771C99.9561 30.6771 99.7317 30.9159 99.7317 31.2079ZM94.4141 32.2929C93.6677 33.6884 93.7748 35.2724 94.7419 37.1436C95.5817 38.7679 95.6119 38.7775 98.8299 38.4409C102.288 38.0794 103.696 37.3665 102.01 36.8309C101.453 36.6542 100.502 35.6419 99.8961 34.5813C98.4856 32.1114 95.2369 30.7551 94.4141 32.2929ZM102.099 31.7706C101.93 32.045 101.328 32.2696 100.761 32.2696C99.528 32.2696 99.5089 32.4219 100.503 34.3445C100.926 35.1647 101.981 36.1297 102.848 36.4886C104.254 37.0714 104.685 36.9865 106.891 35.6928C108.92 34.5038 109.235 34.1243 108.657 33.5685C107.636 32.5849 102.471 31.1691 102.099 31.7706ZM121.988 32.3152C121.662 32.9241 121.495 33.5223 121.618 33.6444C121.74 33.7665 122.112 33.2686 122.445 32.5371C123.176 30.9319 122.82 30.7588 121.988 32.3152ZM175.608 33.0658C175.608 33.3577 175.839 33.9549 176.122 34.3929C176.405 34.8308 176.636 34.9502 176.636 34.6583C176.636 34.3663 176.405 33.7691 176.122 33.3312C175.839 32.8933 175.608 32.7738 175.608 33.0658ZM120.686 35.9853C120.484 36.9031 120.43 37.7641 120.566 37.8995C120.701 38.0348 120.964 37.3825 121.15 36.4498C121.593 34.2373 121.164 33.8084 120.686 35.9853ZM108.087 35.7581C106.104 36.8347 106.224 37.2832 108.22 36.2507C109.095 35.7979 109.811 35.3138 109.811 35.1753C109.811 34.834 109.754 34.8531 108.087 35.7581ZM176.694 36.2948C176.72 36.9132 176.846 37.039 177.015 36.616C177.168 36.2327 177.149 35.7746 176.973 35.5984C176.797 35.4221 176.672 35.7353 176.694 36.2948ZM103.789 37.9409C103.589 38.141 102.058 38.6182 100.385 39.0015L97.3445 39.699L100.583 39.492C102.365 39.3778 104.513 38.9102 105.358 38.4526L106.893 37.6203L105.523 37.599C104.769 37.5874 103.989 37.7413 103.789 37.9409ZM177.287 41.0319C177.23 43.0772 176.948 45.5694 176.661 46.57C176.375 47.5706 176.24 48.4889 176.361 48.611C176.937 49.1864 177.741 44.0666 177.576 40.8827L177.391 37.3124L177.287 41.0319ZM189.649 44.952C187.545 45.2721 187.529 45.2923 187.695 47.3981C188.285 54.9119 191.329 57.8697 195.518 54.9979C198.713 52.8072 198.748 52.1782 195.834 49.3377C194.403 47.9432 193.067 46.2796 192.864 45.6405C192.661 45.0014 192.333 44.5125 192.134 44.5539C191.934 44.5953 190.816 44.7742 189.649 44.952ZM58.2624 45.6002C56.8853 46.1167 55.7012 48.3047 55.7012 50.3319C55.7012 50.8362 55.3362 51.5523 54.8901 51.9228C54.2185 52.4807 53.8694 52.4001 52.8663 51.4573C51.1496 49.8436 49.4441 49.9657 49.0001 51.7344C48.7253 52.8311 48.9158 53.3704 49.8446 54.1231C50.5046 54.6577 51.347 55.0951 51.7162 55.0951C52.0859 55.0951 52.7162 55.4942 53.1167 55.9821C53.5167 56.4699 54.906 57.5448 56.2031 58.3708C59.0767 60.2005 62.092 60.3784 63.6585 58.8108C65.0187 57.4498 65.059 52.4085 63.7429 48.1943C62.9217 45.5646 62.675 45.2647 61.2554 45.1718C60.3891 45.115 59.0422 45.3077 58.2624 45.6002ZM82.3237 47.8514C80.7471 52.2265 77.3791 54.5356 72.4795 54.6003C70.1114 54.6316 69.9156 54.7118 70.9676 55.2187C72.6285 56.0197 77.1218 54.9416 79.4135 53.1926C81.3174 51.7392 83.45 48.0967 83.1853 46.7499C83.0935 46.2823 82.7147 46.7669 82.3237 47.8514ZM174.903 50.9881C174.42 51.9329 173.396 53.5424 172.627 54.5642L171.228 56.4221L172.918 54.5642C174.668 52.6405 176.357 49.8447 175.991 49.4789C175.876 49.3637 175.386 50.0427 174.903 50.9881ZM51.1921 53.1857C52.0674 53.5689 52.896 53.7844 53.0334 53.6639C53.4551 53.2945 51.7857 52.4563 50.6616 52.4728C49.8574 52.485 49.9857 52.6575 51.1921 53.1857ZM197.128 54.6014C196.285 55.4443 195.171 56.2692 194.652 56.4338C193.77 56.7141 193.762 56.8903 194.522 59.1251C195.274 61.3322 195.266 61.5955 194.418 62.533C192.817 64.3027 193.704 65.1287 196.621 64.5836C199.783 63.9922 203.388 61.7192 202.955 60.5891C202.785 60.1475 202.646 59.5662 202.646 59.2981C202.646 59.0301 202.075 58.8108 201.377 58.8108C199.945 58.8108 199.463 57.9403 199.463 55.3483C199.463 52.9473 198.946 52.7817 197.128 54.6014ZM126.256 56.1434C126.256 56.4221 126.734 56.9057 127.317 57.2184C127.901 57.531 128.378 57.712 128.378 57.6202C128.378 57.5289 127.901 57.0453 127.317 56.5453C126.734 56.0452 126.256 55.8642 126.256 56.1434ZM51.7809 60.4649C51.1772 62.809 50.4436 64.3978 49.7348 64.8946C48.6579 65.6489 48.7301 65.7753 52.5353 69.8042C54.6832 72.0783 56.611 74.0116 56.819 74.1002C57.0269 74.1888 57.3415 72.3973 57.5187 70.119C57.6953 67.8407 58.0842 64.7858 58.3818 63.3292C58.7589 61.4873 58.7536 60.6252 58.3643 60.4951C58.0566 60.3927 56.6609 59.5216 55.263 58.5592L52.722 56.8102L51.7809 60.4649ZM169.46 57.513C168.471 58.306 168.477 58.3156 169.623 57.7598C170.28 57.4413 170.817 57.0697 170.817 56.9344C170.817 56.5283 170.542 56.6456 169.46 57.513ZM128.909 58.2317C128.909 58.6335 133.709 61.0849 133.975 60.8189C134.065 60.7287 132.962 60.027 131.524 59.2599C130.085 58.4923 128.909 58.03 128.909 58.2317ZM166.308 59.3778C165.433 59.9388 164.989 60.3991 165.321 60.4007C165.653 60.4022 166.489 59.9335 167.177 59.3592C168.755 58.0443 168.375 58.0528 166.308 59.3778ZM98.1402 59.641C97.4108 60.0439 95.6867 60.8418 94.3091 61.414C91.3092 62.6593 89.9235 64.4806 84.4531 74.3693C82.3227 78.2205 80.379 81.5721 80.1334 81.8184C79.8877 82.0642 79.213 82.0116 78.6337 81.7016C77.6958 81.1989 77.1918 81.6661 74.0221 85.9742C72.0652 88.6342 70.3384 91.1381 70.1846 91.5384C69.9926 92.0395 71.3697 92.9525 74.6067 94.4706C80.1933 97.0908 85.5666 97.7994 88.4673 96.2983C91.968 94.4866 94.1807 89.9613 95.7928 81.3157C96.2772 78.7184 96.9435 75.4013 97.274 73.9447L97.875 71.2953L101.588 70.6265C105.233 69.9704 107.327 68.9119 108.425 67.1703C109.363 65.6824 108.369 65.5167 105.617 66.701C104.169 67.3247 102.311 67.8189 101.49 67.7993C100.283 67.7701 100.454 67.6369 102.384 67.1023C105.434 66.2583 109.06 64.3734 108.408 63.9705C108.133 63.8001 106.9 64.1116 105.669 64.6632C104.438 65.2147 102.539 65.8029 101.448 65.9701C99.8574 66.2137 100.147 66.0003 102.915 64.8883C104.811 64.1265 106.9 63.3749 107.556 63.2183C108.213 63.0617 108.75 62.7225 108.75 62.4645C108.75 61.7691 108.327 61.87 105.355 63.273C102.45 64.6435 99.1041 65.5831 99.9969 64.7768C100.289 64.5135 101.519 64.0161 102.731 63.6721C104.989 63.0298 107.994 60.984 106.726 60.9517C106.342 60.9421 105.507 61.216 104.869 61.5605C103.303 62.4072 98.1402 63.5899 98.1402 63.102C98.1402 62.8876 98.737 62.1508 99.4665 61.465C101.809 59.2636 100.952 58.0863 98.1402 59.641ZM162.329 60.9341C161.236 61.2845 161.19 61.3673 162.064 61.4039C162.648 61.4283 163.483 61.2171 163.921 60.9341C164.85 60.3332 164.205 60.3332 162.329 60.9341ZM135.175 61.2967C135.558 61.4501 136.015 61.431 136.192 61.2548C136.368 61.0785 136.055 60.9532 135.496 60.9761C134.878 61.0015 134.752 61.1273 135.175 61.2967ZM143.099 61.8615C146.382 61.9544 151.753 61.9544 155.035 61.8615C158.318 61.7681 155.632 61.6922 149.067 61.6922C142.502 61.6922 139.817 61.7681 143.099 61.8615ZM202.505 62.791C201.105 64.0235 196.57 65.7116 194.658 65.7116C193.198 65.7116 192.393 64.3749 193.08 63.0914C193.625 62.0712 193.522 61.9958 191.591 61.9958C190.45 61.9958 188.785 62.1423 187.89 62.3212C186.356 62.6285 186.245 62.8175 185.948 65.6388C185.775 67.2849 185.507 69.646 185.354 70.8871L185.075 73.1431L188.954 73.1511C191.087 73.1559 193.138 73.3533 193.511 73.5901C193.884 73.8274 194.992 76.2707 195.973 79.0204L197.757 84.0197L200.837 85.2136C204.543 86.65 212.765 90.8196 215.328 92.5612C216.344 93.2519 217.239 93.753 217.318 93.6739C217.397 93.5953 216.521 90.6487 215.373 87.1267C212.326 77.7751 210.652 70.8085 210.261 65.8443L209.917 61.465L206.944 61.4819C204.566 61.4952 203.68 61.7564 202.505 62.791ZM210.851 62.5547C209.881 64.1265 212.952 78.0989 216.67 89.0275C217.706 92.0708 218.462 94.6527 218.35 94.7642C218.238 94.8762 215.196 93.3145 211.59 91.2947C204.838 87.512 199.163 84.9455 198.661 85.4477C198.504 85.6048 199.444 88.8126 200.75 92.5761C203.33 100.008 203.19 99.8198 210.073 105.018C216.432 109.819 219.519 111.053 222.908 110.147C224.3 109.775 224.342 109.831 224.5 112.289L224.662 114.813L225.68 112.245C226.408 110.408 226.527 109.573 226.097 109.306C225.702 109.062 226.045 108.415 227.091 107.428C230.325 104.373 231.031 102.204 230.994 95.4378C230.965 90.2331 230.741 88.6682 229.473 84.8213C226.059 74.4681 220.219 66.3411 213.86 63.0951C211.369 61.8233 211.31 61.8126 210.851 62.5547ZM183.678 63.721C182.875 64.7242 180.884 68.7994 180.072 71.101L179.352 73.1431H181.981C184.488 73.1431 184.611 73.0757 184.637 71.6833C184.652 70.8807 184.843 68.6115 185.062 66.6405C185.354 64.0172 185.293 63.0574 184.835 63.0574C184.491 63.0574 183.97 63.3563 183.678 63.721ZM225.546 73.5789C225.643 73.8183 226.558 75.8487 227.579 78.0904L229.436 82.1661L242.963 82.2898L256.491 82.4135L243.063 82.5647C230.616 82.7054 229.655 82.7834 229.905 83.6359C231.016 87.417 231.787 91.4816 231.992 94.6416C232.19 97.7018 232.559 98.894 234.083 101.4C235.927 104.432 237.659 109.963 237.659 112.82C237.659 114.241 236.569 119.02 235.783 121.05C235.452 121.903 235.944 121.979 241.81 121.979C247.432 121.979 248.231 121.868 248.478 121.05C248.633 120.539 249.352 117.613 250.075 114.548C250.798 111.482 253.314 101.155 255.664 91.5989C258.015 82.0424 259.939 73.9808 259.939 73.6835C259.939 73.3279 254.025 73.1431 242.654 73.1431C233.147 73.1431 225.448 73.339 225.546 73.5789ZM168.491 78.9838C167.066 80.5625 166.573 81.5806 166.573 82.9448C166.573 85.3712 168.439 90.2745 170.126 92.2804C171.278 93.6505 173.889 95.4378 174.738 95.4378C174.881 95.4378 174.446 93.8151 173.772 91.8314L172.546 88.2249L173.801 86.6558C175.204 84.9014 175.452 83.2288 174.31 83.2288C173.897 83.2288 172.794 84.1954 171.858 85.3765C170.924 86.5576 170.035 87.4006 169.883 87.2487C169.425 86.7901 172.429 83.197 173.789 82.5764C174.489 82.2574 175.061 81.5572 175.061 81.02C175.061 79.2481 173.112 79.9701 170.891 82.5653C169.704 83.9523 168.724 84.8255 168.714 84.506C168.704 84.1864 169.905 82.6624 171.384 81.1188C173.106 79.3225 173.89 78.1286 173.563 77.8017C172.823 77.0617 171.235 78.0591 169.007 80.6639C167.96 81.8879 167.104 82.6115 167.104 82.2723C167.104 81.9325 168.137 80.5757 169.4 79.2572C170.663 77.9381 171.407 76.8589 171.053 76.8589C170.699 76.8589 169.547 77.8149 168.491 78.9838ZM27.5206 91.0033C26.2814 91.222 26.0459 91.6376 25.3669 94.8029C24.1727 100.367 25.2539 103.909 28.8076 106.078C30.4182 107.06 31.6383 107.112 53.1814 107.114C65.6542 107.115 75.8597 106.985 75.8597 106.824C75.8597 104.996 72.1453 101.144 68.1677 98.8446L65.5152 97.3121L52.9734 97.137L40.4311 96.9618L41.1213 94.3432C41.629 92.4185 41.6534 91.627 41.2136 91.3552C40.516 90.9237 29.5651 90.6423 27.5206 91.0033ZM9.54082 92.7916C8.87453 93.4584 8.56472 94.3087 8.7191 95.0476C8.8549 95.7 9.48406 98.7422 10.1169 101.808C10.7498 104.873 11.5073 107.68 11.7996 108.045C12.5667 109.002 25.3833 108.937 26.657 107.97C27.8543 107.06 27.8283 106.439 26.5435 105.276C25.9706 104.756 25.0926 103.26 24.5924 101.95C23.8025 99.8803 23.7685 99.1562 24.334 96.4182C24.6916 94.6851 25.1175 92.9201 25.2804 92.4949C25.5313 91.8409 24.4268 91.722 18.0933 91.722C11.2983 91.722 10.5116 91.8202 9.54082 92.7916ZM231.131 102.335C230.608 103.808 229.416 105.884 228.483 106.949C227.55 108.013 226.856 109.301 226.943 109.813C227.252 111.64 224.365 117.088 221.242 120.569C219.564 122.438 216.032 124.256 212.195 125.224C207.553 126.395 193.754 126.128 185.671 124.71C182.024 124.071 178.425 123.413 177.673 123.25C176.33 122.957 176.298 123.023 175.798 126.961L175.29 130.971L177.803 132.053C183.851 134.656 189.058 135.485 199.463 135.5C209.471 135.516 211.437 135.259 218.561 133.013C226.055 130.65 232.476 125.829 235.025 120.652C236.156 118.357 236.33 117.281 236.314 112.69C236.299 108.094 236.111 106.989 234.915 104.462C234.155 102.856 233.207 101.118 232.808 100.6C232.149 99.7428 231.995 99.902 231.131 102.335ZM65.7805 100.959C65.7805 101.076 66.6181 101.667 67.6414 102.271C68.6653 102.875 69.7777 103.973 70.114 104.712C70.4504 105.45 70.9342 106.054 71.1893 106.054C71.6944 106.054 70.7411 104.032 69.8079 103.124C68.2526 101.611 65.7805 100.282 65.7805 100.959ZM63.4543 102.997C64.2962 103.652 65.3948 104.667 65.8956 105.253C66.3964 105.84 66.8139 106.046 66.824 105.711C66.8452 104.981 63.336 101.808 62.5074 101.808C62.1864 101.808 62.6124 102.343 63.4543 102.997ZM97.6708 105.968C96.5604 106.125 96.7313 106.334 99.0633 107.666C105.987 111.623 109.163 120.703 106.391 128.614C104.285 134.623 99.4728 146.38 95.6979 154.742C93.4863 159.641 91.5579 164.154 91.4126 164.771C91.011 166.474 94.1934 168.306 96.4368 167.662C100.933 166.372 102.323 164.092 110.215 145.07C117.045 128.608 117.432 127.403 117.455 122.51C117.473 118.83 117.249 117.534 116.242 115.484C114.745 112.439 111.425 109.016 108.512 107.515C106.433 106.443 100.397 105.582 97.6708 105.968ZM76.6555 106.585C76.8359 106.877 77.5127 107.116 78.1605 107.116C78.8077 107.116 79.8676 107.488 80.5158 107.942C82.0829 109.04 82.1609 112.138 80.6426 112.951C79.9291 113.332 70.9596 113.467 52.801 113.368L26.0125 113.22L25.3398 114.813C24.9701 115.689 24.6799 117.636 24.6947 119.139C24.7292 122.61 26.6772 125.741 29.7911 127.33C31.9348 128.424 32.5704 128.454 52.8732 128.379C64.3561 128.338 74.567 128.457 75.5643 128.644L77.3775 128.984L73.6487 139.681C62.3328 172.139 62.431 171.833 63.1243 172.669C63.6914 173.352 66.3317 173.469 81.2293 173.469C95.4491 173.469 98.6707 173.338 98.6707 172.758C98.6707 172.367 96.8103 170.707 94.5372 169.069L90.4031 166.091L87.6127 167.473C85.1926 168.671 84.2091 168.844 80.2082 168.772C77.6708 168.727 73.5654 168.236 71.0854 167.683C65.6808 166.477 67.1412 166.237 73.028 167.365C79.3058 168.566 84.059 168.409 87.3194 166.89C89.7686 165.748 90.1888 165.282 91.7399 161.984C94.743 155.601 101.169 140.518 103.809 133.657C106.186 127.482 106.362 126.691 106.354 122.244C106.346 118.33 106.13 117.062 105.157 115.226C103.278 111.681 100.98 109.416 97.492 107.672C94.2698 106.061 94.2226 106.054 85.2924 106.054C79.4512 106.054 76.4417 106.239 76.6555 106.585ZM26.6305 108.815C25.656 109.79 25.8729 111.791 27.0199 112.406C27.6867 112.762 36.993 112.955 53.5793 112.955C70.1655 112.955 79.4718 112.762 80.1387 112.406C81.2856 111.791 81.5025 109.79 80.528 108.815C79.6108 107.897 27.5477 107.897 26.6305 108.815ZM233.471 124.254C232.359 125.754 231.051 126.91 226.387 130.513C225.154 131.465 223.931 128.411 236.432 155.611C239.767 162.868 242.372 168.929 242.222 169.08C242.071 169.231 241.375 168.071 240.675 166.502C239.471 163.8 224.833 131.914 224.698 131.697C224.663 131.641 222.253 132.407 219.343 133.399C212.22 135.827 208 136.464 199.198 136.438C193.826 136.422 190.306 136.112 186.476 135.319C183.563 134.716 181.04 134.394 180.869 134.603C180.697 134.813 178.464 139.593 175.906 145.227C171.483 154.969 171.192 155.84 169.974 163.01C168.726 170.351 167.947 172.938 166.984 172.938C166.725 172.938 166.885 172.408 167.339 171.758C167.793 171.11 168.165 169.952 168.165 169.185V167.792L161.793 167.471C154.152 167.087 143.175 165.596 142.436 164.842C142.077 164.475 142.334 164.409 143.232 164.635C145.103 165.107 156.808 166.473 163.195 166.967L168.57 167.381L170.16 157.818C171.035 152.558 171.554 148.13 171.315 147.977C171.075 147.824 165.235 146.171 158.336 144.303C148.408 141.615 145.703 141.053 145.362 141.607C145.124 141.991 143.955 147.337 142.764 153.486L140.598 164.666L136.81 168.482C134.716 170.592 133.182 172.556 133.379 172.875C133.631 173.284 149.37 173.455 187.52 173.462L241.305 173.471L241.471 171.745C241.618 170.218 241.821 170.019 243.229 170.019C244.637 170.019 244.839 170.218 244.986 171.744L245.153 173.469H252.811H260.47V147.99V122.51L247.605 122.525L234.741 122.539L233.471 124.254ZM23.4741 126.242C22.5112 126.63 22.2805 127.139 22.2805 128.876C22.2805 130.699 22.489 131.109 23.6412 131.547C24.4279 131.847 32.3136 132.058 42.3409 132.048C55.9177 132.035 59.8815 131.878 60.6082 131.326C62.9079 129.579 61.7668 129.411 47.6113 129.407C39.8847 129.406 32.8282 129.166 31.7592 128.869C30.6999 128.575 28.9588 127.74 27.8899 127.014C25.795 125.592 25.3048 125.506 23.4741 126.242ZM80.2522 129.27C81.6468 129.38 83.7953 129.379 85.0266 129.268C86.2578 129.156 85.1168 129.067 82.4909 129.068C79.8649 129.07 78.8575 129.161 80.2522 129.27ZM174.842 133.525C174.117 137.007 171.902 151.375 172.064 151.538C172.162 151.636 174.068 147.713 176.3 142.819L180.357 133.923L178.372 133.033C175.615 131.797 175.188 131.857 174.842 133.525ZM23.5102 136.376C23.1908 137.362 20.167 146.231 16.7915 156.085C13.416 165.938 10.8288 174 11.0426 174C11.2564 174 12.4182 171.074 13.624 167.497C14.8298 163.921 17.7528 155.275 20.1187 148.283C22.4853 141.292 24.3467 135.348 24.2566 135.077C24.1658 134.805 23.83 135.389 23.5102 136.376ZM121.086 139.924C119.193 143.957 118.451 144.945 115.678 147.125C113.91 148.516 112.464 149.935 112.465 150.281C112.466 150.995 140.585 157.053 141.257 156.484C141.483 156.293 141.805 154.96 141.973 153.522L142.277 150.909L131.855 148.032C126.123 146.45 121.285 144.916 121.105 144.624C120.922 144.328 121.109 144.22 121.527 144.38C124.233 145.413 142.271 150.189 142.522 149.938C142.865 149.595 144.784 140.558 144.514 140.558C144.421 140.558 143.079 140.213 141.534 139.792C130.373 136.75 124.574 135.25 123.976 135.25C123.594 135.25 122.293 137.353 121.086 139.924ZM98.327 167.583L95.5955 168.97L97.6639 170.458C98.8012 171.276 99.7317 172.289 99.7317 172.707C99.7317 173.316 100.747 173.469 104.771 173.469C108.459 173.469 109.806 173.291 109.793 172.806C109.778 172.213 101.75 165.922 101.258 166.117C101.148 166.16 99.8288 166.82 98.327 167.583Z" fill="#4F967D"/>
</svg>