
<svg width="151" height="72" viewBox="0 0 151 72" fill="none" xmlns="http://www.w3.org/2000/svg">
    <path fill-rule="evenodd" clip-rule="evenodd" d="M19.2722 14.0328C19.126 14.0683 18.3488 14.2212 17.5449 14.3726C15.5163 14.7548 13.2807 15.5319 11.7652 16.3815C11.3632 16.6068 10.9447 16.834 10.8351 16.8862C10.6144 16.9915 9.25475 17.864 9.04296 18.0363C5.71687 20.7419 3.56627 23.3419 2.23015 26.2729C1.41514 28.0608 1.28174 28.396 1.12495 29.0498C1.03673 29.4178 0.921134 29.7797 0.868253 29.8541C0.765413 29.9985 0.624573 30.6131 0.24776 32.5607C-0.111516 34.4175 -0.07511 37.8988 0.324823 39.9362C0.664832 41.6686 1.27483 43.8039 1.68459 44.6962C2.21341 45.8479 2.66476 46.7714 2.73133 46.838C2.76853 46.8752 3.03493 47.3015 3.32352 47.7853C3.92953 48.8017 3.82337 48.6525 4.84101 49.9201C5.80377 51.1191 6.42599 51.8452 6.49083 51.8452C6.51753 51.8452 6.51302 51.3731 6.48086 50.7964C6.30681 47.672 7.84568 43.9366 10.3688 41.3589C10.8811 40.8356 11.4197 40.3156 11.5659 40.2036C12.235 39.69 13.7421 38.7208 14.2232 38.4945C14.5155 38.357 14.7846 38.2077 14.8211 38.1627C14.8577 38.1176 15.1267 38.0031 15.419 37.9082C15.7113 37.8132 16.0103 37.6909 16.0834 37.6362C16.2855 37.4852 18.3715 36.8353 19.552 36.5557C22.7674 35.7942 23.8438 35.3242 24.9807 34.185C25.3424 33.8226 25.9988 32.8143 26.2817 32.1862L26.5114 31.6764L26.1471 31.7651C25.9467 31.8139 25.6828 31.9058 25.5606 31.9696C25.1662 32.1749 23.8021 32.1355 23.3667 31.9061C22.9266 31.6744 22.7932 31.4442 22.7932 30.9167C22.7932 30.4001 22.9637 30.1718 24.0822 29.1906C24.652 28.6905 25.238 28.1742 25.3841 28.0432C25.5303 27.9122 26.0684 27.4793 26.5799 27.081C27.6636 26.2374 28.2299 25.7884 28.502 25.5564C28.6092 25.4652 28.9082 25.2433 29.1663 25.0631C32.0601 23.0456 32.1827 22.9857 32.7491 23.3079C33.1849 23.5558 33.2295 24.0225 33.0315 26.2678C32.7567 29.3867 31.9513 33.3962 31.2646 35.0643C30.6008 36.6766 29.3864 38.162 27.8738 39.212C27.1561 39.7101 24.4167 41.1541 24.1892 41.1541C24.1316 41.1541 23.8389 41.2706 23.5386 41.413C23.2382 41.5554 22.574 41.8673 22.0624 42.1064C19.1585 43.4632 17.4516 45.4955 16.5238 48.701C16.2599 49.6132 16.2208 50.0516 16.2186 52.1158C16.2165 54.1888 16.2552 54.6275 16.5281 55.6344C16.6997 56.2671 16.9538 56.9747 17.0929 57.2068C17.3295 57.6017 17.4252 57.6411 18.5748 57.8156C21.1921 58.2134 25.4515 57.9418 27.4725 57.2483C27.8905 57.105 28.299 56.9877 28.3804 56.9877C28.592 56.9877 30.2407 56.2596 31.5657 55.5811C34.3362 54.1624 37.0396 51.7665 39.0128 48.9812C39.6894 48.0262 40.9039 45.8718 41.0603 45.3493C41.116 45.1633 41.2103 44.9484 41.27 44.8718C41.4612 44.6264 42.1663 42.477 42.445 41.2894C42.985 38.9901 43.1512 35.6858 42.8537 33.1661C42.7061 31.9153 42.1557 29.5645 41.8517 28.8863C41.7464 28.6518 41.6605 28.3927 41.6605 28.3104C41.6605 28.1311 40.1779 25.0446 39.7693 24.3732C38.3679 22.0705 35.6475 19.1935 33.4747 17.7162C31.8309 16.5987 30.8896 16.0892 29.3702 15.4948C28.7125 15.2375 28.027 14.9633 27.8468 14.8855C27.6667 14.8077 26.7997 14.5906 25.9202 14.4031C24.6401 14.1303 23.8442 14.0528 21.9296 14.0152C20.6142 13.9894 19.4184 13.9972 19.2722 14.0328Z" fill="#3DE4B9"/>
    <path d="M57.656 35V12.6H61.944L75.16 28.728H73.08V12.6H78.2V35H73.944L60.696 18.872H62.776V35H57.656ZM91.6918 35.256C89.7291 35.256 88.0011 34.872 86.5078 34.104C85.0358 33.336 83.8944 32.2907 83.0838 30.968C82.2731 29.624 81.8678 28.0987 81.8678 26.392C81.8678 24.664 82.2624 23.1387 83.0518 21.816C83.8624 20.472 84.9611 19.4267 86.3478 18.68C87.7344 17.912 89.3024 17.528 91.0518 17.528C92.7371 17.528 94.2518 17.8907 95.5958 18.616C96.9611 19.32 98.0384 20.344 98.8278 21.688C99.6171 23.0107 100.012 24.6 100.012 26.456C100.012 26.648 100.001 26.872 99.9798 27.128C99.9584 27.3627 99.9371 27.5867 99.9158 27.8H85.9318V24.888H97.2917L95.3718 25.752C95.3718 24.856 95.1904 24.0773 94.8278 23.416C94.4651 22.7547 93.9638 22.2427 93.3238 21.88C92.6838 21.496 91.9371 21.304 91.0838 21.304C90.2304 21.304 89.4731 21.496 88.8118 21.88C88.1718 22.2427 87.6704 22.7653 87.3078 23.448C86.9451 24.1093 86.7638 24.8987 86.7638 25.816V26.584C86.7638 27.5227 86.9664 28.3547 87.3718 29.08C87.7984 29.784 88.3851 30.328 89.1318 30.712C89.8998 31.0747 90.7958 31.256 91.8198 31.256C92.7371 31.256 93.5371 31.1173 94.2198 30.84C94.9238 30.5627 95.5638 30.1467 96.1398 29.592L98.7958 32.472C98.0064 33.368 97.0144 34.0613 95.8198 34.552C94.6251 35.0213 93.2491 35.256 91.6918 35.256ZM106.959 35L100.751 17.784H105.455L110.607 32.6H108.367L113.743 17.784H117.967L123.183 32.6H120.943L126.255 17.784H130.671L124.431 35H119.599L115.023 22.296H116.495L111.759 35H106.959ZM57.656 60V37.6H67.352C69.3573 37.6 71.0853 37.9307 72.536 38.592C73.9867 39.232 75.1067 40.16 75.896 41.376C76.6853 42.592 77.08 44.0427 77.08 45.728C77.08 47.392 76.6853 48.832 75.896 50.048C75.1067 51.264 73.9867 52.2027 72.536 52.864C71.0853 53.504 69.3573 53.824 67.352 53.824H60.536L62.84 51.488V60H57.656ZM62.84 52.064L60.536 49.6H67.064C68.664 49.6 69.8587 49.2587 70.648 48.576C71.4373 47.8933 71.832 46.944 71.832 45.728C71.832 44.4907 71.4373 43.5307 70.648 42.848C69.8587 42.1653 68.664 41.824 67.064 41.824H60.536L62.84 39.36V52.064ZM90.8328 60V56.64L90.5128 55.904V49.888C90.5128 48.8213 90.1821 47.9893 89.5208 47.392C88.8808 46.7947 87.8888 46.496 86.5448 46.496C85.6274 46.496 84.7208 46.6453 83.8248 46.944C82.9501 47.2213 82.2034 47.6053 81.5848 48.096L79.7928 44.608C80.7314 43.9467 81.8621 43.4347 83.1848 43.072C84.5074 42.7093 85.8514 42.528 87.2168 42.528C89.8408 42.528 91.8781 43.1467 93.3288 44.384C94.7794 45.6213 95.5048 47.552 95.5048 50.176V60H90.8328ZM85.5848 60.256C84.2408 60.256 83.0888 60.032 82.1288 59.584C81.1688 59.1147 80.4328 58.4853 79.9208 57.696C79.4088 56.9067 79.1528 56.0213 79.1528 55.04C79.1528 54.016 79.3981 53.12 79.8888 52.352C80.4008 51.584 81.2008 50.9867 82.2888 50.56C83.3768 50.112 84.7954 49.888 86.5448 49.888H91.1208V52.8H87.0888C85.9154 52.8 85.1048 52.992 84.6568 53.376C84.2301 53.76 84.0168 54.24 84.0168 54.816C84.0168 55.456 84.2621 55.968 84.7528 56.352C85.2648 56.7147 85.9581 56.896 86.8328 56.896C87.6648 56.896 88.4114 56.704 89.0728 56.32C89.7341 55.9147 90.2141 55.328 90.5128 54.56L91.2808 56.864C90.9181 57.9733 90.2568 58.816 89.2968 59.392C88.3368 59.968 87.0994 60.256 85.5848 60.256ZM107.063 60.256C105.036 60.256 103.457 59.744 102.327 58.72C101.196 57.6747 100.631 56.128 100.631 54.08V38.976H105.623V54.016C105.623 54.7413 105.815 55.3067 106.199 55.712C106.583 56.096 107.105 56.288 107.767 56.288C108.556 56.288 109.228 56.0747 109.783 55.648L111.127 59.168C110.615 59.5307 109.996 59.808 109.271 60C108.567 60.1707 107.831 60.256 107.063 60.256ZM97.9748 47.008V43.168H109.911V47.008H97.9748ZM124.393 42.528C125.758 42.528 126.974 42.8053 128.041 43.36C129.129 43.8933 129.982 44.7253 130.601 45.856C131.22 46.9653 131.529 48.3947 131.529 50.144V60H126.537V50.912C126.537 49.5253 126.228 48.5013 125.609 47.84C125.012 47.1787 124.158 46.848 123.049 46.848C122.26 46.848 121.545 47.0187 120.905 47.36C120.286 47.68 119.796 48.1813 119.433 48.864C119.092 49.5467 118.921 50.4213 118.921 51.488V60H113.929V36.256H118.921V47.552L117.801 46.112C118.42 44.96 119.305 44.0747 120.457 43.456C121.609 42.8373 122.921 42.528 124.393 42.528Z" fill="#040709"/>
</svg>