
<svg width="400" height="400" viewBox="0 0 187 179" fill="none" xmlns="http://www.w3.org/2000/svg">
    <path d="M62.3976 0.557461C55.3311 1.60053 51.2468 5.80442 53.3538 9.75544C53.9697 10.9566 53.8076 11.4623 52.4462 12.1261C49.8529 13.3904 48.8481 15.4133 49.7557 17.5311C50.0474 18.1632 50.4688 18.9218 50.6957 19.2063C50.9226 19.4592 51.2144 20.2494 51.3116 20.9131C51.5709 22.4619 52.9 23.8527 54.5207 24.2952L55.7849 24.6113L54.6504 25.9072C54.0021 26.6342 53.3862 27.6773 53.289 28.2778C53.1593 28.9416 52.7379 29.5738 52.1544 29.9847C50.2095 31.3438 49.6585 33.6828 51.0847 34.5995C52.511 35.4845 52.6406 36.4011 51.5385 37.5074C50.9875 38.0132 50.5661 38.6453 50.5661 38.8982C50.5661 39.1194 50.2095 39.5304 49.7557 39.7516C49.3343 39.9729 48.8481 40.5418 48.6536 41.0159C48.4915 41.5217 48.0701 41.9958 47.746 42.0906C47.0652 42.3119 44.5044 45.125 44.9907 45.125C45.1527 45.125 45.4769 44.9037 45.7038 44.6509C45.9307 44.398 46.3845 44.1768 46.7411 44.1768C47.0652 44.1768 47.6811 43.8291 48.1025 43.3865C48.7832 42.6596 48.9777 42.628 49.7233 42.944C50.3392 43.2285 50.6957 43.2285 50.9226 43.0073C51.3765 42.5647 51.0199 41.9642 50.3068 41.9642C50.015 41.9642 49.5612 41.8377 49.3019 41.6797C48.9453 41.4585 49.0101 41.2372 49.6909 40.5734C50.404 39.878 50.6633 39.7832 51.2144 40.0677C52.1544 40.5734 53.9697 40.3522 53.9697 39.7516C53.9697 39.4355 53.5483 39.2459 52.6082 39.1827C51.0199 39.0562 50.7606 38.4557 51.9923 37.6971C52.5434 37.3494 53.1269 37.2546 53.9373 37.4126C54.8773 37.5706 55.1042 37.5074 55.1042 37.1281C55.1042 36.812 54.7476 36.5908 54.0669 36.5276C53.4186 36.4644 52.9648 36.2431 52.9 35.927C52.8351 35.5477 53.1269 35.4213 54.1966 35.3897C55.7525 35.3265 56.8222 34.6627 57.6326 33.3351C58.1512 32.4817 58.1512 32.4185 57.6002 32.0392C57.0815 31.6599 57.1464 31.5967 58.0864 31.407C58.6375 31.3122 59.3506 30.9961 59.6423 30.7433C60.1286 30.3008 60.3555 30.3324 61.6197 30.8697C63.5646 31.6915 65.9633 31.9444 67.9082 31.5335C68.8158 31.3438 70.7607 31.0594 72.2518 30.8697C77.9893 30.1743 84.5048 27.4876 87.5194 24.5797C88.9781 23.1573 89.7236 22.7148 91.5713 22.1142C96.2715 20.6919 98.5406 18.4477 98.7999 15.0972C98.9944 12.7266 98.1192 10.8933 95.9474 8.99685C94.359 7.60609 91.6685 6.56301 89.6588 6.56301C88.6863 6.56301 87.3249 5.80442 86.4821 4.79296C85.2828 3.33898 82.8192 2.67521 77.7948 2.42234C74.0023 2.26431 72.6732 2.04305 70.8256 1.41088C68.2972 0.525852 64.8612 0.178165 62.3976 0.557461ZM68.362 1.18962C69.3021 1.34767 70.6311 1.75857 71.3766 2.07465L72.7057 2.612L71.4415 3.46542C70.3718 4.16079 69.691 4.31884 66.9682 4.47688C62.1059 4.79296 58.5402 6.15211 55.558 8.83881C54.1966 10.0715 54.1642 10.0715 53.8076 9.37614C52.8676 7.70091 53.5807 5.48834 55.6228 3.71828C58.4106 1.34767 63.6294 0.304596 68.362 1.18962ZM81.9764 3.27576C82.0412 3.33898 81.6523 3.4022 81.1012 3.4022C80.5501 3.4022 79.4156 3.62346 78.5728 3.90793C77.3086 4.31884 77.0169 4.31884 76.79 3.97115C76.3686 3.33898 76.4334 3.14933 77.2438 2.99129C77.9893 2.83325 81.7495 3.08612 81.9764 3.27576ZM76.4982 4.60331C76.4982 4.98261 76.3686 4.98261 75.8499 4.50848C75.4934 4.1924 75.2016 3.71828 75.2016 3.46542C75.2016 3.08612 75.3313 3.08612 75.8499 3.56024C76.2065 3.87632 76.4982 4.35044 76.4982 4.60331ZM74.8451 4.16079L75.5906 4.91939L74.9099 5.29869C74.3912 5.55156 73.8726 5.55156 72.8353 5.26708C70.858 4.69814 70.7607 4.47688 72.3491 3.93954C74.1643 3.30737 74.0023 3.27576 74.8451 4.16079ZM81.6198 4.25562C81.2957 4.31884 80.7122 4.31884 80.3232 4.25562C79.9018 4.1924 80.1612 4.12919 80.8743 4.12919C81.5874 4.09758 81.9116 4.16079 81.6198 4.25562ZM83.662 5.17226C84.3427 5.58316 83.9213 7.22679 82.8192 8.4279C81.5874 9.75544 79.4804 10.8933 79.1239 10.4508C78.9942 10.3244 78.3459 9.43936 77.6976 8.52272C76.5307 6.91071 76.4982 6.84749 76.9845 5.93085C77.341 5.23547 77.73 4.98261 78.6701 4.88778C80.0315 4.72974 83.2406 4.91939 83.662 5.17226ZM67.6813 5.20387C67.1951 5.26708 66.3199 5.26708 65.7364 5.20387C65.1529 5.14065 65.5419 5.07743 66.6116 5.07743C67.6813 5.07743 68.1675 5.14065 67.6813 5.20387ZM71.9277 5.48834C73.0622 5.70959 73.2243 6.1205 72.2843 6.40498C71.6035 6.62623 70.3393 6.08889 70.3393 5.61477C70.3393 5.23547 70.5663 5.23547 71.9277 5.48834ZM85.769 5.96246C86.3849 6.62623 86.3525 6.62623 85.6393 7.19518C85.2503 7.51126 84.7317 7.82734 84.5048 7.92217C84.3103 7.98539 84.2131 8.17503 84.3427 8.30147C84.5048 8.45951 84.991 8.39629 85.4448 8.17503C85.9311 7.98539 86.3849 7.85895 86.4497 7.95378C86.7739 8.23825 85.8662 10.2928 85.1207 10.9566C84.5048 11.5255 84.2455 11.5887 83.4999 11.3042C83.0137 11.1462 82.0737 10.9882 81.4253 10.9882H80.2584L81.7171 10.1031C83.4027 9.06006 84.2455 7.92217 84.5048 6.37337C84.7317 5.10904 84.9262 5.04582 85.769 5.96246ZM66.0605 7.10036C64.8288 8.39629 63.8563 10.0083 63.8563 10.8301C63.8563 11.241 63.6294 11.3042 62.6569 11.083C61.9762 10.9566 60.161 10.8301 58.605 10.8301C57.0167 10.8617 55.7525 10.8301 55.7525 10.7669C55.7525 10.7037 56.3036 10.1031 56.9519 9.37614C58.9292 7.2584 62.0086 5.99407 65.315 5.96246L67.2275 5.93085L66.0605 7.10036ZM68.8807 6.18372C69.0752 6.31015 69.2048 7.16357 69.2048 8.11182V9.85027L67.6489 10.2296C66.8061 10.4508 65.7364 10.8617 65.2826 11.1462C64.8288 11.4307 64.375 11.5887 64.2777 11.4939C63.8563 11.1146 65.0557 8.87041 66.4171 7.47965C67.973 5.93085 68.2972 5.7412 68.8807 6.18372ZM74.2292 6.53141C74.2292 6.97392 73.3215 7.57448 72.9326 7.35322C72.4463 7.03714 72.5436 6.62623 73.1919 6.46819C74.0995 6.21533 74.2292 6.24694 74.2292 6.53141ZM71.1173 6.84749C71.2146 7.00553 71.0849 7.29 70.8256 7.51126C70.08 8.11182 70.2421 8.74398 71.247 8.99685L72.1222 9.21811L71.1497 9.40775C69.9828 9.62901 69.691 9.31293 69.691 7.73252C69.691 6.78428 69.8207 6.56301 70.3069 6.56301C70.6635 6.56301 71.0201 6.68945 71.1173 6.84749ZM72.7705 8.17503C72.6408 8.33308 72.2194 8.45951 71.7656 8.45951C71.0525 8.45951 71.0201 8.39629 71.3118 7.82734C71.6035 7.32161 71.798 7.2584 72.3167 7.51126C72.6732 7.70091 72.8677 7.98539 72.7705 8.17503ZM89.9505 8.39629C91.0851 10.0715 91.2796 11.3042 90.5988 12.695C90.1126 13.7065 88.1353 15.4133 87.487 15.4133C87.3573 15.4133 87.1628 15.034 87.0332 14.5283C86.9359 14.0542 86.4497 13.2956 85.9959 12.8214L85.1855 11.968L85.8662 11.0514C86.2552 10.514 86.6442 9.62901 86.7414 9.02845C87.0332 7.32161 87.1304 7.19518 88.1677 7.19518C88.9133 7.19518 89.3022 7.44805 89.9505 8.39629ZM92.7383 7.6693C95.8825 8.71237 98.2812 11.6835 98.3137 14.5599C98.3785 17.5943 96.5957 19.6488 92.4789 21.2924C89.8857 22.3355 89.1402 22.3039 89.1402 21.1344C89.1402 20.3126 88.265 18.8902 87.2925 18.1C86.5794 17.4994 87.1953 16.2351 88.6863 15.3501C91.4416 13.7065 92.252 10.7669 90.5988 8.36469L89.7561 7.19518H90.534C90.9554 7.19518 91.9603 7.41644 92.7383 7.6693ZM77.4059 9.06006C77.9569 9.78705 78.4431 10.5456 78.4431 10.7037C78.4431 11.3675 76.952 10.9249 75.5906 9.81866L74.1643 8.68076L74.9099 8.11182C75.9148 7.35322 76.1093 7.44805 77.4059 9.06006ZM55.8498 9.88188C55.2663 10.6721 54.5531 10.9882 54.9745 10.2612C55.4284 9.50258 55.8498 9.09167 56.1415 9.09167C56.3036 9.09167 56.1739 9.43936 55.8498 9.88188ZM71.9601 9.94509C71.9601 10.1031 71.8304 10.3876 71.6684 10.6405C71.409 11.0514 71.2794 11.0514 70.8256 10.6721C70.3069 10.2612 70.3069 10.198 70.8904 10.0083C71.6684 9.69223 71.9601 9.69223 71.9601 9.94509ZM74.7802 10.5773C75.3313 11.3042 75.0071 11.6203 73.7429 11.6203C72.5112 11.6203 72.1546 11.2726 72.4463 10.3244C72.6408 9.78705 72.8353 9.72383 73.516 9.88188C74.0023 9.9767 74.5533 10.2928 74.7802 10.5773ZM70.5014 10.9882C71.1173 11.5571 71.1497 11.7784 70.858 13.4852L70.5338 15.3817L68.2648 16.2035C67.0006 16.646 65.7364 17.0885 65.4447 17.1834C65.1853 17.2782 64.6019 17.0885 64.1805 16.7409L63.4025 16.1087L64.6667 15.4765C65.3798 15.1288 66.5468 14.5599 67.2599 14.2122C67.973 13.8645 68.9131 13.2323 69.3345 12.7582C70.0152 12.0628 70.08 11.8416 69.7559 11.1462C69.3021 10.198 69.5614 10.1347 70.5014 10.9882ZM69.0427 11.4939C69.6586 12.1893 68.751 12.9479 67.2275 13.0111C65.6391 13.0427 65.4771 12.4421 66.8385 11.6203C68.1351 10.8617 68.5241 10.8301 69.0427 11.4939ZM62.6569 11.6519L63.8563 11.968L63.1432 13.2007C62.5273 14.2438 62.4625 14.5599 62.819 15.0972C63.5646 16.2667 63.3053 16.6776 61.8141 16.6776C61.0686 16.6776 59.8692 16.9621 59.1561 17.3098C58.443 17.6575 57.6326 17.8787 57.3084 17.7523C56.725 17.5943 55.6553 16.0455 55.2987 14.9076C54.9745 13.8961 57.1139 12.6318 59.3506 12.5054C61.7493 12.3789 61.2955 11.7784 58.7671 11.7784C57.6974 11.7784 56.6601 11.6835 56.5305 11.5255C56.1739 11.1778 61.2631 11.2726 62.6569 11.6519ZM83.5647 11.8732C83.8241 12.0628 83.5972 12.2841 82.8192 12.6634C81.3281 13.3588 81.1984 13.3588 80.5826 12.4105L80.0639 11.6203H81.5874C82.4626 11.6203 83.3378 11.7468 83.5647 11.8732ZM54.7476 12.6318C54.7152 13.6432 54.4559 14.1806 53.1917 15.603L52.122 16.8357L52.3165 15.7926C52.6406 14.0858 53.7104 11.9364 54.2614 11.9364C54.5856 11.9364 54.7801 12.2209 54.7476 12.6318ZM56.5629 12.2209C56.6601 12.3789 56.4008 12.7582 56.0118 13.0111C55.2339 13.5484 54.8773 13.264 55.2339 12.4105C55.4284 11.8732 56.2712 11.7784 56.5629 12.2209ZM76.952 12.1893C77.0169 12.3157 76.8224 12.7898 76.4658 13.2007L75.8499 13.9909V13.1691C75.8499 12.0944 76.4982 11.4939 76.952 12.1893ZM71.8629 13.6432C71.5387 14.2438 71.5063 14.2754 71.3766 13.7381C71.3118 13.422 71.3442 12.9163 71.4739 12.6318C71.636 12.1893 71.7332 12.1893 71.9601 12.5686C72.1222 12.8214 72.0898 13.264 71.8629 13.6432ZM75.2016 13.2007C75.2016 14.2438 74.7154 14.4018 73.7105 13.6749C73.0946 13.2007 73.0946 13.2007 73.7105 12.7266C74.7154 11.9996 75.2016 12.1577 75.2016 13.2007ZM79.0266 13.1059C78.897 14.2438 77.7948 14.5283 77.7948 13.422C77.7948 12.5686 78.0217 12.2525 78.6701 12.2525C78.9942 12.2525 79.0914 12.537 79.0266 13.1059ZM80.1936 12.7582C80.5177 13.5484 80.4205 13.8329 79.9018 13.8329C79.6101 13.8329 79.4156 13.5484 79.4156 13.0427C79.4156 12.1577 79.9018 11.968 80.1936 12.7582ZM85.7042 13.2323C86.158 13.7697 86.5794 14.4018 86.6118 14.6547C86.6118 14.9076 86.6442 15.2553 86.6766 15.4765C86.709 15.6662 85.9959 16.0771 85.0883 16.3616C83.5323 16.8989 83.4027 16.8673 82.2681 16.2983C80.4205 15.4133 80.5826 14.4335 82.7544 13.264C83.662 12.7582 84.5372 12.3157 84.6669 12.2841C84.7641 12.2841 85.2503 12.695 85.7042 13.2323ZM52.1544 14.4967C51.8303 15.5397 51.5385 17.0253 51.5385 17.7207L51.5061 19.0482L50.8902 18.2897C49.5288 16.7092 49.6585 14.9392 51.2792 13.4536C51.7979 12.9795 52.3813 12.5686 52.511 12.5686C52.6406 12.5686 52.4786 13.422 52.1544 14.4967ZM63.7266 14.0542C63.4673 14.5283 63.2404 14.7495 63.208 14.5283C63.208 13.9909 63.8563 12.7898 64.0832 12.9795C64.148 13.0743 64.0184 13.5484 63.7266 14.0542ZM73.8726 14.2438C75.1692 14.7811 74.8451 15.0972 73.0298 15.0972C71.6035 15.0972 71.3442 14.876 72.0249 14.2122C72.5112 13.7381 72.6408 13.7381 73.8726 14.2438ZM80.7122 14.2754C80.7122 14.8444 80.226 15.4133 79.7073 15.4133C78.9942 15.4133 78.9294 15.0656 79.4804 14.5283C79.837 14.1806 80.7122 13.9909 80.7122 14.2754ZM56.4332 17.8155L57.1139 18.5425L56.4008 19.6804C55.6553 20.8815 55.6553 20.8815 53.2565 20.0597C51.6682 19.5224 51.7979 18.2897 53.7428 15.761L54.5531 14.6863L55.169 15.919C55.4932 16.5828 56.0767 17.4362 56.4332 17.8155ZM73.4836 16.0771C72.3167 16.6776 71.636 16.646 71.636 16.0455C71.636 15.761 72.576 15.5081 73.905 15.4765C74.6182 15.4449 74.5533 15.5081 73.4836 16.0771ZM77.3734 16.2667C76.8872 16.7725 76.8224 16.7725 76.8224 16.2983C76.8224 16.0139 77.0169 15.7294 77.2438 15.6346C77.8921 15.4133 77.9569 15.6978 77.3734 16.2667ZM75.8499 15.9823C75.8499 16.1403 75.5582 16.5196 75.2016 16.8357C74.4885 17.4678 74.3588 17.2782 74.8775 16.3299C75.234 15.7294 75.8499 15.5081 75.8499 15.9823ZM79.1563 16.7725C78.7997 17.1201 78.3459 17.2782 78.119 17.1518C77.6004 16.8357 78.6701 15.7294 79.3184 15.9506C79.7073 16.1087 79.6749 16.2351 79.1563 16.7725ZM81.9764 16.646C82.2681 16.8357 82.3006 16.9937 82.0412 17.1201C81.6198 17.373 81.0364 17.0885 81.0364 16.646C81.0364 16.2983 81.3929 16.2983 81.9764 16.646ZM86.6442 16.9937C86.4497 17.6575 86.1255 17.7207 85.0883 17.3414C84.5048 17.1201 84.5372 17.0569 85.4124 16.7409C86.7739 16.2667 86.8387 16.2983 86.6442 16.9937ZM63.3377 17.4994C63.6618 18.2897 63.5646 18.5741 63.0459 18.3529C62.7542 18.258 61.879 18.4161 61.101 18.7006C59.9989 19.1115 59.5127 19.1747 59.0264 18.8902C58.6375 18.7006 58.3457 18.4793 58.3457 18.3845C58.3457 18.2897 58.9616 17.942 59.7396 17.6259C61.4252 16.8673 63.0783 16.8041 63.3377 17.4994ZM69.8531 18.0052C69.529 19.4275 69.3345 19.5856 67.7137 19.4592C66.4495 19.3643 66.2874 19.2695 66.2874 18.5741C66.2874 17.942 66.5144 17.7207 67.5841 17.4362C69.8207 16.7725 70.1124 16.8357 69.8531 18.0052ZM71.3118 17.6259C70.9228 18.3529 70.3393 18.4793 70.3393 17.8471C70.3393 17.3098 70.6635 16.9937 71.2146 16.9937C71.5711 16.9937 71.5711 17.1518 71.3118 17.6259ZM77.4707 17.5943C77.4707 18.0052 76.2713 18.3529 75.7851 18.0684C75.5258 17.9104 75.5906 17.7523 76.0444 17.5943C76.9196 17.2466 77.4707 17.2466 77.4707 17.5943ZM72.3167 18.258C71.3442 19.0799 70.7283 19.0799 71.4739 18.258C71.798 17.9104 72.2843 17.6259 72.576 17.6259C72.965 17.6575 72.9001 17.7839 72.3167 18.258ZM75.0396 18.2897C75.3637 18.7322 75.1044 18.8902 73.7105 19.2063C72.0898 19.554 72.0249 19.4275 73.3215 18.6057C74.5533 17.8471 74.7478 17.8155 75.0396 18.2897ZM80.8743 18.7954C80.615 19.8385 79.8694 20.6919 78.7673 21.2608C77.9569 21.6717 77.9245 21.6401 77.2762 20.281L76.5955 18.8586L77.4383 18.4161C77.8921 18.1632 78.9294 17.9736 79.7073 17.942C81.0688 17.942 81.1012 17.9736 80.8743 18.7954ZM84.2779 18.5425C84.44 18.8902 84.602 19.3643 84.602 19.5856C84.602 19.9965 82.6247 21.4189 82.0737 21.4189C81.555 21.4189 81.1012 20.0281 81.3929 19.3011C81.8792 17.9736 83.6944 17.4994 84.2779 18.5425ZM85.8338 18.3213C85.6393 18.8902 85.0234 18.9534 84.8289 18.4161C84.6669 18.1 84.8289 17.942 85.2828 17.942C85.6717 17.942 85.8986 18.1 85.8338 18.3213ZM88.4919 21.2608V22.3671H86.9035H85.3152L85.5097 21.008C85.6069 20.281 85.8986 19.3327 86.1904 18.9218L86.6766 18.1948L87.5842 19.1747C88.2001 19.8701 88.4919 20.5022 88.4919 21.2608ZM58.7347 20.2494C58.3457 20.597 57.7947 20.7867 57.2112 20.7235L56.336 20.6287L57.0167 19.7752C57.6326 19.0166 57.8271 18.9534 58.5402 19.2695C59.3182 19.6172 59.3506 19.6488 58.7347 20.2494ZM62.5273 19.3643C62.2355 19.6488 61.7817 19.7752 61.4576 19.6488C61.0038 19.4908 60.9714 19.3643 61.3279 19.1747C61.5548 19.0166 62.0411 18.8902 62.3976 18.8902C62.9487 18.8902 62.9811 18.9534 62.5273 19.3643ZM76.6603 20.1545C77.4707 21.6717 77.3086 21.9562 75.623 22.1775C73.4188 22.4619 70.9877 21.6717 70.9877 20.6603C70.9877 20.3758 74.2292 19.3959 75.7527 19.2379C75.9796 19.2379 76.3686 19.6172 76.6603 20.1545ZM61.2955 20.1545C61.49 20.1545 61.5224 20.281 61.4252 20.4706C61.3279 20.6287 60.7769 20.7867 60.2258 20.7867C59.383 20.7867 59.2858 20.7235 59.6423 20.3126C59.8692 20.0281 60.2906 19.9017 60.5175 19.9965C60.7769 20.0913 61.1334 20.1545 61.2955 20.1545ZM68.8807 20.439C68.9779 20.597 68.9131 20.8183 68.7186 20.9447C68.5565 21.0396 68.3944 21.8298 68.3944 22.7148C68.3944 24.2004 68.362 24.2636 67.5192 24.232C67.0006 24.232 66.3523 24.1056 66.0281 23.9791C65.5095 23.7895 65.5095 23.6947 66.2874 22.9993C67.2275 22.1459 67.2923 21.5453 66.5468 20.7235C66.0605 20.1861 66.093 20.1545 67.3571 20.1545C68.0703 20.1545 68.751 20.281 68.8807 20.439ZM54.1317 20.9131C55.4932 21.2924 55.5904 21.4189 55.7849 22.6516C55.9794 24.2004 55.6228 24.3268 54.1317 23.1257C53.1269 22.3039 51.9599 20.4706 52.4137 20.4706C52.5758 20.4706 53.3214 20.6603 54.1317 20.9131ZM84.9262 21.008C84.9262 21.9878 84.4075 22.4619 83.662 22.2091C82.7544 21.9246 82.7868 21.6717 83.8889 21.0396C84.991 20.3442 84.9262 20.3442 84.9262 21.008ZM66.1254 21.2608C66.644 21.893 66.3199 22.62 65.315 23.0625C64.6343 23.347 64.4074 23.3154 63.8563 22.8412L63.208 22.2723L63.9211 21.5137C64.7315 20.6919 65.5419 20.5654 66.1254 21.2608ZM74.5857 22.5251C75.9796 22.5251 77.1465 22.62 77.1465 22.7148C77.1465 23.4418 75.072 24.0423 71.247 24.4216L69.0427 24.6429V23.0309C69.0427 20.9131 69.7559 20.439 71.0849 21.6717C71.9277 22.4619 72.2194 22.5251 74.5857 22.5251ZM81.0364 20.9131C81.0364 20.9763 81.1336 21.2608 81.2309 21.5137C81.3605 21.8614 80.8743 22.1459 79.448 22.62C77.0169 23.4102 76.6927 22.8412 78.8645 21.6401C80.1287 20.9131 81.0364 20.597 81.0364 20.9131ZM59.6747 22.4303C58.2161 23.7895 57.7622 23.7263 58.1512 22.2091C58.3133 21.6085 58.605 21.4189 59.5775 21.324C60.2258 21.2608 60.8417 21.1976 60.9389 21.166C61.0362 21.1344 60.4527 21.7033 59.6747 22.4303ZM57.4705 22.5884C57.3733 23.2521 57.2112 23.8527 57.1464 23.9159C56.9195 24.2004 56.4008 23.4102 56.2063 22.4303C56.0118 21.5137 56.0767 21.4189 56.8222 21.4189C57.6002 21.4189 57.6326 21.4821 57.4705 22.5884ZM82.884 22.4303C84.1482 22.9677 84.1482 22.9361 83.4351 23.4734C81.4253 25.0222 77.1465 26.4762 74.683 26.4762H73.4188L74.8775 25.6544C75.6879 25.2118 76.4982 24.7061 76.6603 24.4849C76.8548 24.2636 78.0866 23.663 79.4156 23.1257C80.7446 22.5568 81.8792 22.1142 81.9116 22.0826C81.944 22.0826 82.3978 22.2091 82.884 22.4303ZM87.8111 23.5366C86.6118 24.959 85.1531 25.9704 82.495 27.2664C79.2535 28.7836 74.4561 30.2692 72.7381 30.2692C71.7008 30.2692 71.636 30.2059 71.8304 29.4789C71.9601 28.9732 71.8304 28.4043 71.5063 27.8985C71.2146 27.456 71.0849 27.1083 71.2146 27.1083C74.2292 27.0767 77.4059 26.6974 78.9942 26.2233C81.1336 25.5595 83.5647 24.2952 84.2779 23.505C84.5372 23.1573 85.2503 22.9993 86.4497 22.9993C88.1029 22.9993 88.2001 23.0309 87.8111 23.5366ZM63.208 23.663C63.4673 23.663 63.2728 23.8843 62.7218 24.1056C61.6521 24.5797 61.2631 24.4849 61.2631 23.7263C61.2631 23.3786 61.4576 23.2837 62.0086 23.4418C62.3976 23.5366 62.9487 23.6314 63.208 23.663ZM60.8741 24.1688C60.9389 24.4216 60.6796 24.5797 60.161 24.5797C59.3506 24.5797 59.0913 24.2636 59.5451 23.8211C59.8692 23.505 60.712 23.7263 60.8741 24.1688ZM64.9908 24.5481C65.2177 24.959 64.1156 25.5279 63.0783 25.5279C61.9114 25.5279 61.7493 24.9906 62.7866 24.6429C63.9536 24.2004 64.7315 24.2004 64.9908 24.5481ZM75.5258 24.7377C75.3313 24.9906 74.3588 25.4647 73.3864 25.844C71.7656 26.413 71.5387 26.4446 70.6635 26.002C69.0752 25.1802 69.2048 24.8958 71.2146 24.8642C72.2518 24.8325 73.5485 24.7061 74.0671 24.5797C75.7203 24.1688 75.9796 24.2004 75.5258 24.7377ZM69.4966 25.8756L70.469 26.7923H67.7137C64.8288 26.7923 63.5322 26.571 63.5322 26.1285C63.5322 25.9704 63.8239 25.844 64.1805 25.844C64.537 25.844 64.9908 25.5595 65.2177 25.2118C65.8336 24.2636 68.1999 24.6429 69.4966 25.8756ZM57.6002 25.3699C57.9567 25.6228 58.3457 26.2865 58.4106 26.8555C58.5078 27.4244 58.6699 28.1198 58.7995 28.3727C58.9616 28.7836 58.605 28.8468 56.4008 28.8468C53.5483 28.8468 53.3214 28.6255 54.3911 27.0767C54.9097 26.2549 56.3684 24.9274 56.725 24.8958C56.8222 24.8958 57.2112 25.117 57.6002 25.3699ZM61.5224 25.3699C61.8466 25.686 61.4252 25.7492 60.2258 25.5911C59.5451 25.5279 58.994 25.3067 58.994 25.1486C58.994 24.8009 61.1658 24.9906 61.5224 25.3699ZM63.3701 26.729C63.8887 26.9819 65.1853 27.2664 66.2874 27.3612L68.2648 27.4876L68.1351 28.5307C68.0379 29.3209 68.1675 29.6686 68.751 30.0795C69.1724 30.3324 69.3669 30.6801 69.2372 30.8065C69.1076 30.9645 67.6489 31.0594 66.0281 31.0594C63.3377 31.0594 62.8839 30.9645 61.49 30.1743C60.0313 29.3209 58.7023 27.4876 58.6699 26.2865C58.6699 25.8124 62.1707 26.1285 63.3701 26.729ZM70.7283 27.9618C71.9601 29.0364 71.0525 30.6485 69.6262 29.9215C68.3296 29.2577 68.1351 28.6887 68.9131 27.9301C69.5614 27.298 69.9828 27.298 70.7283 27.9618ZM58.5726 29.4789C60.1286 30.1111 59.6099 30.6485 57.2112 30.8381C54.5856 31.0594 52.7379 29.7318 54.9421 29.2261C56.2387 28.9416 57.4057 29.0048 58.5726 29.4789ZM54.0021 30.7433C54.8125 31.4703 54.8125 31.5335 54.1966 31.5335C53.3862 31.5335 51.5385 32.9875 51.5385 33.6196C51.5385 34.2518 50.8902 34.157 50.8578 33.4932C50.7606 32.4185 50.9551 31.976 51.9599 30.9645C52.511 30.4272 52.9972 29.9531 53.0296 29.9531C53.0945 29.9531 53.5159 30.3008 54.0021 30.7433ZM56.7574 32.1656C57.8595 32.7662 57.4705 33.1771 56.0442 32.9558C54.9421 32.7662 54.5207 32.861 53.451 33.588C51.9923 34.5047 51.6034 34.473 52.1544 33.4616C52.9 32.134 55.3311 31.4387 56.7574 32.1656ZM55.8822 33.7461C55.7201 33.9041 55.0718 34.1254 54.4559 34.2518C53.3862 34.4098 53.3538 34.4098 53.9373 33.9357C54.6504 33.3984 56.4332 33.2087 55.8822 33.7461Z" fill="#4F967D"/>
    <path d="M36.4023 39.2779C32.1559 40.4158 26.6453 44.0824 25.2514 46.7375C24.9273 47.4012 24.6355 48.5075 24.6355 49.2029C24.6355 50.9098 25.6404 51.5735 28.0716 51.5103C29.9841 51.4787 34.6194 50.0563 37.3099 48.7604C38.2175 48.2863 39.0279 48.0018 39.0927 48.065C39.3196 48.2863 38.5741 49.9615 38.023 50.5621C37.7313 50.8782 37.1802 51.131 36.8237 51.131C35.9485 51.131 34.6843 51.9844 34.6843 52.585C34.6843 53.1855 35.7215 53.1539 36.8885 52.4902C37.7313 52.016 37.9258 52.016 38.4444 52.3953C39.2224 53.0591 39.8707 54.7027 39.6438 55.4929C39.5141 56.0303 39.3196 56.1567 38.7037 55.9987C38.1851 55.8722 37.7313 56.0303 37.1802 56.5676L36.4023 57.3262L35.1381 56.536C32.7393 55.082 30.5351 54.4815 27.2288 54.4815C23.4362 54.4499 20.2919 55.3349 17.2449 57.3262L15.2027 58.6854L12.5447 58.4957C10.308 58.3693 9.5949 58.4325 8.00655 59.0331C5.89957 59.8233 3.33877 62.0042 2.33389 63.9639C1.32902 65.8604 0 70.6649 0 72.3085C0 75.5957 1.68559 78.6934 4.18156 80.1473C5.38092 80.8427 6.06164 80.9691 7.94172 80.9691C9.88663 80.9691 10.5674 80.8111 12.6419 79.8629C15.5593 78.5037 18.2173 76.1331 19.1898 74.0153C19.5464 73.1935 19.9678 71.297 20.1298 69.8115C20.2919 68.3259 20.5188 66.5242 20.6161 65.7972C20.7457 64.849 20.6161 64.1536 20.1623 63.2369C19.5139 62.0042 17.0828 59.5704 16.1752 59.2859C14.9758 58.875 20.454 55.9038 23.6955 55.2401C25.8025 54.7976 29.9516 54.9556 31.929 55.5878C33.0311 55.9355 33.0959 56.0303 32.48 56.1251C32.0586 56.1883 31.2482 55.9987 30.6324 55.7458C29.1737 55.0504 26.7101 55.3981 25.6728 56.4096C24.5707 57.4843 24.7976 59.9181 26.0942 61.2456L27.0019 62.1623L26.2563 64.2168C25.5432 66.1449 25.5432 66.3029 26.0618 67.0615C26.6453 67.9782 27.8771 68.1362 28.6226 67.4408C29.2385 66.8087 29.5951 63.7111 29.0764 63.395C28.8819 63.2686 28.4605 63.2369 28.2012 63.3318C27.9419 63.4266 27.4881 63.6162 27.2288 63.7111C26.8074 63.8691 26.8074 63.7743 27.2612 63.1421C27.5529 62.6996 28.0716 62.2887 28.3957 62.2255C29.3358 62.0674 29.8868 61.4985 29.7247 60.8663C29.6275 60.5503 29.6923 60.2974 29.8544 60.2974C30.5027 60.2974 31.7669 58.5905 31.7669 57.7371C31.7669 56.9469 31.8966 56.8205 32.7069 56.8205C33.6794 56.8205 35.3326 58.0532 35.3326 58.7802C35.3326 59.0331 35.0408 59.444 34.6843 59.76C34.3277 60.0445 34.036 60.5819 34.036 60.9296C34.036 61.8462 35.1381 61.7198 35.6567 60.7715C36.1754 59.8233 36.6616 59.76 37.3747 60.5503C38.412 61.6565 38.0554 62.7628 36.1429 64.5645C34.7167 65.8604 34.0035 66.2713 32.6097 66.5874C30.6972 66.9983 29.2709 68.1678 29.1088 69.4638C29.0764 69.9063 29.1413 70.9493 29.2709 71.7712C29.5302 73.2251 29.4654 73.4464 28.3957 75.0268C27.5205 76.3227 27.0343 76.7336 26.4508 76.7336C25.997 76.7336 25.219 77.0813 24.7004 77.5238C23.2093 78.725 22.9175 80.6215 23.5334 84.5093C24.1817 88.4603 24.1493 98.9858 23.501 106.761C22.1072 122.724 23.7279 133.755 28.0391 138.117L29.1088 139.191L28.0391 142.953C27.4557 145.039 25.7052 151.234 24.1493 156.702C18.4118 176.932 18.1525 178.006 18.5739 178.259C18.8008 178.386 19.5788 178.512 20.3243 178.512C21.9451 178.512 20.6485 181.009 30.4703 158.725L37.6989 142.226L45.9647 142.289L54.2306 142.321L61.0054 158.125C64.7331 166.817 68.1692 174.845 68.6878 175.983L69.6278 178.038L71.1189 178.133C72.3507 178.228 72.61 178.133 72.61 177.69C72.61 177.248 68.1043 159.674 63.5662 142.479C62.7558 139.349 62.5613 138.18 62.9827 138.717C63.1772 138.97 66.1918 147.41 67.3264 150.855C69.3361 157.082 73.6473 169.314 74.0363 169.915C74.1336 170.073 74.5874 170.136 75.0736 170.041C75.7543 169.915 76.2081 170.199 77.6344 171.558C79.1255 172.981 79.32 173.297 78.9958 173.802C78.7041 174.277 78.7689 174.529 79.2876 175.098C79.6766 175.509 80.26 176.331 80.649 176.963L81.3621 178.101L87.0996 178.038C95.6248 177.943 94.9765 178.038 94.9765 176.932C94.9765 176.394 94.6848 175.699 94.2958 175.32C93.7123 174.751 93.3233 174.656 91.7026 174.782L89.7577 174.909L89.8549 173.486C89.9522 172.096 89.9198 172.032 89.0121 171.938L88.1045 171.811L88.299 170.041C88.7204 166.659 88.8501 166.185 89.4659 166.185C90.3411 166.185 92.7723 165.268 93.3882 164.731C93.9392 164.257 93.9068 164.035 92.8047 161.033C92.1888 159.263 91.4757 157.461 91.2488 157.018C90.6653 155.881 88.7528 150.57 87.359 146.114C83.534 134.071 77.1482 124.557 71.2486 122.091L69.0444 121.175V117.129C69.0444 114.948 68.9147 112.767 68.7202 112.324C68.3312 111.313 67.9098 111.313 62.3668 112.008C59.2226 112.419 58.2825 112.451 57.8935 112.166C57.5046 111.85 56.2728 109.29 55.2355 106.635C55.1058 106.319 57.148 106.224 65.3166 106.161C71.2486 106.129 75.9488 105.971 76.435 105.782L77.3102 105.465L76.5323 104.897L75.7543 104.328L77.0509 104.138C78.5744 103.885 79.4172 103.158 78.8338 102.589C78.542 102.305 77.9261 102.336 76.3378 102.621C73.777 103.126 73.1611 102.905 75.5274 102.336C77.1158 101.957 79.0931 100.724 79.0931 100.092C79.0931 99.618 77.7316 99.776 75.9164 100.44C73.4204 101.388 73.1287 101.198 75.3977 100.124C77.4075 99.1755 78.0882 98.3853 77.5047 97.8163C77.3102 97.6267 76.435 97.8163 75.0736 98.3536C73.8742 98.7962 72.7721 99.1755 72.5776 99.1755C72.3831 99.1755 72.6749 98.5749 73.2259 97.8479C74.1984 96.552 74.2632 96.0146 73.4204 96.0146C73.1935 96.0146 71.4107 96.7732 69.4982 97.6583C67.1319 98.7962 65.9649 99.2071 65.8677 98.9226C65.8028 98.6697 64.7331 98.5433 62.302 98.5433C56.2404 98.5117 52.7395 97.3738 51.5077 95.0032C50.5029 93.0435 46.84 83.4978 46.3537 81.4749C46.1268 80.5266 45.7378 79.2939 45.4785 78.725C44.895 77.3342 44.895 77.3026 46.3861 76.4176C47.0993 76.0067 47.7476 75.3113 47.8772 74.932C48.1042 73.9521 47.4558 71.4867 46.5158 69.9063C46.0944 69.2109 45.5758 67.9782 45.3813 67.188C45.0895 66.1133 44.5709 65.3547 43.4039 64.2484C42.5287 63.4266 41.8156 62.6364 41.8156 62.4467C41.8156 62.2887 42.4639 61.8778 43.2419 61.5301C44.733 60.8979 45.8675 61.0244 45.5758 61.7514C45.4785 61.9726 45.5434 62.2571 45.7054 62.3519C45.8999 62.4784 46.1592 62.1939 46.3537 61.7514C46.7103 60.7715 48.4607 59.6652 49.6277 59.6652C50.827 59.6652 50.9567 59.9497 50.2111 60.8663C49.7897 61.4037 49.6925 61.783 49.9194 62.0042C50.1463 62.2255 50.6001 61.941 51.3457 61.1192C52.3181 60.1077 52.6423 59.9497 53.712 60.0445C54.7493 60.1394 54.9438 60.2658 55.041 60.9296C55.1058 61.4037 54.8465 62.0042 54.4575 62.4151C53.4851 63.4582 53.6796 63.8375 54.8789 63.1737C57.1804 61.8778 59.5791 62.0991 59.1253 63.553C59.0281 63.9323 58.6067 64.5645 58.2501 64.9438C57.8935 65.3547 57.7639 65.6708 57.9584 65.6708C58.6067 65.6708 59.644 64.3116 59.644 63.4266C59.644 62.2255 58.9308 61.783 57.0832 61.941C55.4948 62.0358 55.4948 62.0358 55.6569 61.1824C55.7866 60.5186 55.6569 60.2342 54.9438 59.7917C54.2306 59.3491 53.8416 59.2859 52.8368 59.5388C51.9291 59.7917 51.4753 59.76 51.0215 59.444C49.9518 58.6854 47.78 59.1595 46.7103 60.3922C46.451 60.7083 45.9323 60.8031 45.0895 60.7083C44.3116 60.6135 43.5012 60.7399 42.8529 61.056C41.4915 61.7198 41.4915 61.7198 41.4915 60.4554C41.4915 59.6336 41.7508 59.0647 42.3667 58.4641C42.8205 58.0216 43.2743 57.7687 43.3067 57.9268C43.3391 58.1164 43.4688 58.6222 43.566 59.0963C43.7605 59.9181 44.733 60.3922 44.733 59.6652C44.733 59.4756 45.0895 59.3491 45.4785 59.3491C46.3861 59.3491 47.1317 58.6222 47.6503 57.3262C47.9745 56.4728 48.0393 56.4412 48.3959 56.9785C48.9469 57.6739 49.9842 57.4843 50.4056 56.5676C50.5677 56.1883 50.9567 55.8722 51.2484 55.8722C51.5402 55.8722 51.9616 55.651 52.1885 55.3981C52.4802 55.0504 52.7395 55.0188 53.1933 55.2717C55.2031 56.3148 57.5694 52.9011 55.6893 51.6367L55.0086 51.1626L55.8838 50.8149C57.4721 50.246 57.6018 50.3408 57.4721 52.1425C57.3749 53.0591 57.2128 54.197 57.0507 54.6711C56.8563 55.2401 56.9211 55.6826 57.2128 56.0935C57.6018 56.5676 57.7963 56.5992 58.6391 56.2831L59.644 55.9355V57.6107C59.644 59.5072 60.8433 63.0789 61.7834 64.1536C64.6359 67.2512 71.8645 65.2599 77.1806 59.9813C79.8062 57.3578 80.8759 55.0504 80.8111 52.2373C80.7138 46.8007 80.4869 44.6197 80.0007 43.7031C78.9958 41.8698 78.3799 41.5853 74.6846 41.2693C70.2761 40.89 68.9795 41.0796 65.8353 42.6284C63.8904 43.5767 62.9179 43.8611 61.6861 43.8611C59.644 43.8611 56.8563 45.1571 54.652 47.1484C53.3878 48.2863 52.9664 48.5075 52.4802 48.2863C50.5353 47.2748 47.6179 48.8868 45.5109 52.1109C45.0247 52.8695 44.1171 54.0074 43.4688 54.6395C42.8205 55.3033 41.9128 56.5676 41.4915 57.4527L40.6811 59.1279L40.4217 58.0532C40.2597 57.4527 40.1624 56.2831 40.1948 55.4613C40.2273 53.9441 39.6762 52.6482 38.6389 51.8896C38.2499 51.6051 38.2823 51.3839 38.8658 50.246C39.2224 49.519 39.5465 48.6972 39.5465 48.3495C39.5465 48.0334 40.5514 46.8955 41.8156 45.8208C44.5709 43.387 45.2516 41.8698 44.1819 40.4474C42.9826 38.867 39.8059 38.3929 36.4023 39.2779ZM43.0474 40.0681C44.895 41.1744 44.2467 43.2922 41.3618 45.5996C40.2597 46.4846 39.741 46.7059 39.4817 46.453C39.2224 46.2001 39.352 45.8524 40.0004 45.1255C40.9404 44.0192 41.1025 42.5652 40.3569 41.8382C39.8383 41.3325 37.9906 40.9848 35.3974 40.9216C34.2304 40.8584 33.9063 40.7635 34.2953 40.5739C36.5643 39.3412 41.3294 39.0567 43.0474 40.0681ZM33.2904 42.0911C30.2434 43.3238 28.3633 44.999 28.5578 46.3266C28.6226 46.611 28.2985 47.4012 27.8771 48.065C27.326 48.95 27.0667 49.1713 26.8722 48.8552C25.7052 47.0852 29.0764 42.8181 32.3828 41.8382C34.7815 41.1112 35.3326 41.2693 33.2904 42.0911ZM72.5452 41.6169C72.8694 41.8066 72.6749 41.9962 71.8969 42.3123C71.3134 42.5336 69.7575 43.4502 68.4609 44.3036L66.0622 45.8524L65.0897 44.9042L64.1497 43.956L66.2242 42.9761C69.1092 41.5853 71.6376 41.048 72.5452 41.6169ZM37.7313 42.3439C38.2823 43.1025 38.412 44.3669 37.9906 44.6197C37.6016 44.841 37.0506 44.3985 36.8885 43.7031C36.6616 42.5652 34.8463 42.9445 31.8641 44.7778C30.373 45.6628 29.1737 46.2318 29.1737 46.0421C29.1737 44.8726 31.3779 43.2606 34.5222 42.2175C36.6616 41.4905 37.1478 41.5221 37.7313 42.3439ZM39.9031 42.2491L40.6811 42.8813L40.0328 44.0508C39.0927 45.7892 38.5741 45.7892 38.5741 44.0824C38.5741 43.2922 38.4768 42.4388 38.3796 42.1543C38.0879 41.4589 38.9631 41.5221 39.9031 42.2491ZM78.3151 42.4388C79.32 43.0709 80.0655 44.841 80.0655 46.5794V48.0966L79.1903 47.2748C78.6717 46.8323 77.8937 46.2318 77.4075 45.9157C76.8888 45.6312 76.4999 45.1255 76.4999 44.841C76.4999 44.5565 76.2081 43.7663 75.8516 43.0709C75.495 42.3755 75.2033 41.775 75.2033 41.7118C75.2033 41.4905 77.6992 42.0595 78.3151 42.4388ZM75.8516 44.5881C75.8516 45.2519 75.7219 45.2835 73.3232 45.3151C71.3783 45.3151 70.3734 45.5048 68.7202 46.1685C67.5857 46.611 66.5808 46.9271 66.516 46.8639C66.0298 46.4214 70.1789 43.4818 72.5776 42.5652L74.0687 41.9962L74.9763 42.9445C75.4626 43.4502 75.8516 44.1772 75.8516 44.5881ZM62.5613 44.3353C62.5613 44.4301 61.9779 44.999 61.2971 45.6312C60.584 46.2318 59.5467 47.4329 58.9957 48.3179C58.3474 49.2977 57.7315 49.8667 57.3425 49.8667C56.9859 49.8667 56.1431 50.1512 55.43 50.4989L54.1982 51.0994L53.8416 50.1196C53.4851 49.1713 53.5499 49.0449 54.6844 47.8754C56.1431 46.453 58.1529 45.2203 60.0654 44.6513C61.4916 44.2088 62.5613 44.0824 62.5613 44.3353ZM65.2518 45.7892C65.4787 46.1369 64.9925 46.9903 63.5014 48.9817C62.3668 50.4989 61.2647 51.7316 61.0378 51.7316C60.8433 51.7632 60.2274 51.3207 59.6764 50.7833L58.6715 49.8035L59.3198 48.792C59.6764 48.2231 60.7785 47.0219 61.7509 46.1053C63.4365 44.5565 63.5986 44.4617 64.2469 44.8726C64.6359 45.1255 65.0897 45.5364 65.2518 45.7892ZM34.036 45.4415C32.8042 46.0737 32.5449 46.0421 32.8366 45.2835C32.9663 44.999 33.4525 44.8094 34.1008 44.8094L35.1705 44.841L34.036 45.4415ZM37.472 45.1887C37.8934 45.8524 34.8787 48.1599 32.6745 48.8868C30.7296 49.5506 27.8771 49.7719 27.8771 49.2977C27.8771 49.1713 28.1688 48.634 28.493 48.0966C29.044 47.2116 29.3033 47.0852 30.9241 46.9587C32.091 46.8639 33.3552 46.4846 34.587 45.8208C36.6616 44.7462 37.1154 44.6513 37.472 45.1887ZM31.4103 46.4214C31.151 46.5794 30.7296 46.7059 30.4703 46.7059C30.1461 46.6743 30.2434 46.4846 30.7944 46.0421C31.3455 45.5996 31.6372 45.5048 31.7021 45.7576C31.7993 45.9789 31.6372 46.2634 31.4103 46.4214ZM26.2563 46.8639C25.8349 47.907 26.0618 48.7288 27.1639 50.0879C27.8122 50.973 27.8771 51.131 27.4233 51.131C26.7425 51.131 25.5432 50.5305 25.219 50.0563C24.7976 49.4558 24.9273 48.5391 25.6404 47.1168C26.386 45.5996 26.8074 45.4415 26.2563 46.8639ZM75.9164 46.5478C75.884 46.8955 75.6895 47.7489 75.495 48.4443L75.1708 49.7086H72.6749C70.6327 49.7086 69.8223 49.8983 68.1692 50.6253C67.0346 51.131 65.9649 51.7316 65.7704 51.9528C64.9925 52.9011 64.8952 52.3321 65.6408 51.0362C66.0946 50.3092 66.4511 49.2661 66.4511 48.7288C66.4511 47.8754 66.6456 47.6225 67.6829 47.1484C69.9196 46.1369 71.4431 45.7892 73.7446 45.8524C75.8191 45.9157 76.0136 45.9789 75.9164 46.5478ZM38.8982 46.8639C38.8982 47.3064 37.2126 48.2863 34.5546 49.361C33.8415 49.6454 33.3552 49.8035 33.4525 49.677C33.6794 49.4874 38.6713 46.4214 38.8334 46.3898C38.8658 46.3898 38.8982 46.611 38.8982 46.8639ZM78.6068 47.4961C79.2227 48.1282 79.7414 48.7604 79.7414 48.95C79.7414 49.1397 79.3524 50.0879 78.8662 51.0678C78.1206 52.6482 77.9585 52.7746 77.6668 52.2373C77.4723 51.8896 76.9213 51.2258 76.4674 50.7517C75.6247 49.9299 75.6247 49.8351 76.0461 48.6972C76.273 48.0334 76.4674 47.2432 76.4999 46.9271C76.4999 46.0737 77.3427 46.295 78.6068 47.4961ZM65.8028 49.519C65.6084 50.246 65.0573 51.2891 64.5387 51.8264C63.7607 52.6798 63.5662 52.743 62.9503 52.4269C62.5613 52.2373 62.2372 51.8896 62.2372 51.7C62.2372 51.2574 65.8028 47.8754 66.0298 48.0966C66.0946 48.1599 65.9973 48.8236 65.8028 49.519ZM52.4154 48.8552C52.9664 49.2029 51.5402 51.3207 50.1139 52.2689C49.4656 52.7114 48.9469 53.1855 48.9469 53.3436C48.9469 53.6913 46.7103 53.7861 45.8675 53.47C45.4137 53.2804 45.4137 53.1855 45.8999 52.4269C47.8124 49.519 50.7946 47.8438 52.4154 48.8552ZM31.4427 50.0247C31.4427 50.3408 28.8819 50.8149 28.3309 50.5937C27.8771 50.404 28.0716 50.2776 29.1737 50.1512C31.4103 49.8667 31.4427 49.8667 31.4427 50.0247ZM53.4851 50.6885C53.4851 50.9414 53.1933 51.131 52.8368 51.131C52.2533 51.131 52.2209 51.0362 52.5126 50.4989C52.9016 49.8035 53.4851 49.9299 53.4851 50.6885ZM74.555 50.404C74.6198 50.4672 74.4577 50.9098 74.166 51.3839C73.7446 52.0793 73.2908 52.2689 71.9941 52.4269C68.9471 52.8063 64.9276 55.8722 64.1497 58.3693C63.7283 59.76 62.9179 60.0761 61.7834 59.2543C61.2323 58.8434 61.2647 58.7486 62.3668 57.2946C63.0476 56.4728 63.6634 55.3665 63.7607 54.8608C64.1821 52.7114 70.5031 49.6138 73.4204 50.1196C73.9715 50.2144 74.4577 50.3408 74.555 50.404ZM80.3573 53.5332C79.9359 55.7458 78.8338 57.4527 76.2081 59.9813C73.0639 63.0473 69.6927 64.7858 66.5808 64.9754C64.2145 65.1334 62.8531 64.7225 61.913 63.5214C61.0054 62.4467 61.1026 62.1623 62.1723 62.6996C62.6586 62.9209 63.4041 63.1421 63.8255 63.1421C65.4139 63.1421 69.9196 62.0991 71.6376 61.3089C74.5874 59.9497 77.7965 56.536 77.7965 54.766C77.7965 54.5131 78.3475 53.2488 78.9958 51.9844L80.1952 49.7086L80.3897 50.9098C80.5193 51.5735 80.4869 52.743 80.3573 53.5332ZM59.4819 51.131C59.806 51.4787 60.0005 51.8264 59.9357 51.858C59.8709 51.9212 59.3198 52.3005 58.7039 52.7114L57.6018 53.4384L57.8287 52.2057C58.2177 50.2776 58.5094 50.0879 59.4819 51.131ZM77.2778 52.9011C77.8613 54.7976 69.4333 61.8778 66.6132 61.8778C65.8353 61.8778 64.5062 60.8979 64.5062 60.329C64.5062 60.0761 67.5533 58.5273 69.6927 57.7687C71.281 57.1682 73.4853 55.651 74.1011 54.7343C74.4253 54.2602 74.555 53.6913 74.4253 53.1855C74.2956 52.6482 74.4253 52.016 74.7819 51.4155L75.3329 50.4989L76.2081 51.3523C76.6944 51.858 77.1806 52.5534 77.2778 52.9011ZM53.4851 51.6684C53.4851 51.8264 53.2582 52.2057 52.9988 52.5218C52.7395 52.8695 52.5126 53.4384 52.5126 53.7861C52.5126 54.4183 51.6374 55.5562 51.1512 55.5562C50.7946 55.5562 50.827 53.8809 51.216 52.8695C51.5726 51.9844 53.5175 50.9414 53.4851 51.6684ZM36.1754 52.2373C35.4946 52.743 35.1381 52.6482 35.4946 52.1109C35.5919 51.9212 35.9485 51.7632 36.2402 51.7632C36.7264 51.7948 36.7264 51.8264 36.1754 52.2373ZM55.5596 52.2689C56.2404 52.9011 56.208 53.0907 55.3976 54.1022C54.7817 54.8608 53.8416 55.1769 53.4202 54.766C53.1285 54.4499 54.1982 51.7632 54.6196 51.7632C54.8789 51.7632 55.3003 51.9844 55.5596 52.2689ZM62.4317 53.8493C61.2971 54.6711 60.9082 54.2602 61.6213 52.9643C61.9454 52.3637 62.0103 52.3637 62.4965 52.8379C63.0151 53.3436 63.0151 53.4068 62.4317 53.8493ZM50.4056 53.6281C50.276 54.0074 50.0166 54.197 49.7249 54.0706C49.3035 53.9125 49.3035 53.8177 49.7897 53.312C50.438 52.585 50.6974 52.743 50.4056 53.6281ZM59.9681 53.6913C59.5791 54.9872 59.5143 55.0504 58.6715 54.6079L57.9584 54.2286L58.7039 53.47C59.7736 52.3637 60.3247 52.4586 59.9681 53.6913ZM72.1562 53.9441C71.7024 54.3867 70.892 54.9556 70.341 55.1453C69.4658 55.4613 69.3685 55.4297 69.3685 54.8924C69.3685 54.5447 69.2389 54.355 69.0444 54.4499C68.8823 54.5447 68.7202 54.9872 68.7202 55.3981C68.7202 55.809 68.5581 56.2515 68.3636 56.3464C68.2016 56.4728 67.9098 56.9153 67.7478 57.3262C67.456 58.0532 64.9276 59.5704 64.6035 59.2227C64.2145 58.8434 65.3166 57.0734 66.7429 55.7458C68.4285 54.2286 69.952 53.3752 71.4755 53.0275C72.9018 52.7114 73.0963 52.9959 72.1562 53.9441ZM73.9066 53.7545C73.9066 54.2918 72.8045 55.3033 72.5128 55.0504C72.2859 54.7976 73.2259 53.3436 73.6149 53.3436C73.777 53.3436 73.9066 53.5332 73.9066 53.7545ZM45.5434 54.6079C44.895 55.3349 44.6033 55.2717 44.9275 54.4815C45.0247 54.197 45.3489 53.9758 45.6406 53.9758C46.062 53.9758 46.0296 54.0706 45.5434 54.6079ZM48.2986 54.4183C48.2986 55.1769 47.7476 55.3033 47.5531 54.6079C47.4558 54.197 47.5531 53.9758 47.8448 53.9758C48.1042 53.9758 48.2986 54.1654 48.2986 54.4183ZM62.7882 54.5131C62.5289 54.8292 61.913 55.7142 61.4592 56.5044L60.6164 57.9268V56.5992C60.6164 55.3665 60.7137 55.2085 61.8482 54.6395C63.3393 53.8493 63.4365 53.8493 62.7882 54.5131ZM47.3262 55.9355C47.3262 57.0734 46.5482 58.5589 45.8351 58.8434C45.122 59.0963 44.7978 58.7802 44.5709 57.6107C44.4088 56.8521 44.5709 56.4096 45.3813 55.4613C46.2241 54.5131 46.5158 54.355 46.8724 54.6395C47.1317 54.8292 47.3262 55.4297 47.3262 55.9355ZM50.2436 55.8406C50.2436 56.378 49.3359 57.1998 49.0118 57.0101C48.5904 56.7573 48.4931 54.8608 48.8497 54.4815C49.0766 54.2602 50.2436 55.3981 50.2436 55.8406ZM58.5094 55.8406C57.926 56.4096 57.1804 55.8722 57.4721 55.082C57.6666 54.6711 57.7963 54.6711 58.3474 54.9872C58.8984 55.3349 58.9308 55.4297 58.5094 55.8406ZM43.8578 56.2831C43.7281 57.0734 43.5012 57.4527 43.1446 57.4527C42.8529 57.4527 42.4315 57.6107 42.2046 57.8319C41.297 58.717 42.2694 56.7889 43.3715 55.4613C44.0198 54.7343 44.1171 54.8924 43.8578 56.2831ZM71.4431 56.3464C70.4382 57.105 70.1789 56.8837 71.0217 55.9987C71.4431 55.5562 71.8321 55.3665 71.8969 55.5562C71.9617 55.7458 71.7672 56.1251 71.4431 56.3464ZM76.5323 56.6308C75.6895 57.9268 73.6797 59.76 72.3183 60.4554C71.1514 61.0244 69.6927 61.5933 69.6927 61.4353C69.6927 61.4037 70.4706 60.8347 71.4107 60.2026C72.3183 59.5704 73.9715 58.2113 75.0088 57.1682C76.0785 56.1251 77.0185 55.3033 77.0833 55.3981C77.1482 55.4613 76.9213 55.9987 76.5323 56.6308ZM30.4379 56.1567C30.762 56.3464 30.762 56.4728 30.4703 56.6624C30.2434 56.7889 29.8544 56.6624 29.5627 56.378C29.1088 55.9671 29.1088 55.8722 29.4978 55.8722C29.7572 55.8722 30.1785 55.9987 30.4379 56.1567ZM29.1413 56.6308C29.4006 56.9469 29.4006 57.263 29.0116 57.9584C28.7523 58.4641 28.5254 59.1279 28.5254 59.444C28.5254 59.9181 28.2985 60.0129 27.4881 59.9181C26.5156 59.8233 26.4184 59.6968 26.3211 58.717C26.1591 56.8837 28.1364 55.4297 29.1413 56.6308ZM38.8334 56.8837C38.6389 57.3894 37.6665 57.9584 37.4071 57.7055C37.3099 57.5791 37.2775 57.263 37.3747 56.9785C37.6016 56.4412 39.0279 56.3148 38.8334 56.8837ZM31.151 58.1164C30.9889 58.5589 30.6324 59.0963 30.3406 59.3175C29.8868 59.6968 29.8544 59.6336 30.0165 58.6854C30.1461 58.0848 30.373 57.421 30.5675 57.1998C31.0862 56.5676 31.5076 57.2314 31.151 58.1164ZM37.6016 59.3175C38.4444 60.487 38.4444 60.8031 37.6016 59.9813C37.2451 59.6336 36.7588 59.3491 36.5319 59.3491C36.305 59.3491 35.8836 58.8434 35.5919 58.2429L35.1057 57.1682L36.0133 57.8003C36.4995 58.148 37.2126 58.8434 37.6016 59.3175ZM39.9679 58.2745C40.13 59.2227 39.6762 61.1192 39.2224 61.4037C39.0279 61.5301 38.8982 61.3405 38.8982 61.0244C38.8982 60.7083 38.6065 60.0129 38.2499 59.444C37.634 58.4325 37.634 58.4325 38.2499 58.2429C38.6065 58.1164 38.8982 57.8952 38.8982 57.7371C38.8982 57.0734 39.8059 57.5159 39.9679 58.2745ZM14.1979 59.1911C14.2303 59.2227 14.1979 59.5072 14.0682 59.7917C13.9061 60.171 13.4523 60.2974 12.0909 60.2974C10.2756 60.2974 8.88176 60.8031 8.07138 61.7514C7.84448 62.0358 7.00168 62.5416 6.25613 62.8577C5.51058 63.1737 4.31122 63.9323 3.59809 64.5645C2.1394 65.8604 2.00974 65.8288 2.78771 64.3432C4.14915 61.783 7.06651 59.5704 9.8218 59.0331C10.9563 58.8118 13.8737 58.9066 14.1979 59.1911ZM16.8883 60.3922C17.4718 60.7715 18.4442 61.7198 19.0277 62.4467C19.9029 63.5846 20.0974 64.122 20.0974 65.3863C20.0974 67.2196 19.7409 67.3776 19.1574 65.7656C18.9305 65.1334 17.7311 63.6795 16.5317 62.4784C14.9434 60.9612 14.4248 60.2658 14.6841 60.0129C15.2027 59.5072 15.6565 59.5704 16.8883 60.3922ZM63.7931 60.3606C63.8579 60.5186 64.2793 61.056 64.7331 61.5617L65.5435 62.51H64.0848C62.3668 62.51 60.9406 61.5933 60.9406 60.4554C60.9406 59.7917 61.0378 59.7284 62.3344 59.8865C63.08 60.0129 63.7607 60.2026 63.7931 60.3606ZM28.2661 60.4554C28.8495 60.3606 29.1088 60.3922 28.8495 60.487C28.5902 60.6135 28.104 60.8979 27.8122 61.1824C27.2936 61.6249 27.1639 61.5933 26.5805 61.0876C25.7701 60.3606 25.7377 59.8549 26.548 60.2974C26.9046 60.4554 27.6502 60.5503 28.2661 60.4554ZM12.1557 60.9296C11.6371 61.056 10.8915 61.1824 10.5349 61.1824L9.88663 61.214L10.5349 60.9296C10.8915 60.7715 11.6371 60.6767 12.1557 60.6767H13.1282L12.1557 60.9296ZM41.1673 61.941C41.1673 62.0991 41.0376 62.1939 40.8431 62.1939C40.6811 62.1939 40.519 61.8778 40.519 61.4669C40.519 60.8979 40.5838 60.8663 40.8431 61.2456C41.0052 61.4985 41.1673 61.8146 41.1673 61.941ZM12.3178 62.2255C12.0909 62.6048 11.7667 62.7944 11.4426 62.6996C11.1832 62.6048 10.5998 62.51 10.1784 62.51C9.75697 62.51 9.40041 62.3835 9.40041 62.2255C9.40041 61.8778 10.1784 61.6565 11.6046 61.5933C12.5771 61.5617 12.6419 61.6249 12.3178 62.2255ZM16.629 63.553C17.4718 64.5013 18.4767 67.0299 18.4767 68.231C18.4767 68.7684 17.0504 70.0959 16.4993 70.0959C16.3373 70.0959 16.2076 69.7482 16.2076 69.3689C16.2076 67.9466 14.911 63.6162 14.3599 63.2053C14.0682 63.0157 13.5496 62.826 13.2254 62.826C12.7068 62.826 12.6743 62.7312 12.9661 62.1939C13.2902 61.5933 13.3875 61.5933 14.522 62.0358C15.1703 62.2887 16.1428 62.9841 16.629 63.553ZM41.0052 62.9841C41.0052 63.1421 40.519 63.3318 39.9679 63.395C38.9307 63.4898 38.5093 63.0473 39.3196 62.6996C39.9355 62.4467 41.0052 62.6364 41.0052 62.9841ZM11.6046 63.2686C11.7019 63.395 11.475 63.7743 11.1184 64.1852C10.0487 65.2915 9.04384 67.4092 8.81693 68.9896L8.59003 70.4752L7.77965 69.6534C6.74236 68.5471 6.45062 65.3547 7.29342 63.7743C7.84448 62.7628 7.87689 62.7312 9.62731 62.9209C10.5998 63.0157 11.5074 63.1737 11.6046 63.2686ZM5.64024 64.9438C4.0519 67.9782 4.82986 72.1505 7.35825 74.1734C8.65486 75.2165 11.0536 75.9118 12.0909 75.5957C13.3875 75.1848 12.0909 76.3227 10.2432 77.1762C6.83961 78.8198 4.01948 78.4089 2.36631 76.0383C0.680719 73.6044 0.583474 69.4954 2.1394 67.0299C2.9822 65.6708 5.47817 63.4582 6.12647 63.4582C6.28855 63.4582 6.06164 64.122 5.64024 64.9438ZM14.2627 63.9323C14.911 64.6909 14.4572 64.8174 13.7765 64.0904C13.4523 63.7427 13.3551 63.4582 13.5171 63.4582C13.7116 63.4582 14.0358 63.6795 14.2627 63.9323ZM38.8334 63.7111C39.1251 63.9007 39.2224 64.9754 39.19 67.5989C39.1576 72.4349 38.8982 73.32 37.2126 74.4262C36.0457 75.1848 35.6891 75.6906 34.9436 77.6819C33.6794 81.0324 32.318 81.8858 30.1461 80.6531C28.104 79.452 27.5853 77.1446 28.9468 75.2165C29.9192 73.8889 30.0165 73.2251 29.6599 70.8861C29.4654 69.527 29.5302 69.1793 30.1461 68.4523C30.5351 67.9466 31.4103 67.4408 32.1883 67.2196C34.6843 66.5558 35.2029 66.3029 36.5968 64.8806C38.0879 63.3634 38.1851 63.3318 38.8334 63.7111ZM13.8413 64.9122C15.0731 66.2081 15.1055 66.9351 13.8737 68.5787C12.9337 69.9063 12.7716 69.4322 13.6144 67.7253C14.5868 65.734 14.0682 65.1334 12.6743 66.6506L11.6695 67.6937V66.461C11.6695 64.849 11.9612 63.7743 12.3826 63.7743C12.5771 63.7743 13.2254 64.28 13.8413 64.9122ZM28.8495 64.2484C28.8495 64.9122 27.5853 65.5127 27.0991 65.0386C26.8398 64.7858 26.9046 64.5645 27.3584 64.2168C28.1688 63.6479 28.8495 63.6479 28.8495 64.2484ZM42.1398 64.6909C42.5612 65.7024 42.3667 66.3029 41.6211 66.3029C40.8431 66.3029 40.4217 67.6305 40.7783 68.9264C41.0376 69.8431 41.0052 70.0959 40.6162 70.254C40.3245 70.3488 40.0004 70.3488 39.9031 70.2224C39.8059 70.1275 39.6762 68.7684 39.6762 67.2196C39.6114 64.9122 39.7086 64.3432 40.13 64.0904C41.1025 63.553 41.7184 63.7427 42.1398 64.6909ZM43.8578 65.3231C44.2792 65.8288 44.8302 66.9351 45.0247 67.7569C45.2516 68.5787 45.7054 69.6218 46.0296 70.0959C46.3537 70.5384 46.84 71.7396 47.1317 72.7826C47.5855 74.5211 47.5855 74.7107 47.0669 75.2481C46.4186 75.9751 44.733 76.8601 44.7006 76.5124C44.7006 76.3543 44.4412 74.6159 44.1495 72.6246L43.5984 68.9896L42.3991 68.8948C41.297 68.8 41.1673 68.7052 41.1673 67.9466C41.1673 67.346 41.4266 66.9351 42.1398 66.5558C42.9826 66.0817 43.0798 65.9236 42.7881 65.1967C42.3667 64.122 42.8529 64.1852 43.8578 65.3231ZM11.2481 66.5558C11.3777 68.958 11.1184 69.9695 10.1784 70.3488C9.07625 70.8545 8.88176 70.254 9.53007 68.1362C9.91905 66.7771 10.8267 65.0386 11.1184 65.0386C11.1508 65.0386 11.2157 65.7024 11.2481 66.5558ZM6.93685 69.4005C7.87689 71.1706 10.1135 71.8344 11.9612 70.9177C13.0633 70.3488 15.5593 70.6017 15.5593 71.2654C15.5593 72.024 14.2951 74.1418 13.5496 74.6475C12.6419 75.2797 10.697 75.3113 9.30316 74.7107C7.22859 73.8889 5.18643 70.7597 5.18643 68.4839C5.18643 68.073 5.34851 67.1564 5.57541 66.461L5.9644 65.1967L6.1913 66.7771C6.28855 67.6621 6.64512 68.8316 6.93685 69.4005ZM28.5254 65.9236C28.5254 66.0817 28.1688 66.3662 27.715 66.5558C26.8074 66.9667 26.5805 66.5242 27.4881 66.0185C28.1688 65.6076 28.5254 65.576 28.5254 65.9236ZM19.2222 67.2512C19.3195 67.5989 19.2546 67.9782 19.0926 68.073C18.9305 68.1678 18.8008 67.8834 18.8008 67.4408C18.8008 66.461 18.9953 66.3662 19.2222 67.2512ZM15.7214 68.7052C15.9807 70.0959 15.6241 70.5068 14.4896 70.254L13.6468 70.0327L14.3599 68.8C14.7489 68.1362 15.1703 67.5673 15.2676 67.5673C15.3972 67.5673 15.5917 68.073 15.7214 68.7052ZM18.7684 73.5728C17.3421 76.7969 12.5447 80.1157 8.7521 80.4318C6.48304 80.6531 4.86228 80.1473 3.33877 78.8514C2.20423 77.8715 0.648304 75.1848 0.648304 74.205C0.648304 73.9521 1.00487 74.4579 1.42627 75.3429C2.39872 77.3974 3.79258 78.3773 6.02923 78.5669C8.13621 78.725 10.3729 78.0296 12.3178 76.5756C13.1282 75.9751 14.522 74.9952 15.4296 74.3946C17.1476 73.2884 18.2822 71.866 18.6712 70.254C19.0601 68.6103 19.287 68.6103 19.3843 70.3172C19.4491 71.4867 19.287 72.4349 18.7684 73.5728ZM43.1122 69.4638C43.1122 69.6218 42.8853 69.7798 42.626 69.7798C42.3667 69.7798 42.0425 69.7798 41.9128 69.8115C41.7832 69.8115 41.6211 69.685 41.5563 69.4954C41.4915 69.3057 41.8156 69.1477 42.2694 69.1477C42.7232 69.1477 43.1122 69.2741 43.1122 69.4638ZM17.7311 71.2654C17.2773 72.0556 15.2351 74.205 15.2351 73.8573C15.2351 73.0671 16.5966 70.57 17.2125 70.2224C18.1849 69.7166 18.347 70.0959 17.7311 71.2654ZM45.0247 79.0094C45.5434 80.6215 46.1268 82.5496 46.3213 83.2765C46.5158 84.0035 47.6179 86.9747 48.7525 89.851C50.8594 95.1928 50.827 95.825 48.6228 92.5061C47.4234 90.6729 46.84 89.3453 45.8351 86.0581C44.9599 83.1185 43.3067 79.8312 42.237 78.8514C40.8756 77.6187 39.2548 77.3974 38.3796 78.3773C37.634 79.1675 36.7912 81.4749 36.4995 83.6242C36.0781 86.5638 37.5368 96.2359 38.7362 98.5433C40.4866 101.862 43.8578 103.917 49.3359 105.055C54.4251 106.098 54.5548 106.161 55.0734 107.583C55.3003 108.279 55.9162 109.669 56.4349 110.681L57.3101 112.546L53.2258 112.356C46.84 112.072 41.1673 110.428 39.5465 108.437C36.7912 104.991 34.587 95.7302 33.8739 84.5725C33.6794 81.4433 33.7118 81.0956 34.3277 80.3686C34.6843 79.8945 35.2029 78.7882 35.4946 77.8399C35.8836 76.5124 36.305 75.9118 37.5692 74.8688C38.7362 73.9205 39.2224 73.2251 39.5465 72.1821C39.9355 70.8545 39.9679 70.7913 41.5887 70.5384L43.2743 70.254L43.6633 73.1619C43.8902 74.7739 44.4736 77.3974 45.0247 79.0094ZM27.6826 78.156C27.8122 78.8198 28.3633 79.7364 29.044 80.3686C29.9841 81.3168 30.4055 81.4749 31.6048 81.4749C33.3552 81.4749 33.2256 81.0956 33.6794 87.8281C34.1656 94.6871 35.8836 102.905 37.5368 106.098C39.1576 109.227 40.4866 110.333 43.8253 111.313C45.3164 111.756 47.391 112.293 48.4607 112.483C51.4753 113.051 60.2274 112.957 63.9552 112.356C68.6554 111.566 68.3961 111.187 68.3961 118.551C68.3961 126.327 67.9098 129.266 65.9973 133.186C63.8255 137.611 61.8806 139.381 57.5046 140.961C55.819 141.562 54.7493 141.657 48.4283 141.783C36.6292 142.005 32.4476 141.278 29.1088 138.401C26.775 136.41 25.0245 132.396 24.1493 127.18C23.5658 123.672 23.4686 111.819 23.9872 107.236C24.1493 105.655 24.3762 101.009 24.5059 96.8997C24.7004 90.5464 24.6355 88.7764 24.1493 85.3627C23.7928 82.8972 23.6631 80.8427 23.7928 80.0841C24.0845 78.5985 25.5756 77.0497 26.6777 77.0497C27.326 77.0497 27.5205 77.2394 27.6826 78.156ZM41.9453 79.1991C42.8529 80.0209 43.9874 82.3915 45.4137 86.627C46.8724 90.9257 48.2986 93.4544 50.3408 95.4141C52.934 97.8795 55.5921 98.7645 61.362 99.0806L65.2194 99.2703L64.9601 101.198C64.8304 102.273 64.7656 103.632 64.7656 104.264L64.8304 105.402L62.8207 105.624C59.4819 105.94 55.3652 105.813 53.1609 105.307C51.994 105.055 49.887 104.612 48.4607 104.359C44.2143 103.569 40.8431 101.325 39.19 98.164C37.3747 94.6871 36.4347 83.6558 37.6989 80.4318C38.6713 77.998 40.0976 77.5871 41.9453 79.1991ZM73.2583 96.8364C73.2583 96.9313 72.9018 97.4686 72.448 98.0376C71.9941 98.6065 71.6376 99.2387 71.6376 99.4283C71.6376 99.9024 73.2583 99.618 75.3005 98.7645C76.1433 98.4169 76.9213 98.2272 77.0185 98.322C77.2778 98.5749 75.5274 99.6496 73.8418 100.25C72.2535 100.819 71.7997 101.356 72.8694 101.42C74.0363 101.483 75.106 101.293 76.6619 100.724C78.6068 99.9973 78.6393 99.9973 78.1206 100.566C77.9261 100.819 77.0509 101.262 76.2405 101.578C73.2259 102.589 72.9342 102.747 72.9342 103C72.9342 103.759 74.7819 103.664 77.9585 102.747C78.5096 102.589 78.542 102.621 78.1855 103.063C77.9585 103.316 77.1482 103.632 76.4026 103.759C73.388 104.201 72.9342 104.328 72.9342 104.58C72.9342 104.738 73.4204 104.865 74.0039 104.897C74.555 104.897 75.3329 105.023 75.6895 105.149C76.6944 105.529 71.0217 105.908 68.0395 105.655L65.5111 105.434L65.2842 104.328C65.1545 103.727 65.187 102.494 65.349 101.609C65.5759 100.313 65.8028 99.9024 66.4187 99.6496C66.8401 99.4599 68.3636 98.7329 69.8223 98.006C72.3183 96.7416 73.2583 96.4255 73.2583 96.8364ZM71.4107 122.724C73.9066 123.861 75.2357 125.094 78.1206 128.824C81.3621 132.996 84.4092 138.907 86.2244 144.533C87.6507 148.864 89.8225 154.901 91.9943 160.495C92.7075 162.329 93.2585 163.846 93.2261 163.877C93.1937 163.909 92.5454 163.783 91.7674 163.593C89.8225 163.119 87.4562 163.688 83.696 165.553C81.7835 166.533 80.6166 166.943 80.5518 166.722C79.709 164.288 78.2179 161.033 75.2357 154.806C68.9147 141.783 68.9471 141.815 66.4187 139.507L64.1497 137.39L64.8304 136.505C66.905 133.628 68.3961 129.014 68.9147 123.735C69.012 122.755 69.2389 121.933 69.4009 121.933C69.5954 121.933 70.5031 122.281 71.4107 122.724ZM66.3215 140.108C68.5906 142.321 68.3312 141.815 75.9488 157.651C77.8289 161.57 79.4496 165.079 79.5469 165.458C79.7414 166.027 79.5793 166.185 78.6068 166.501C77.9585 166.691 76.7268 167.354 75.8191 167.955C74.7494 168.65 74.166 168.872 74.0687 168.619C73.9715 168.397 73.4204 166.817 72.8045 165.079C72.1886 163.34 71.2486 160.717 70.6975 159.231C70.1141 157.745 69.174 154.901 68.5906 152.909C67.9747 150.918 66.6781 147.125 65.7056 144.533C62.8531 137.01 62.8855 136.758 66.3215 140.108ZM67.2291 158.662C69.8223 168.65 71.9617 177.026 71.9617 177.248C71.9617 177.469 71.5728 177.564 70.9244 177.501L69.8548 177.406L66.1918 168.872C64.1821 164.162 61.524 157.998 60.2923 155.122C59.0605 152.246 57.3425 148.2 56.4349 146.114L54.8141 142.321L57.3101 141.499C58.6715 141.056 60.3247 140.361 60.9406 140.013C61.9779 139.381 62.0751 139.381 62.2696 139.887C62.3993 140.203 64.6035 148.642 67.2291 158.662ZM31.8317 140.677C32.8366 141.151 34.3925 141.625 35.3001 141.752C36.2078 141.847 36.9533 142.036 36.9533 142.194C36.9533 142.479 33.4525 150.602 26.6777 166.027L21.5237 177.722L20.1623 177.817C19.4167 177.88 18.8008 177.817 18.8008 177.722C18.8008 177.595 19.3195 175.699 19.9678 173.518C21.1995 169.282 25.7701 153.036 27.9095 145.323C29.5302 139.507 29.4978 139.571 29.7572 139.697C29.8868 139.76 30.8269 140.203 31.8317 140.677ZM92.5454 164.288C93.2585 164.573 93.2909 164.541 90.795 165.395C89.2066 165.932 88.7528 165.742 89.0121 164.668C89.1742 164.099 89.4335 163.972 90.5681 164.004C91.2812 164.004 92.1888 164.13 92.5454 164.288ZM88.3962 165.774C88.2666 166.627 88.0073 168.619 87.8128 170.199L87.4238 173.139H85.9975H84.5713L83.1126 170.231L81.6863 167.291L82.3994 166.754C83.2422 166.122 87.4562 164.32 88.1369 164.288C88.4611 164.288 88.5259 164.636 88.3962 165.774ZM80.2276 167.481C80.3573 167.892 80.6166 168.05 80.9083 167.955C81.2649 167.828 81.6863 168.366 82.367 169.788C83.1774 171.463 83.3071 172.001 83.0477 172.886C82.8532 173.708 82.5939 173.96 81.8808 174.024C81.1352 174.118 80.5518 173.708 78.2179 171.432L75.4626 168.745L77.0185 167.765C78.8662 166.659 79.9359 166.533 80.2276 167.481ZM89.2715 174.593L89.077 176.015L90.3087 175.509C91.8971 174.845 93.5178 175.13 94.1986 176.141C94.4903 176.552 94.62 177.058 94.4903 177.248C94.1013 177.88 85.252 177.532 85.252 176.868C85.252 176.679 84.8954 175.857 84.474 175.003L83.6636 173.486L86.3217 173.36C87.7803 173.328 89.1094 173.233 89.239 173.202C89.4011 173.17 89.4011 173.802 89.2715 174.593ZM84.2471 175.636C84.6037 176.489 84.9278 177.279 84.9278 177.374C84.9278 177.469 84.1498 177.564 83.2422 177.564C81.5566 177.532 81.4918 177.501 80.649 176.141L79.7738 174.719L80.8111 174.687C81.3946 174.687 82.1401 174.561 82.4967 174.403C83.5015 173.992 83.5015 173.992 84.2471 175.636Z" fill="#4F967D"/>
    <path d="M153 54.2291C151.542 54.3871 150.504 54.9561 150.115 55.7463C149.694 56.6945 149.662 58.0853 150.051 58.6859C150.213 58.9071 150.245 59.4761 150.115 59.9502C149.694 61.4358 149.986 61.8783 151.412 61.8783C152.579 61.8783 152.676 61.9415 152.676 62.7949C152.676 63.6483 152.546 63.7432 151.023 64.0909C150.115 64.3121 149.305 64.6598 149.24 64.8811C149.143 65.1023 149.37 66.4299 149.726 67.8206C151.055 72.8463 150.634 74.9325 146.42 84.5097C144.183 89.5671 143.276 92.1589 142.303 96.5209L141.687 99.2392L142.465 99.9345L143.243 100.63L142.303 102.21C141.817 103.064 140.845 104.265 140.131 104.897C138.478 106.446 131.866 110.903 129.726 111.977C127.781 112.925 127.165 112.862 124.28 111.63C123.308 111.219 122.303 110.871 122.044 110.871C121.104 110.871 121.59 112.167 123.049 113.716C124.767 115.486 124.767 115.486 121.233 115.739C119.904 115.865 118.705 116.118 118.575 116.339C118.186 116.908 119.224 117.509 120.715 117.572C121.59 117.604 121.233 117.698 119.775 117.793C117.797 117.951 117.506 118.046 117.506 118.615C117.506 119.184 117.765 119.247 120.585 119.405L123.665 119.563L120.974 119.848C118.154 120.132 117.668 120.385 118.348 121.175C118.673 121.586 119.256 121.649 121.007 121.555C122.562 121.46 123.016 121.523 122.498 121.713C122.076 121.871 121.395 122.123 120.974 122.282C120.002 122.661 120.229 123.325 121.363 123.514L122.238 123.672L120.65 125.411C116.209 130.278 111.541 137.643 109.823 142.479C108.851 145.197 107.587 153.005 108.04 153.289C108.267 153.416 109.045 153.605 109.823 153.732C110.893 153.89 111.185 154.048 111.055 154.459C110.958 154.743 109.791 158.852 108.397 163.593C106.193 171.274 105.804 172.286 105.123 172.539C104.669 172.697 104.378 173.076 104.378 173.455C104.378 174.53 103.47 174.53 101.752 173.487C100.844 172.949 99.8718 172.507 99.5801 172.507C98.5428 172.507 97.5703 173.424 97.5703 174.403C97.5703 175.257 97.7324 175.352 100.099 176.079C105.577 177.817 108.365 178.544 108.721 178.418C108.948 178.323 109.564 177.469 110.083 176.49C110.828 175.067 110.958 174.625 110.666 174.151C110.407 173.74 110.374 173.392 110.601 172.949C110.796 172.633 112.319 169.947 114.037 167.039C115.723 164.131 117.862 159.99 118.802 157.872C120.455 154.237 120.585 154.016 121.525 153.921C122.076 153.858 122.53 153.921 122.53 154.079C122.562 156.071 123.6 168.556 123.859 170.389C124.151 172.317 124.151 173.044 123.827 173.613C123.6 174.024 123.535 174.498 123.632 174.688C124.054 175.32 122.887 175.446 121.558 174.909C119.677 174.182 118.154 174.245 117.538 175.099C116.857 176.047 116.857 177.754 117.538 178.007C117.83 178.133 120.455 178.102 123.373 178.007L128.689 177.785L128.981 176.648C129.759 173.866 129.759 173.771 129.143 173.107C128.592 172.507 128.592 172.222 129.11 165.3C129.434 161.349 129.661 157.493 129.661 156.703C129.661 153.921 129.726 153.858 132.611 153.858C135.14 153.858 135.172 153.858 135.366 152.973C135.464 152.499 136.728 148.674 138.154 144.47L140.715 136.821L141.752 137.959C142.336 138.591 142.757 139.318 142.692 139.571C142.627 139.824 141.039 145.608 139.191 152.404C132.903 175.288 132.255 177.627 132.255 177.944C132.255 178.102 133.227 178.196 134.394 178.133L136.533 178.038L139.062 171.875C140.423 168.493 143.73 160.401 146.355 153.921C148.981 147.41 151.315 142.068 151.509 142.005C151.704 141.942 155.464 141.815 159.84 141.752L167.814 141.594L169.143 144.787C169.856 146.557 173.195 154.395 176.501 162.234C179.84 170.041 182.628 176.679 182.725 176.995C182.822 177.375 183.438 177.564 184.832 177.722C185.869 177.849 186.842 177.849 186.971 177.722C187.198 177.501 186.226 173.676 180.197 151.361L176.955 139.224L178.381 137.77C180.326 135.81 181.396 133.913 182.044 131.258C182.498 129.362 182.595 127.054 182.628 115.77C182.66 108.469 182.498 100.219 182.304 97.4375C182.044 93.9606 182.044 90.3257 182.239 85.7741C182.595 78.4726 182.433 77.5243 180.91 77.145C179.937 76.9238 175.983 73.8578 174.459 72.1826C173.876 71.5504 173.357 70.6654 173.26 70.2545C173.163 69.8119 173.033 69.085 172.903 68.6424C172.644 67.3465 171.12 66.0822 169.175 65.5448C166.582 64.7862 162.109 62.5105 161.428 61.5622C161.137 61.1197 160.261 59.6025 159.516 58.1801C158.77 56.7262 157.83 55.3354 157.344 55.0509C156.436 54.4504 154.329 54.0711 153 54.2291ZM156.242 55.0509C157.214 55.3986 157.636 55.9043 159.094 58.591C160.067 60.2979 161.072 61.9731 161.363 62.3208C162.077 63.0794 167.004 65.45 168.981 65.9874C171.185 66.5563 172.287 67.6942 172.579 69.6223C172.806 71.1079 173 71.3923 176.404 74.5848L180.002 77.9669L179.808 79.2944C179.581 80.8748 178.868 81.8863 177.02 83.277C175.464 84.4465 173.584 85.0787 169.338 85.8057C165.966 86.3746 164.443 86.2166 163.081 85.0787C161.785 84.0356 161.428 82.6449 161.428 78.599C161.428 74.5848 161.039 73.8262 158.025 71.8349C155.691 70.2861 155.075 69.2114 154.686 65.9557C154.491 64.6282 154.102 63.1426 153.778 62.6685C153.454 62.1944 153.13 61.2145 153 60.4875C152.838 59.2864 152.741 59.1916 151.801 59.0968C150.958 59.0019 150.699 58.8123 150.504 58.1485C150.083 56.5681 150.537 55.4302 151.866 54.9245C152.806 54.5136 154.945 54.6084 156.242 55.0509ZM152.579 59.8554C153 60.8984 151.444 62.0679 150.666 61.3093C150.472 61.1197 150.407 60.614 150.537 60.1714C150.699 59.5709 150.958 59.3496 151.574 59.3496C152.028 59.3496 152.449 59.5709 152.579 59.8554ZM153.811 63.7748C154.038 64.4386 153.811 65.0391 153.292 65.0391C153.13 65.0391 153 64.5966 153 64.0909C153 63.0162 153.487 62.8265 153.811 63.7748ZM152.352 64.723C152.352 65.1339 150.861 65.4816 150.375 65.1655C150.083 65.0075 150.148 64.8495 150.602 64.6914C151.509 64.3437 152.352 64.3437 152.352 64.723ZM154.362 67.3781C154.686 69.8119 155.399 70.855 157.765 72.309C160.715 74.1107 160.942 74.5532 160.974 79.1047C161.039 83.9408 161.461 85.0471 163.73 86.0269C165.221 86.6907 165.253 86.7223 165.772 88.9033C167.133 94.5611 168.041 103.664 167.49 105.877C167.166 107.046 164.864 109.765 163.438 110.713C161.299 112.072 157.149 112.799 150.245 112.989C146.874 113.052 143.276 113.02 142.303 112.862L140.52 112.609L143.762 110.966C147.781 108.974 152.644 106.225 153.389 105.592C153.713 105.308 154.038 104.613 154.167 104.044C154.297 103.411 154.621 102.906 154.978 102.811C155.334 102.684 155.723 102.116 155.95 101.294C156.598 98.9231 157.247 92.7911 157.441 87.0068C157.603 82.1707 157.538 81.0012 157.085 79.4524C156.015 75.8807 153.584 74.7428 151.282 76.7341C150.666 77.2399 150.083 77.6824 149.986 77.6824C149.888 77.6824 150.115 76.829 150.44 75.7543C151.217 73.2888 151.217 71.4556 150.407 68.358C150.051 66.9988 149.759 65.8293 149.759 65.7977C149.759 65.7029 153.292 65.45 153.811 65.5132C154.005 65.5448 154.232 66.3666 154.362 67.3781ZM154.589 76.5445C156.08 77.3031 157.214 80.5587 157.214 84.1937C157.214 88.3976 155.853 100.63 155.302 101.167C155.14 101.325 154.135 101.009 153.033 100.44C150.148 99.0179 147.457 98.449 144.67 98.607C143.373 98.7018 142.303 98.6702 142.303 98.5754C142.303 98.2593 143.859 92.5066 144.345 90.9578C145.318 87.8918 148.884 80.1794 149.986 78.7887C151.023 77.4611 152.741 76.102 153.422 76.102C153.551 76.102 154.07 76.2916 154.589 76.5445ZM181.493 78.1249C181.785 78.4726 181.817 80.7168 181.655 86.912C181.493 93.36 181.558 96.9318 182.012 102.969C182.595 110.934 182.531 120.891 181.85 128.54C181.461 132.649 180.391 135.083 177.895 137.517C175.561 139.792 173.325 140.425 165.318 141.088C157.863 141.721 150.828 141.531 147.976 140.646C141.623 138.686 140.131 136.6 138.511 127.623C137.635 122.724 137.084 112.767 137.668 112.767C137.83 112.767 139.483 112.989 141.363 113.273C148.203 114.285 160.132 113.305 163.244 111.472C164.637 110.65 166.744 108.374 167.587 106.762C168.235 105.529 169.953 95.541 170.667 88.7136C170.796 87.5757 170.991 86.5011 171.12 86.3114C171.218 86.1534 172.255 85.7741 173.422 85.458C176.048 84.7626 177.928 83.7195 178.997 82.3604C179.97 81.1277 180.586 79.2628 180.326 78.3145C180.132 77.5559 180.91 77.4295 181.493 78.1249ZM170.31 87.5441C168.43 101.23 168.333 101.831 168.138 100.44C168.041 99.6501 167.717 97.2478 167.425 95.0985C167.133 92.9175 166.68 90.2624 166.388 89.1562C166.128 88.0499 165.999 87.0384 166.096 86.912C166.291 86.7539 167.295 86.5643 170.083 86.2482C170.375 86.2166 170.44 86.5959 170.31 87.5441ZM149.597 99.6817C150.504 99.9345 151.866 100.472 152.676 100.851C154.232 101.673 154.329 101.926 153.616 104.17C153.227 105.276 151.25 106.541 143.503 110.523C140.067 112.293 139.548 112.483 138.413 112.293C137.214 112.104 137.117 112.135 137.084 112.831C137.052 113.21 137.052 113.652 137.084 113.779C137.149 114.411 122.757 123.198 121.59 123.198C120.682 123.198 121.395 122.566 122.822 122.092C124.443 121.586 125.383 120.859 124.896 120.575C124.734 120.48 123.665 120.638 122.498 120.891C120.391 121.396 118.413 121.27 118.802 120.67C118.9 120.48 119.775 120.353 120.715 120.353C122.789 120.353 124.475 119.816 124.475 119.184C124.475 118.773 124.086 118.71 121.882 118.899C119.256 119.121 117.83 118.963 118.154 118.457C118.251 118.299 119.515 118.172 120.974 118.172C123.34 118.172 124.605 117.825 124.086 117.319C123.989 117.224 122.789 117.066 121.428 116.971C120.099 116.877 119.062 116.687 119.126 116.56C119.224 116.434 120.391 116.244 121.72 116.181C123.373 116.086 124.378 115.865 124.702 115.517C125.156 115.075 125.058 114.885 123.47 113.368C122.498 112.451 121.882 111.661 122.109 111.598C122.303 111.535 123.34 111.819 124.443 112.262C127.976 113.747 128.883 113.463 135.496 109.006C140.585 105.561 141.493 104.676 143.243 101.452L144.637 98.7966L146.29 99.0179C147.23 99.1127 148.721 99.4288 149.597 99.6817ZM143.665 99.5552C143.373 99.8397 143.178 99.8397 142.887 99.5552C142.595 99.2708 142.66 99.1759 143.276 99.1759C143.892 99.1759 143.956 99.2708 143.665 99.5552ZM137.149 119.816C137.441 125.126 138.478 131.353 139.58 134.261L140.358 136.316L137.538 144.534C135.982 149.054 134.686 152.783 134.686 152.847C134.653 152.878 133.519 152.404 132.157 151.804C129.078 150.35 126.161 149.939 121.136 150.192C117.246 150.413 112.027 151.266 109.564 152.12L108.202 152.594L108.397 151.709C108.494 151.235 108.721 149.939 108.916 148.801C110.05 141.973 112.611 136.568 118.251 129.077C121.136 125.221 123.827 122.819 127.295 120.891C129.045 119.911 131.866 118.172 133.519 117.035C135.204 115.928 136.663 115.043 136.728 115.138C136.825 115.233 137.02 117.319 137.149 119.816ZM145.739 140.393C146.777 140.804 148.203 141.246 148.884 141.373C149.564 141.499 150.213 141.784 150.277 142.005C150.44 142.353 148.235 147.916 139.386 169.662L136.209 177.406L134.556 177.501C133.648 177.564 132.903 177.501 132.903 177.375C132.903 177.28 133.908 173.518 135.14 169.062C136.404 164.605 138.089 158.473 138.9 155.439C140.326 150.16 142.79 141.373 143.146 140.172C143.373 139.476 143.438 139.476 145.739 140.393ZM176.469 139.887C176.761 140.33 186.388 176.3 186.388 176.9C186.388 177.153 185.869 177.248 184.864 177.185L183.341 177.09L181.137 171.875C171.607 149.401 168.56 142.068 168.56 141.689C168.56 141.468 169.338 141.215 170.472 141.12C171.509 140.994 173.163 140.646 174.103 140.33C176.242 139.571 176.274 139.571 176.469 139.887ZM121.233 151.013C121.233 151.171 120.877 152.056 120.455 152.973C120.002 153.89 118.932 156.229 118.057 158.157C116.436 161.792 109.856 173.455 109.11 174.056C108.786 174.309 108.332 174.309 107.425 173.993C106.452 173.676 106.193 173.455 106.258 172.981C106.322 172.633 107.23 169.504 108.267 166.027C110.504 158.568 111.833 153.637 111.833 152.847C111.833 152.056 112.708 151.709 115.788 151.203C119.062 150.666 121.233 150.602 121.233 151.013ZM122.53 151.993C122.53 152.531 122.336 153.005 122.044 153.1C121.169 153.447 120.974 153.068 121.46 151.898C122.011 150.539 122.53 150.602 122.53 151.993ZM128.527 150.982C129.499 151.171 129.499 151.203 129.434 153.226C129.337 155.976 127.976 173.582 127.879 173.708C127.814 173.771 127.198 173.898 126.485 173.993C125.415 174.119 125.156 174.056 125.026 173.582C124.572 172.128 124.183 169.156 123.859 164.921C123.632 162.392 123.34 158.599 123.178 156.45C122.984 154.332 122.854 152.151 122.854 151.646V150.697L125.22 150.729C126.485 150.76 128.008 150.855 128.527 150.982ZM132.157 152.309C133.486 152.847 133.616 153.005 133.13 153.258C132.838 153.447 132.028 153.542 131.347 153.479C130.31 153.384 130.148 153.258 130.05 152.499C129.921 151.487 130.115 151.456 132.157 152.309ZM111.282 153.226C111.152 153.384 110.504 153.384 109.888 153.258C108.754 153.005 108.754 153.005 109.564 152.689C111.12 152.088 111.347 152.056 111.444 152.531C111.509 152.783 111.444 153.1 111.282 153.226ZM101.914 174.119C103.762 175.099 104.702 175.162 104.702 174.245C104.702 173.645 105.058 173.645 106.452 174.214C107.036 174.435 108.138 174.751 108.883 174.878C109.629 175.004 110.212 175.194 110.147 175.288C108.818 177.88 108.786 177.944 107.943 177.785C106.744 177.596 99.1587 175.352 98.4779 175.004C97.7648 174.625 97.7324 174.277 98.4131 173.645C99.1262 172.918 99.807 173.013 101.914 174.119ZM128.819 175.099C128.332 177.375 128.689 177.248 122.919 177.438L117.668 177.627V176.679C117.668 176.173 117.959 175.51 118.316 175.194C118.9 174.688 119.029 174.656 120.553 175.162C122.822 175.889 124.151 175.826 124.151 175.036C124.151 174.498 124.41 174.403 126.355 174.309C127.554 174.245 128.656 174.182 128.786 174.151C128.948 174.119 128.948 174.561 128.819 175.099Z" fill="#4F967D"/>
</svg>