<svg width="44" height="44" viewBox="0 0 44 44" fill="none" xmlns="http://www.w3.org/2000/svg">
<path fill-rule="evenodd" clip-rule="evenodd" d="M19.7722 0.0328179C19.626 0.0682743 18.8488 0.221196 18.0449 0.37263C16.0163 0.754801 13.7807 1.53187 12.2652 2.38147C11.8632 2.60679 11.4447 2.83401 11.3351 2.88624C11.1144 2.99153 9.75475 3.864 9.54296 4.03628C6.21687 6.74192 4.06627 9.34188 2.73015 12.2729C1.91514 14.0608 1.78174 14.396 1.62495 15.0498C1.53673 15.4178 1.42113 15.7797 1.36825 15.8541C1.26541 15.9985 1.12457 16.6131 0.74776 18.5607C0.388484 20.4175 0.42489 23.8988 0.824823 25.9362C1.16483 27.6686 1.77483 29.8039 2.18459 30.6962C2.71341 31.8479 3.16476 32.7714 3.23133 32.838C3.26853 32.8752 3.53493 33.3015 3.82352 33.7853C4.42953 34.8017 4.32337 34.6525 5.34101 35.9201C6.30377 37.1191 6.92599 37.8452 6.99083 37.8452C7.01753 37.8452 7.01302 37.3731 6.98086 36.7964C6.80681 33.672 8.34568 29.9366 10.8688 27.3589C11.3811 26.8356 11.9197 26.3156 12.0659 26.2036C12.735 25.69 14.2421 24.7208 14.7232 24.4945C15.0155 24.357 15.2846 24.2077 15.3211 24.1627C15.3577 24.1176 15.6267 24.0031 15.919 23.9082C16.2113 23.8132 16.5103 23.6909 16.5834 23.6362C16.7855 23.4852 18.8715 22.8353 20.052 22.5557C23.2674 21.7942 24.3438 21.3242 25.4807 20.185C25.8424 19.8226 26.4988 18.8143 26.7817 18.1862L27.0114 17.6764L26.6471 17.7651C26.4467 17.8139 26.1828 17.9058 26.0606 17.9696C25.6662 18.1749 24.3021 18.1355 23.8667 17.9061C23.4266 17.6744 23.2932 17.4442 23.2932 16.9167C23.2932 16.4001 23.4637 16.1718 24.5822 15.1906C25.152 14.6905 25.738 14.1742 25.8841 14.0432C26.0303 13.9122 26.5684 13.4793 27.0799 13.081C28.1636 12.2374 28.7299 11.7884 29.002 11.5564C29.1092 11.4652 29.4082 11.2433 29.6663 11.0631C32.5601 9.04564 32.6827 8.98569 33.2491 9.30791C33.6849 9.55584 33.7295 10.0225 33.5315 12.2678C33.2567 15.3867 32.4513 19.3962 31.7646 21.0643C31.1008 22.6766 29.8864 24.162 28.3738 25.212C27.6561 25.7101 24.9167 27.1541 24.6892 27.1541C24.6316 27.1541 24.3389 27.2706 24.0386 27.413C23.7382 27.5554 23.074 27.8673 22.5624 28.1064C19.6585 29.4632 17.9516 31.4955 17.0238 34.701C16.7599 35.6132 16.7208 36.0516 16.7186 38.1158C16.7165 40.1888 16.7552 40.6275 17.0281 41.6344C17.1997 42.2671 17.4538 42.9747 17.5929 43.2068C17.8295 43.6017 17.9252 43.6411 19.0748 43.8156C21.6921 44.2134 25.9515 43.9418 27.9725 43.2483C28.3905 43.105 28.799 42.9877 28.8804 42.9877C29.092 42.9877 30.7407 42.2596 32.0657 41.5811C34.8362 40.1624 37.5396 37.7665 39.5128 34.9812C40.1894 34.0262 41.4039 31.8718 41.5603 31.3493C41.616 31.1633 41.7103 30.9484 41.77 30.8718C41.9612 30.6264 42.6663 28.477 42.945 27.2894C43.485 24.9901 43.6512 21.6858 43.3537 19.1661C43.2061 17.9153 42.6557 15.5645 42.3517 14.8863C42.2464 14.6518 42.1605 14.3927 42.1605 14.3104C42.1605 14.1311 40.6779 11.0446 40.2693 10.3732C38.8679 8.07046 36.1475 5.19348 33.9747 3.71622C32.3309 2.59867 31.3896 2.08915 29.8702 1.49478C29.2125 1.23752 28.527 0.963345 28.3468 0.88553C28.1667 0.807715 27.2997 0.590647 26.4202 0.40308C25.1401 0.130255 24.3442 0.0528461 22.4296 0.0152244C21.1142 -0.0106236 19.9184 -0.00277378 19.7722 0.0328179Z" fill="#3DE4B9"/>
</svg>
