<svg xmlns="http://www.w3.org/2000/svg" width="221" height="174" viewBox="0 0 221 174" fill="none">
  <path fill-rule="evenodd" clip-rule="evenodd" d="M235.624 1.48381C234.869 2.27786 232.784 4.43189 230.99 6.27078C221.008 16.5061 203.452 34.5669 201.876 36.2221L200.049 38.1422L198.787 37.0774C197.242 35.772 189.246 29.6069 188.152 28.8754C187.272 28.2882 187.729 27.8905 180.708 35.3628C178.82 37.3721 175.051 41.2984 172.331 44.0881L167.386 49.1604L161.348 45.3961C158.027 43.3255 154.66 41.2634 153.866 40.8138L152.422 39.9953L150.119 43.5954C148.853 45.575 146.173 49.6283 144.164 52.6021L140.512 58.0091L137.997 55.3846C136.614 53.9407 135.374 52.923 135.243 53.1223C135.111 53.3216 134.341 55.6815 133.532 58.3669C132.723 61.0522 131.787 64.0482 131.452 65.0247C130.736 67.1139 126.2 81.9049 124.034 89.2148C123.202 92.0221 122.38 94.7185 122.207 95.2068C121.649 96.7834 116.815 113.162 114.347 121.838C113.028 126.476 111.747 130.92 111.501 131.714C110.937 133.535 109.99 133.62 109.719 131.874C109.61 131.168 109.144 130.024 108.683 129.331C107.888 128.136 107.658 128.057 104.29 127.816C100.116 127.518 97.79 126.516 98.0687 125.139C98.1891 124.542 98.542 124.279 99.2216 124.279C100.037 124.279 100.412 123.854 101.471 121.727C102.682 119.293 105.253 113.662 106.891 109.854C107.312 108.878 108.615 105.847 109.788 103.12C112.368 97.122 113.608 93.1642 113.608 90.9214C113.608 88.9351 112.162 86.5308 110.182 85.2245C106.626 82.8787 91.8865 75.2631 88.2305 73.8831C87.5296 73.6186 87.4754 73.4863 87.8965 73.0687C88.1728 72.7944 89.2306 70.3301 90.2473 67.5919C92.2321 62.2462 92.3495 62.1032 96.2101 60.3247L97.5188 59.722L98.6652 61.4858C99.7917 63.2182 99.85 63.2484 101.99 63.1871C103.334 63.149 106.865 62.2466 111.205 60.8329C120.224 57.8942 120.247 57.8844 120.648 56.7068C120.872 56.0495 121.395 55.6212 122.188 55.4459C124.113 55.0206 125.864 53.8715 126.5 52.6167C127.081 51.4689 127.069 51.4139 125.583 48.5501L124.076 45.6464L122.033 45.9358C119.459 46.3002 118.829 46.7405 118.693 48.2692C118.587 49.4627 118.509 49.5026 115.23 50.0601L111.875 50.63L108.367 46.7312C106.438 44.5865 104.473 42.3774 103.999 41.8222C103.526 41.2669 101.719 39.2696 99.9835 37.3836C98.2482 35.4977 96.8193 33.5989 96.8087 33.1639C96.7981 32.7289 97.0208 31.6566 97.3036 30.7818C97.7405 29.4289 97.9338 29.2376 98.5907 29.5057C100.608 30.329 101.29 30.29 102.101 29.3046C102.547 28.7627 103.092 27.7569 103.312 27.0698C103.546 26.3401 104.071 25.7045 104.576 25.5407C105.362 25.2855 105.425 25.0938 105.281 23.3938C105.073 20.9495 105.7 18.1421 106.397 18.3916C107.888 18.9255 109.832 19.1195 109.832 18.7342C109.832 18.4981 109.158 17.5908 108.335 16.7182C107.134 15.4466 106.801 14.7759 106.651 13.3361C106.366 10.5864 104.905 7.75147 103.044 6.33691C101.595 5.23526 101.095 5.10477 98.334 5.10743C95.8147 5.1101 94.9917 5.28897 93.8721 6.07592C91.1585 7.9845 89.5817 10.7741 89.5817 13.6681C89.5817 15.2207 88.5826 16.5065 86.4103 17.7489C84.9613 18.5775 84.6918 18.609 83.8403 18.0498C83.3169 17.7058 80.0463 15.8785 76.5718 13.989C70.5633 10.7209 70.1912 10.5779 68.9539 11.0573C67.0006 11.8141 63.9109 15.7045 62.756 18.8616C62.2198 20.3276 61.7809 21.7675 61.7809 22.0613C61.7805 22.3556 61.0182 23.9149 60.0864 25.5265C59.1548 27.1386 58.3438 28.5958 58.2844 28.7649C58.225 28.934 57.4881 29.3721 56.6466 29.7383C54.9682 30.4684 52.8567 33.4999 52.8567 35.1795C52.8567 35.693 52.0226 37.5248 51.0036 39.2505C48.2688 43.8808 47.5933 45.5288 47.8226 47.0117C47.9479 47.8204 47.7769 48.8892 47.3486 49.9758C45.6565 54.267 47.2913 58.611 52.1795 62.8134C54.9898 65.2293 59.6542 68.0788 62.4354 69.0788L64.4477 69.8023L63.7983 71.7007C62.9084 74.3026 62.6461 77.2409 63.1339 79.1508C63.4946 80.5654 63.3889 81.4291 62.1625 87.0847C60.3874 95.272 58.419 102.622 56.4228 108.517C55.0712 112.507 54.7218 113.2 54.1153 113.091C53.5469 112.988 53.3238 113.312 53.0238 114.683C52.7455 115.953 52.3363 116.611 51.4645 117.191C49.4436 118.536 47.4213 121.527 43.8587 128.44C41.9692 132.105 39.8395 136.127 39.1256 137.377C38.0589 139.244 37.8924 139.802 38.191 140.508C38.3908 140.981 38.6835 141.48 38.8418 141.617C39 141.753 38.6712 142.433 38.1114 143.127C37.2667 144.173 37.0045 144.293 36.5737 143.831C36.1365 143.361 35.5626 143.822 32.9572 146.734C31.2541 148.638 29.8606 150.286 29.8606 150.396C29.8606 150.751 32.3249 154.616 33.9491 156.808C35.2444 158.556 35.4318 159.007 35.0086 159.354C34.2645 159.962 33.8465 159.906 29.9244 158.678C27.9776 158.067 26.128 157.568 25.8146 157.568C25.5013 157.568 20.53 160.497 14.7676 164.077C9.0052 167.658 3.32516 171.155 2.14516 171.849C0.965492 172.544 0 173.31 0 173.552C0 174.073 238.784 174.18 238.95 173.658C239.009 173.475 239.017 134.327 238.969 86.6626L238.881 0L237.939 0.0199735C237.404 0.0310698 236.404 0.663562 235.624 1.48381ZM94.1319 7.33381C92.1305 8.6414 91.2114 10.0351 90.6684 12.5846L90.3039 14.2952L91.5731 14.0413C95.038 13.3494 100.831 13.2677 103.225 13.8767C105.679 14.5016 105.713 14.4972 105.706 13.5802C105.69 11.6787 104.405 8.94456 102.934 7.68578C101.69 6.62098 101.064 6.41547 98.7026 6.29696C96.2633 6.17446 95.7159 6.29874 94.1319 7.33381ZM67.7526 13.2428C65.9287 14.9579 63.8763 17.977 63.2808 19.8199C62.4649 22.3445 63.1661 22.4524 64.2184 19.9641C65.4595 17.0289 65.7094 16.6454 67.732 14.5735C70.3433 11.8984 70.4253 12.5855 67.8532 15.5877C66.5043 17.1621 65.1709 19.2105 64.6804 20.4621L63.8344 22.621L65.1242 23.6734C65.8337 24.2522 67.0566 25.1492 67.8419 25.6672C68.6272 26.1848 71.5168 28.3113 74.2636 30.3925C77.0101 32.4737 79.3883 34.1768 79.5479 34.1768C79.8537 34.1768 82.8408 26.6921 83.2321 24.9451C83.5667 23.4515 82.7135 22.08 80.2429 20.139C79.0554 19.2065 76.3257 16.9899 74.1771 15.2136C72.0285 13.4373 70.0052 11.9841 69.6809 11.9841C69.3565 11.9841 68.4888 12.5504 67.7526 13.2428ZM75.5095 15.0595C75.9815 15.5456 77.933 17.1523 79.8469 18.6299C81.7603 20.1075 83.5581 21.7631 83.842 22.3095C84.4821 23.5403 85.0275 23.001 84.5223 21.637C84.3187 21.0884 84.0737 20.3148 83.9772 19.9189C83.8808 19.5225 82.6695 18.5869 81.286 17.8394C79.9021 17.0919 77.8435 15.9623 76.7108 15.3285C74.9985 14.3702 74.796 14.325 75.5095 15.0595ZM93.3353 16.7107C92.9697 17.8132 92.6708 18.8532 92.6708 19.0214C92.6708 19.1896 92.2002 20.0658 91.625 20.9681L90.5788 22.6091L91.4163 22.8807C91.9071 23.04 92.6989 22.855 93.3301 22.4328C94.3697 21.7378 94.3993 21.6384 94.1861 19.562C93.9991 17.7364 94.0752 17.2695 94.691 16.4732C95.4711 15.4643 96.1518 15.3068 97.0695 15.9228C97.3874 16.1363 97.9564 16.1581 98.334 15.9708C99.2487 15.5172 98.6151 15.2366 95.9953 14.9353L94.0001 14.7053L93.3353 16.7107ZM101.325 14.9503C101.649 15.06 103.084 15.617 104.515 16.1878C106.37 16.9282 107.001 17.0476 106.717 16.6037C106.207 15.8088 103.162 14.6317 101.79 14.6987C101.211 14.7271 101.002 14.8403 101.325 14.9503ZM91.1263 15.4075C90.7487 15.5251 90.0537 16.0684 89.5817 16.6148C89.1098 17.1612 87.8354 18.1381 86.7501 18.7853C85.6649 19.4324 84.7766 20.1572 84.7766 20.396C84.7766 21.6064 88.1134 22.5354 89.6006 21.7387C90.6025 21.202 91.8803 18.9211 92.6413 16.3117C93.0198 15.0125 92.806 14.8851 91.1263 15.4075ZM99.4416 16.8665C98.4047 17.9211 97.3791 18.0072 96.7895 17.0884C95.6963 15.3849 94.3907 17.6317 95.0507 20.08C95.3472 21.1807 95.2837 21.5105 94.6148 22.3356C94.1841 22.8674 93.5319 23.5287 93.1654 23.8052C92.5129 24.2975 92.515 24.3303 93.2598 25.3712C93.6781 25.9562 94.4737 27.5061 95.0274 28.8159L96.0344 31.1972L96.6086 29.7618C97.1475 28.4142 97.1461 28.274 96.5897 27.4786C95.71 26.222 96.6803 26.3485 98.5564 27.7356C99.3781 28.3428 100.359 28.8359 100.737 28.8315C101.597 28.8204 102.979 26.562 102.303 26.2709C101.684 26.0041 100.565 24.5128 100.565 23.9548C100.565 23.7036 101.026 23.9384 101.589 24.4772C102.516 25.3632 102.7 25.3974 103.512 24.8354C104.3 24.2904 104.388 24.0054 104.235 22.5243C104.126 21.4768 104.259 20.3201 104.583 19.479C105.215 17.8403 105.043 17.5922 102.648 16.6849C100.336 15.8092 100.489 15.8008 99.4416 16.8665ZM101.672 19.6064C101.847 20.2873 103.306 20.4155 103.321 19.7515C103.327 19.5074 102.924 19.2424 102.426 19.1625C101.793 19.0613 101.565 19.1949 101.672 19.6064ZM85.2636 23.7076C84.7773 24.6037 84.8202 24.645 86.5706 24.9752C89.8776 25.5984 92.8695 28.1848 95.1616 32.4014C95.7488 33.4813 95.7509 33.4635 95.2364 31.7356C94.4322 29.0343 92.3296 25.3108 90.9698 24.1794C90.1845 23.5265 89.0467 23.0991 87.7603 22.9744C86.0321 22.807 85.6999 22.9047 85.2636 23.7076ZM60.8119 26.1612C59.0495 29.4067 58.7632 30.1821 59.3275 30.1821C59.7689 30.1821 62.8699 23.9775 62.7196 23.3947C62.6478 23.1164 61.7894 24.361 60.8119 26.1612ZM61.8118 27.2802L60.0191 30.6335L60.9856 31.3219C66.712 35.4005 67.1101 35.7618 67.8065 37.5057C68.4477 39.112 68.6567 39.2944 69.9987 39.4205C71.3489 39.5474 71.4656 39.4777 71.2981 38.6491C71.1451 37.8927 71.3421 37.6593 72.4617 37.2696C73.2027 37.0112 73.9698 36.9287 74.1661 37.0854C74.5485 37.3912 78.6058 35.5883 78.5876 35.1213C78.5769 34.8426 65.1833 24.7076 64.1512 24.1972C63.752 23.9997 63.1212 24.831 61.8118 27.2802ZM83.9045 26.2172C83.5379 26.9837 83.8773 27.0796 85.2369 26.594C85.9405 26.3428 86.8586 26.2615 87.2766 26.4133C87.8745 26.6304 87.9271 26.59 87.5224 26.2234C86.8486 25.6135 84.1952 25.6086 83.9045 26.2172ZM83.8434 28.2167C82.9129 28.7431 81.6876 30.752 81.6876 31.7507C81.6876 31.9056 82.3167 31.3876 83.0859 30.6002C84.8926 28.7493 86.8366 27.902 88.6492 28.175C89.7654 28.3428 89.9003 28.3028 89.2385 28.0001C87.9315 27.4022 85.0804 27.5168 83.8434 28.2167ZM84.5981 30.5807C82.0281 32.487 80.2965 35.2212 78.4063 40.3557C77.4738 42.8892 75.6121 47.8781 74.2698 51.4423C72.9271 55.0069 71.8621 57.9776 71.9036 58.0442C72.0783 58.326 78.2999 55.2466 80.7773 53.6518C83.842 51.6789 87.8117 48.4436 88.502 47.3566C88.909 46.7152 88.7281 46.2838 87.0433 43.8759C85.1696 41.1981 84.7958 40.3908 85.4298 40.3908C85.9775 40.3908 93.7018 51.4436 97.7718 58.0513C99.1299 60.2559 100.377 61.8405 100.883 62.0047C101.347 62.1556 103.049 61.951 104.664 61.5506C108.884 60.504 116.824 57.6545 117.12 57.0801C117.536 56.2736 117.417 54.599 116.829 52.9967C116.176 51.2177 116.151 51.2146 109.231 52.006C104.764 52.5169 104.684 52.5448 104.684 53.5968C104.684 55.0748 103.898 54.6367 103.628 53.0073C103.432 51.832 98.9226 41.8115 96.3512 36.8399C92.7679 29.9109 88.538 27.6583 84.5981 30.5807ZM55.2187 32.349C53.9567 33.9815 53.4786 35.5084 54.2296 35.5084C54.4183 35.5084 54.5728 35.3361 54.5728 35.1262C54.5728 34.9158 55.24 33.8173 56.0555 32.685C57.8602 30.179 57.125 29.8838 55.2187 32.349ZM57.8334 31.7028C57.2671 32.0179 56.3085 33.1737 55.703 34.2709L54.6023 36.2665L55.4968 36.8856C55.9889 37.2261 57.0248 37.5048 57.7988 37.5053C59.1229 37.5057 59.2026 37.5785 59.1411 38.7325C59.0848 39.7871 59.312 40.1138 60.7601 41.0628C61.6861 41.6695 62.9276 42.1662 63.5179 42.1662C65.5872 42.1662 67.5814 39.6872 67.0978 37.7165C66.8633 36.7614 66.356 36.3197 62.1237 33.3885C59.0632 31.2687 58.7999 31.1652 57.8334 31.7028ZM182.081 37.1391C179.249 40.1981 175.202 44.4551 173.087 46.5989L169.242 50.4969L171.371 51.7264C172.542 52.4028 175.184 54.0264 177.243 55.3349C180.766 57.5746 181.032 57.6744 181.782 57.0388C182.439 56.4818 194.28 44.2501 197.29 41.0193C197.764 40.5102 198.05 39.8812 197.926 39.6211C197.629 39.0015 188.017 31.5039 187.572 31.5456C187.383 31.5634 184.913 34.0805 182.081 37.1391ZM97.1327 36.148C97.1327 37.9447 107.921 51.0397 109.403 51.0419C110.889 51.0442 110.969 51.1542 102.968 42.2612C96.9175 35.5377 97.1327 35.7631 97.1327 36.148ZM76.973 37.2771C75.3863 38.0463 74.566 38.875 74.9281 39.3433C75.1471 39.626 77.7456 38.3774 78.3799 37.685C79.1182 36.8781 78.291 36.6384 76.973 37.2771ZM52.4118 41.7898C50.3652 45.9567 50.1908 46.8213 51.2263 47.6646C52.0672 48.3491 52.7451 47.7064 54.419 44.6367C55.8008 42.1027 56.1921 39.7645 55.4827 38.2802C54.9462 37.1573 54.3548 37.8328 52.4118 41.7898ZM57.2002 38.9833C56.8878 39.4298 56.6321 40.029 56.6321 40.3149C56.6321 41.1533 57.6059 40.911 57.993 39.9762C58.7316 38.1906 58.211 37.5386 57.2002 38.9833ZM72.4256 38.9482C72.4287 39.3757 72.5537 39.9744 72.7033 40.2798C73.1227 41.1338 74.2406 39.9265 73.9468 38.9367C73.6458 37.9216 72.4188 37.9309 72.4256 38.9482ZM51.0417 41.1675C49.3698 43.9895 48.5986 45.6846 48.8426 46.0002C48.9985 46.2021 51.7728 41.2931 52.5114 39.5075C53.179 37.895 52.579 38.5723 51.0417 41.1675ZM75.5668 40.5252L73.7368 41.5004L73.9444 43.5674C74.1363 45.4787 73.9571 46.1613 71.5676 52.6265C70.1463 56.472 69.0552 59.7109 69.1427 59.824C69.673 60.5102 70.6041 58.6048 73.6829 50.5328C76.8189 42.3109 77.8084 39.4613 77.5061 39.5266C77.4463 39.5394 76.5735 39.9886 75.5668 40.5252ZM66.9896 42.4542C66.4319 43.8826 64.8002 47.6038 63.3631 50.7241C61.9264 53.844 60.7556 56.6403 60.7618 56.9381C60.7677 57.2355 61.0083 57.0797 61.2966 56.5914C62.3122 54.8697 68.3886 40.3552 68.1974 40.108C68.0907 39.97 67.5474 41.0259 66.9896 42.4542ZM68.4535 42.2771C67.1609 45.108 61.7805 57.7077 61.7805 57.9035C61.7805 58.1907 64.9581 59.4348 66.4525 59.7331L67.8638 60.014L70.6446 52.6198C73.5782 44.8191 73.8524 43.1573 72.3752 42.1347C72.0227 41.8905 71.734 41.3983 71.734 41.041C71.734 40.5927 71.3579 40.3908 70.5242 40.3908C69.465 40.3908 69.2076 40.6251 68.4535 42.2771ZM58.0884 41.5022C57.8509 41.8506 57.4398 42.0281 57.1744 41.8963C56.8624 41.7414 56.2 42.5941 55.298 44.3118C53.85 47.069 52.4153 48.824 51.609 48.824C51.3513 48.824 50.8134 48.401 50.4136 47.8839C49.826 47.124 49.629 47.0601 49.386 47.551C49.0074 48.3153 49.6328 49.0011 53.6121 52.184C56.9297 54.8382 59.6374 56.6509 59.8234 56.3424C60.6026 55.0499 65.8992 43.2523 65.8992 42.8089C65.8992 42.7334 65.3971 42.8604 64.7837 43.0907C63.3902 43.614 62.0362 43.2696 60.1069 41.9003C59.2808 41.3144 58.5858 40.8422 58.5624 40.8515C58.5391 40.8608 58.3256 41.1537 58.0884 41.5022ZM147.469 51.5612C144.511 56.0291 142.131 59.8218 142.179 59.9892C142.227 60.1569 143.855 62.0189 145.797 64.1272C149.796 68.4699 149.005 68.3918 152.439 64.7832C153.263 63.9177 155.481 61.627 157.369 59.6918C162.098 54.8449 165.091 51.4587 165.091 50.9563C165.091 50.5106 155.12 44.1755 153.685 43.7099C152.936 43.4667 152.277 44.2985 147.469 51.5612ZM101.51 45.2732C101.912 46.1276 102.661 47.7756 103.174 48.935C104.074 50.9714 104.16 51.0428 105.682 51.0362L107.258 51.0291L106.057 49.6664C105.396 48.9172 104.309 47.6722 103.641 46.8994C102.972 46.1271 102.055 45.0956 101.603 44.6074L100.779 43.7197L101.51 45.2732ZM121.967 47.3136C121.373 47.6922 120.534 48.4884 120.102 49.0823C119.339 50.1334 119.333 50.2044 119.895 51.7277C120.212 52.5883 120.472 53.5857 120.472 53.9434C120.472 54.3012 120.753 54.5941 121.097 54.5941C122.205 54.5941 124.846 53.2355 125.469 52.3451C126.051 51.5138 126.036 51.4174 125.052 49.8196C124.49 48.9057 123.929 47.8089 123.806 47.3815C123.535 46.4392 123.348 46.4325 121.967 47.3136ZM86.6942 50.3833C83.3121 53.3597 77.1927 57.2803 73.7934 58.6487C71.3562 59.6296 70.7219 60.1041 70.7095 60.9541C70.6958 61.9239 78.9792 58.0184 83.0605 55.1312C86.3321 52.8169 90.3094 49.2062 90.1724 48.6749C89.9353 47.7539 89.3614 48.0357 86.6942 50.3833ZM48.0852 50.6655C47.3754 53.2985 47.9211 56.7157 49.2847 58.1791C49.5566 58.4707 49.3709 57.575 48.8612 56.1352C47.9767 53.6371 47.9671 53.5173 48.486 51.4201C49.0654 49.0761 48.6992 48.3872 48.0852 50.6655ZM88.8919 51.6602C83.4023 56.4241 77.2703 60.2395 72.0773 62.1228C70.6368 62.6456 70.0402 63.0349 70.3934 63.2226C70.6941 63.3824 71.7423 63.1041 72.7229 62.6043C74.843 61.5236 74.8231 61.5262 74.8231 62.3247C74.8231 62.6705 74.1668 63.2475 73.3644 63.607L71.9057 64.2604L74.2108 65.6385C75.4786 66.3971 77.7954 67.4899 79.3591 68.0677C84.5017 69.9679 83.7624 70.2346 86.2525 65.5822C88.84 60.7468 91.0164 55.9661 91.8371 53.3136C92.401 51.4902 92.3986 51.3815 91.7719 50.571C91.1304 49.7419 91.0806 49.7605 88.8919 51.6602ZM49.0726 51.294C48.8886 51.9203 48.738 52.8316 48.738 53.3189C48.738 55.0637 50.5032 59.0073 52.1311 60.9004C54.7327 63.9248 61.3614 67.8853 65.0061 68.5919L66.5421 68.8898L67.9586 65.2471C68.7373 63.2431 69.316 61.5276 69.2439 61.4348C69.1719 61.3416 67.8879 61.0535 66.3907 60.7948C64.1972 60.4153 62.8682 59.8165 59.5496 57.7113C57.2843 56.2745 54.1499 53.9865 52.5848 52.6274C51.0194 51.2679 49.664 50.1556 49.573 50.1556C49.4821 50.1556 49.2569 50.6678 49.0726 51.294ZM117.474 50.891C117.147 51.0619 117.167 51.4054 117.56 52.3877C117.84 53.0885 118.069 54.4925 118.069 55.5071C118.069 57.0073 118.171 57.3016 118.612 57.0828C118.911 56.9345 119.297 56.8134 119.47 56.8134C120.047 56.8134 119.793 53.5053 119.103 52.0419C118.421 50.5945 118.259 50.4805 117.474 50.891ZM91.1108 57.3376C89.326 61.4193 87.2138 65.761 85.5845 68.6985C84.8978 69.9364 84.9492 70.0083 86.6643 70.1987L88.0372 70.3509L89.8258 65.9124C90.8095 63.4712 92.1659 59.7899 92.8403 57.7317C93.8868 54.5386 93.997 53.8995 93.5903 53.3735C93.1832 52.8475 92.8197 53.429 91.1108 57.3376ZM94.4168 55.8533C93.719 57.54 94.1992 58.263 95.3764 57.2989C95.7763 56.9714 95.7673 56.7557 95.3205 55.9305C94.7926 54.9558 94.7885 54.9554 94.4168 55.8533ZM93.014 59.9204C92.5616 61.0131 92.5894 61.0131 94.4353 59.9301L95.9314 59.0522L94.6563 59.0424C93.7276 59.0353 93.2817 59.2737 93.014 59.9204ZM69.1942 64.6257C69.072 65.0371 69.0143 65.4055 69.0658 65.4446C69.1176 65.4836 69.546 65.8223 70.0179 66.1973C71.6029 67.457 77.7147 70.4925 80.5436 71.4246C83.4013 72.3665 87.3323 72.6616 87.6676 71.9595C87.7699 71.7455 86.4484 71.2382 84.7313 70.8316C79.8541 69.678 73.6482 66.8827 69.6311 64.0304C69.5127 63.9461 69.316 64.2142 69.1942 64.6257ZM67.7293 68.2426C67.2756 69.4441 66.8503 69.9448 66.2002 70.042C64.204 70.3416 63.1548 77.8818 64.7257 80.6382C66.4082 83.5889 70.6766 85.885 78.5985 88.1011C80.9582 88.7611 86.6729 90.4944 91.2979 91.9524C95.9228 93.4109 100.093 94.5148 100.565 94.4052C101.037 94.2956 102.501 93.6995 103.82 93.0798C106.233 91.9458 107.395 91.9382 106.205 93.0643C105.852 93.3981 104.96 93.8814 104.223 94.138C101.967 94.9236 101.2 95.4061 101.433 95.8934C101.585 96.2117 101.812 96.1921 102.148 95.8308C102.419 95.5401 102.744 95.4349 102.869 95.5978C102.995 95.7603 102.391 96.8371 101.527 97.9911C100.663 99.1451 99.5782 100.888 99.1159 101.865C98.3179 103.549 93.2069 120.695 93.4255 120.953C93.6418 121.21 98.7472 122.948 99.2833 122.948C99.6479 122.948 101.078 120.25 103.342 115.291C105.265 111.08 107.362 106.5 108.003 105.112C110.116 100.535 112.345 93.9613 112.503 91.8415C112.611 90.3923 112.485 89.4447 112.08 88.6453C110.51 85.5458 92.4926 76.3252 79.7631 72.1064C77.1237 71.2315 73.7697 69.7358 71.861 68.5822C70.0371 67.4801 68.5029 66.5782 68.4514 66.5782C68.4003 66.5782 68.0753 67.3274 67.7293 68.2426ZM63.3353 86.2418C61.4534 95.0257 58.9887 104.029 56.6232 110.762C55.6759 113.459 55.6831 113.544 56.9438 114.392C57.587 114.826 58.0974 115.371 58.0778 115.605C58.0582 115.838 56.8309 116.443 55.3502 116.95C50.2015 118.712 49.7292 119.298 42.875 132.436L38.9667 139.928L40.5061 141.702C43.6503 145.327 42.9176 145.61 48.6717 138.549C56.9033 128.448 63.4915 118.876 68.4834 109.764C71.4509 104.348 78.7211 89.6648 78.5433 89.4473C78.4794 89.3688 76.5848 88.6839 74.3329 87.9245C69.5999 86.3288 67.2179 85.023 65.5155 83.09L64.3049 81.7158L63.3353 86.2418ZM79.1796 90.6573C69.3418 111.809 63.5121 121.42 50.5066 137.928C45.9983 143.65 43.8951 146.028 43.3425 146.028C42.9121 146.028 42.2689 146.405 41.9133 146.864C41.3466 147.597 41.3071 147.996 41.5955 150.082C41.7767 151.393 42.1916 153.063 42.518 153.796C43.037 154.96 43.3572 155.162 45.0764 155.403C47.1917 155.699 48.2066 156.539 48.5427 158.271C48.844 159.823 47.3863 161.222 67.8436 139.738L70.3028 137.155L75.7378 138.961C78.7269 139.953 81.5589 140.772 82.0308 140.78C82.5027 140.787 84.4244 139.903 86.3012 138.815L89.7135 136.838L89.7908 134.886C90.0417 128.542 90.5912 126.055 91.7406 126.055C92.3282 126.055 92.7054 125.615 93.1475 124.417C93.7437 122.801 93.7413 122.769 92.9738 122.021L92.1961 121.262L93.5978 116.446C94.3687 113.797 95.4207 110.131 95.9352 108.3C97.0143 104.462 98.9367 99.6502 99.9674 98.2072C100.656 97.2441 100.659 97.1859 100.053 96.3209C99.71 95.8304 99.2037 95.4287 98.9285 95.4287C98.4057 95.4287 96.6086 94.8899 86.2456 91.6275C82.8061 90.5445 79.9138 89.6586 79.818 89.6586C79.7223 89.6586 79.435 90.1078 79.1796 90.6573ZM53.8863 115.411C53.8863 116.163 54.0377 116.26 54.8302 116.015C56.2429 115.578 56.4876 115.286 55.7514 114.913C54.5344 114.297 53.8863 114.47 53.8863 115.411ZM94.0505 124.705C93.1678 126.944 93.1674 126.942 94.3588 126.942C95.8346 126.942 96.4126 126.538 96.9848 125.107C97.4794 123.871 97.4656 123.808 96.6065 123.386C95.1482 122.669 94.7789 122.86 94.0505 124.705ZM95.9314 127.704C94.8262 128.234 94.2651 128.264 93.0535 127.86C92.226 127.584 91.4849 127.44 91.4067 127.541C91.3288 127.642 91.1726 129.147 91.06 130.885C90.8586 133.993 90.8685 134.044 91.6771 134.059C93.3363 134.09 108.459 131.643 108.459 131.344C108.459 131.175 108.176 130.583 107.829 130.03C107.266 129.131 106.921 129.031 104.568 129.089C102.513 129.139 101.438 128.911 99.6654 128.048C98.4164 127.44 97.374 126.965 97.3493 126.994C97.3246 127.023 96.6865 127.342 95.9314 127.704ZM105.542 133.181C104.409 133.377 100.711 133.949 97.3242 134.453C93.9373 134.957 91.0103 135.57 90.8201 135.816C90.3193 136.464 90.8311 136.415 100.05 134.936C104.581 134.21 108.403 133.612 108.545 133.608C108.687 133.604 108.802 133.4 108.802 133.156C108.802 132.664 108.519 132.666 105.542 133.181ZM63.2107 147.693C59.2534 151.781 56.0507 155.176 56.094 155.237C56.1695 155.342 69.0143 148.481 73.9839 145.681C75.295 144.942 76.9854 143.994 77.7405 143.574L79.1134 142.812L75.3379 141.546C73.2614 140.85 71.3023 140.276 70.9844 140.27C70.6666 140.263 67.1685 143.604 63.2107 147.693ZM38.4841 144.417L37.3625 145.914L38.2912 146.859C39.5155 148.104 39.8419 148.056 41.0271 146.456L42.0255 145.108L41.0054 144.031C40.4446 143.438 39.9003 142.946 39.7956 142.937C39.6912 142.928 39.1009 143.594 38.4841 144.417ZM34.2367 146.953C33.3402 147.947 32.6064 148.962 32.6064 149.21C32.6064 150.275 38.4573 158.63 39.8828 159.6C42.356 161.284 49.0788 159.055 46.936 157.262C46.7002 157.064 45.5865 156.703 44.461 156.459C42.7137 156.08 42.3049 155.803 41.6583 154.562C41.2419 153.763 40.7964 152.306 40.6681 151.323C40.4652 149.771 40.2606 149.448 39.1012 148.848C38.3019 148.434 37.4792 147.554 37.047 146.649C36.6503 145.82 36.2226 145.142 36.0963 145.143C35.9703 145.145 35.1332 145.959 34.2367 146.953ZM31.2335 150.444C31.2335 150.981 34.2419 155.752 36.5178 158.823C39.5409 162.903 41.3202 163.533 44.7768 161.743C47.3956 160.387 47.5851 159.966 45.1492 160.914C40.9732 162.539 38.9897 161.327 34.6853 154.519C32.0456 150.344 31.2335 149.385 31.2335 150.444Z" fill="#4F967D"/>
</svg>