<svg xmlns="http://www.w3.org/2000/svg" width="187" height="179" viewBox="0 0 187 179" fill="none">
    <path d="M62.3986 0.558437C55.3321 1.60151 51.2478 5.8054 53.3548 9.75642C53.9706 10.9575 53.8086 11.4633 52.4471 12.127C49.8539 13.3914 48.849 15.4143 49.7567 17.532C50.0484 18.1642 50.4698 18.9228 50.6967 19.2073C50.9236 19.4601 51.2154 20.2503 51.3126 20.9141C51.5719 22.4629 52.9009 23.8537 54.5217 24.2962L55.7859 24.6123L54.6514 25.9082C54.0031 26.6352 53.3872 27.6783 53.2899 28.2788C53.1603 28.9426 52.7389 29.5748 52.1554 29.9857C50.2105 31.3448 49.6594 33.6838 51.0857 34.6005C52.512 35.4855 52.6416 36.4021 51.5395 37.5084C50.9885 38.0141 50.5671 38.6463 50.5671 38.8992C50.5671 39.1204 50.2105 39.5313 49.7567 39.7526C49.3353 39.9738 48.849 40.5428 48.6546 41.0169C48.4925 41.5226 48.0711 41.9968 47.7469 42.0916C47.0662 42.3128 44.5054 45.126 44.9916 45.126C45.1537 45.126 45.4779 44.9047 45.7048 44.6519C45.9317 44.399 46.3855 44.1777 46.7421 44.1777C47.0662 44.1777 47.6821 43.83 48.1035 43.3875C48.7842 42.6605 48.9787 42.6289 49.7243 42.945C50.3401 43.2295 50.6967 43.2295 50.9236 43.0082C51.3774 42.5657 51.0209 41.9652 50.3077 41.9652C50.016 41.9652 49.5622 41.8387 49.3029 41.6807C48.9463 41.4594 49.0111 41.2382 49.6918 40.5744C50.405 39.879 50.6643 39.7842 51.2154 40.0687C52.1554 40.5744 53.9706 40.3531 53.9706 39.7526C53.9706 39.4365 53.5493 39.2469 52.6092 39.1836C51.0209 39.0572 50.7615 38.4566 51.9933 37.6981C52.5444 37.3504 53.1279 37.2555 53.9382 37.4136C54.8783 37.5716 55.1052 37.5084 55.1052 37.1291C55.1052 36.813 54.7486 36.5918 54.0679 36.5286C53.4196 36.4653 52.9658 36.2441 52.9009 35.928C52.8361 35.5487 53.1279 35.4223 54.1976 35.3907C55.7535 35.3274 56.8232 34.6637 57.6336 33.3361C58.1522 32.4827 58.1522 32.4195 57.6012 32.0402C57.0825 31.6609 57.1473 31.5977 58.0874 31.408C58.6384 31.3132 59.3516 30.9971 59.6433 30.7443C60.1295 30.3017 60.3564 30.3333 61.6206 30.8707C63.5655 31.6925 65.9643 31.9454 67.9092 31.5345C68.8168 31.3448 70.7617 31.0603 72.2528 30.8707C77.9903 30.1753 84.5058 27.4886 87.5204 24.5807C88.9791 23.1583 89.7246 22.7158 91.5723 22.1152C96.2725 20.6929 98.5415 18.4487 98.8009 15.0982C98.9954 12.7276 98.1201 10.8943 95.9483 8.99782C94.36 7.60706 91.6695 6.56399 89.6598 6.56399C88.6873 6.56399 87.3259 5.8054 86.4831 4.79393C85.2837 3.33996 82.8202 2.67619 77.7958 2.42332C74.0032 2.26528 72.6742 2.04402 70.8266 1.41186C68.2982 0.526829 64.8622 0.179142 62.3986 0.558437ZM68.363 1.1906C69.303 1.34864 70.6321 1.75955 71.3776 2.07563L72.7066 2.61297L71.4424 3.46639C70.3727 4.16177 69.692 4.31981 66.9691 4.47785C62.1069 4.79393 58.5412 6.15309 55.559 8.83978C54.1976 10.0725 54.1651 10.0725 53.8086 9.37712C52.8685 7.70189 53.5817 5.48932 55.6238 3.71926C58.4115 1.34864 63.6304 0.305573 68.363 1.1906ZM81.9774 3.27674C82.0422 3.33996 81.6532 3.40318 81.1022 3.40318C80.5511 3.40318 79.4166 3.62443 78.5738 3.90891C77.3096 4.31981 77.0179 4.31981 76.7909 3.97212C76.3696 3.33996 76.4344 3.15031 77.2448 2.99227C77.9903 2.83423 81.7505 3.08709 81.9774 3.27674ZM76.4992 4.60429C76.4992 4.98359 76.3696 4.98359 75.8509 4.50946C75.4943 4.19338 75.2026 3.71926 75.2026 3.46639C75.2026 3.08709 75.3323 3.08709 75.8509 3.56121C76.2075 3.8773 76.4992 4.35142 76.4992 4.60429ZM74.846 4.16177L75.5916 4.92037L74.9109 5.29967C74.3922 5.55253 73.8736 5.55253 72.8363 5.26806C70.859 4.69911 70.7617 4.47785 72.3501 3.94051C74.1653 3.30835 74.0032 3.27674 74.846 4.16177ZM81.6208 4.2566C81.2967 4.31981 80.7132 4.31981 80.3242 4.2566C79.9028 4.19338 80.1621 4.13017 80.8753 4.13017C81.5884 4.09856 81.9125 4.16177 81.6208 4.2566ZM83.663 5.17323C84.3437 5.58414 83.9223 7.22776 82.8202 8.42887C81.5884 9.75642 79.4814 10.8943 79.1248 10.4518C78.9952 10.3254 78.3469 9.44034 77.6986 8.5237C76.5316 6.91168 76.4992 6.84847 76.9854 5.93183C77.342 5.23645 77.731 4.98359 78.671 4.88876C80.0325 4.73072 83.2416 4.92037 83.663 5.17323ZM67.6823 5.20484C67.1961 5.26806 66.3208 5.26806 65.7374 5.20484C65.1539 5.14162 65.5429 5.07841 66.6126 5.07841C67.6823 5.07841 68.1685 5.14162 67.6823 5.20484ZM71.9287 5.48932C73.0632 5.71057 73.2253 6.12148 72.2852 6.40595C71.6045 6.62721 70.3403 6.08987 70.3403 5.61575C70.3403 5.23645 70.5672 5.23645 71.9287 5.48932ZM85.77 5.96344C86.3858 6.62721 86.3534 6.62721 85.6403 7.19616C85.2513 7.51224 84.7327 7.82832 84.5058 7.92315C84.3113 7.98636 84.214 8.17601 84.3437 8.30244C84.5058 8.46048 84.992 8.39727 85.4458 8.17601C85.932 7.98636 86.3858 7.85993 86.4507 7.95475C86.7748 8.23923 85.8672 10.2938 85.1217 10.9575C84.5058 11.5265 84.2464 11.5897 83.5009 11.3052C83.0147 11.1472 82.0746 10.9891 81.4263 10.9891H80.2594L81.7181 10.1041C83.4036 9.06104 84.2464 7.92315 84.5058 6.37434C84.7327 5.11002 84.9272 5.0468 85.77 5.96344ZM66.0615 7.10133C64.8297 8.39727 63.8573 10.0093 63.8573 10.8311C63.8573 11.242 63.6304 11.3052 62.6579 11.084C61.9772 10.9575 60.162 10.8311 58.606 10.8311C57.0177 10.8627 55.7535 10.8311 55.7535 10.7679C55.7535 10.7047 56.3045 10.1041 56.9528 9.37712C58.9302 7.25937 62.0096 5.99504 65.316 5.96344L67.2285 5.93183L66.0615 7.10133ZM68.8816 6.1847C69.0761 6.31113 69.2058 7.16455 69.2058 8.11279V9.85125L67.6499 10.2305C66.8071 10.4518 65.7374 10.8627 65.2836 11.1472C64.8297 11.4317 64.3759 11.5897 64.2787 11.4949C63.8573 11.1156 65.0566 8.87139 66.4181 7.48063C67.974 5.93183 68.2982 5.74218 68.8816 6.1847ZM74.2301 6.53239C74.2301 6.9749 73.3225 7.57545 72.9335 7.3542C72.4473 7.03812 72.5446 6.62721 73.1929 6.46917C74.1005 6.2163 74.2301 6.24791 74.2301 6.53239ZM71.1183 6.84847C71.2155 7.00651 71.0859 7.29098 70.8266 7.51224C70.081 8.11279 70.2431 8.74496 71.2479 8.99782L72.1232 9.21908L71.1507 9.40873C69.9838 9.62999 69.692 9.3139 69.692 7.7335C69.692 6.78525 69.8217 6.56399 70.3079 6.56399C70.6645 6.56399 71.021 6.69043 71.1183 6.84847ZM72.7715 8.17601C72.6418 8.33405 72.2204 8.46048 71.7666 8.46048C71.0535 8.46048 71.021 8.39727 71.3128 7.82832C71.6045 7.32259 71.799 7.25937 72.3177 7.51224C72.6742 7.70189 72.8687 7.98636 72.7715 8.17601ZM89.9515 8.39727C91.0861 10.0725 91.2805 11.3052 90.5998 12.696C90.1136 13.7074 88.1363 15.4143 87.488 15.4143C87.3583 15.4143 87.1638 15.035 87.0341 14.5293C86.9369 14.0551 86.4507 13.2965 85.9969 12.8224L85.1865 11.969L85.8672 11.0524C86.2562 10.515 86.6452 9.62999 86.7424 9.02943C87.0341 7.32259 87.1314 7.19616 88.1687 7.19616C88.9142 7.19616 89.3032 7.44902 89.9515 8.39727ZM92.7392 7.67028C95.8835 8.71335 98.2822 11.6845 98.3146 14.5609C98.3795 17.5952 96.5966 19.6498 92.4799 21.2934C89.8867 22.3365 89.1411 22.3049 89.1411 21.1354C89.1411 20.3136 88.2659 18.8912 87.2935 18.101C86.5803 17.5004 87.1962 16.2361 88.6873 15.3511C91.4426 13.7074 92.253 10.7679 90.5998 8.36566L89.757 7.19616H90.535C90.9564 7.19616 91.9613 7.41742 92.7392 7.67028ZM77.4068 9.06104C77.9579 9.78803 78.4441 10.5466 78.4441 10.7047C78.4441 11.3684 76.953 10.9259 75.5916 9.81964L74.1653 8.68174L74.9109 8.11279C75.9157 7.3542 76.1102 7.44902 77.4068 9.06104ZM55.8507 9.88285C55.2673 10.6731 54.5541 10.9891 54.9755 10.2621C55.4293 9.50356 55.8507 9.09265 56.1425 9.09265C56.3045 9.09265 56.1749 9.44034 55.8507 9.88285ZM71.9611 9.94607C71.9611 10.1041 71.8314 10.3886 71.6693 10.6414C71.41 11.0524 71.2804 11.0524 70.8266 10.6731C70.3079 10.2621 70.3079 10.1989 70.8914 10.0093C71.6693 9.6932 71.9611 9.6932 71.9611 9.94607ZM74.7812 10.5782C75.3323 11.3052 75.0081 11.6213 73.7439 11.6213C72.5121 11.6213 72.1556 11.2736 72.4473 10.3254C72.6418 9.78803 72.8363 9.72481 73.517 9.88285C74.0032 9.97768 74.5543 10.2938 74.7812 10.5782ZM70.5024 10.9891C71.1183 11.5581 71.1507 11.7793 70.859 13.4862L70.5348 15.3827L68.2658 16.2045C67.0016 16.647 65.7374 17.0895 65.4456 17.1843C65.1863 17.2792 64.6028 17.0895 64.1814 16.7418L63.4035 16.1097L64.6677 15.4775C65.3808 15.1298 66.5477 14.5609 67.2609 14.2132C67.974 13.8655 68.9141 13.2333 69.3355 12.7592C70.0162 12.0638 70.081 11.8426 69.7569 11.1472C69.303 10.1989 69.5624 10.1357 70.5024 10.9891ZM69.0437 11.4949C69.6596 12.1903 68.752 12.9488 67.2285 13.0121C65.6401 13.0437 65.478 12.4431 66.8395 11.6213C68.1361 10.8627 68.5251 10.8311 69.0437 11.4949ZM62.6579 11.6529L63.8573 11.969L63.1441 13.2017C62.5283 14.2448 62.4634 14.5609 62.82 15.0982C63.5655 16.2677 63.3062 16.6786 61.8151 16.6786C61.0696 16.6786 59.8702 16.9631 59.1571 17.3108C58.4439 17.6585 57.6336 17.8797 57.3094 17.7533C56.7259 17.5952 55.6562 16.0464 55.2997 14.9086C54.9755 13.8971 57.1149 12.6328 59.3516 12.5063C61.7503 12.3799 61.2965 11.7793 58.7681 11.7793C57.6984 11.7793 56.6611 11.6845 56.5314 11.5265C56.1749 11.1788 61.2641 11.2736 62.6579 11.6529ZM83.5657 11.8742C83.825 12.0638 83.5981 12.2851 82.8202 12.6644C81.3291 13.3598 81.1994 13.3598 80.5835 12.4115L80.0649 11.6213H81.5884C82.4636 11.6213 83.3388 11.7477 83.5657 11.8742ZM54.7486 12.6328C54.7162 13.6442 54.4569 14.1816 53.1927 15.6039L52.123 16.8367L52.3175 15.7936C52.6416 14.0867 53.7113 11.9374 54.2624 11.9374C54.5865 11.9374 54.781 12.2219 54.7486 12.6328ZM56.5639 12.2219C56.6611 12.3799 56.4018 12.7592 56.0128 13.0121C55.2348 13.5494 54.8783 13.2649 55.2348 12.4115C55.4293 11.8742 56.2721 11.7793 56.5639 12.2219ZM76.953 12.1903C77.0179 12.3167 76.8234 12.7908 76.4668 13.2017L75.8509 13.9919V13.1701C75.8509 12.0954 76.4992 11.4949 76.953 12.1903ZM71.8638 13.6442C71.5397 14.2448 71.5073 14.2764 71.3776 13.7391C71.3128 13.423 71.3452 12.9172 71.4749 12.6328C71.6369 12.1903 71.7342 12.1903 71.9611 12.5695C72.1232 12.8224 72.0907 13.2649 71.8638 13.6442ZM75.2026 13.2017C75.2026 14.2448 74.7164 14.4028 73.7115 13.6758C73.0956 13.2017 73.0956 13.2017 73.7115 12.7276C74.7164 12.0006 75.2026 12.1586 75.2026 13.2017ZM79.0276 13.1069C78.8979 14.2448 77.7958 14.5293 77.7958 13.423C77.7958 12.5695 78.0227 12.2535 78.671 12.2535C78.9952 12.2535 79.0924 12.5379 79.0276 13.1069ZM80.1945 12.7592C80.5187 13.5494 80.4215 13.8339 79.9028 13.8339C79.6111 13.8339 79.4166 13.5494 79.4166 13.0437C79.4166 12.1586 79.9028 11.969 80.1945 12.7592ZM85.7051 13.2333C86.1589 13.7707 86.5803 14.4028 86.6128 14.6557C86.6128 14.9086 86.6452 15.2562 86.6776 15.4775C86.71 15.6672 85.9969 16.0781 85.0892 16.3625C83.5333 16.8999 83.4036 16.8683 82.2691 16.2993C80.4215 15.4143 80.5835 14.4344 82.7553 13.2649C83.663 12.7592 84.5382 12.3167 84.6678 12.2851C84.7651 12.2851 85.2513 12.696 85.7051 13.2333ZM52.1554 14.4976C51.8312 15.5407 51.5395 17.0263 51.5395 17.7217L51.5071 19.0492L50.8912 18.2906C49.5298 16.7102 49.6594 14.9402 51.2802 13.4546C51.7988 12.9805 52.3823 12.5695 52.512 12.5695C52.6416 12.5695 52.4795 13.423 52.1554 14.4976ZM63.7276 14.0551C63.4683 14.5293 63.2414 14.7505 63.209 14.5293C63.209 13.9919 63.8573 12.7908 64.0842 12.9805C64.149 13.0753 64.0194 13.5494 63.7276 14.0551ZM73.8736 14.2448C75.1702 14.7821 74.846 15.0982 73.0308 15.0982C71.6045 15.0982 71.3452 14.8769 72.0259 14.2132C72.5121 13.7391 72.6418 13.7391 73.8736 14.2448ZM80.7132 14.2764C80.7132 14.8453 80.227 15.4143 79.7083 15.4143C78.9952 15.4143 78.9304 15.0666 79.4814 14.5293C79.838 14.1816 80.7132 13.9919 80.7132 14.2764ZM56.4342 17.8165L57.1149 18.5435L56.4018 19.6814C55.6562 20.8825 55.6562 20.8825 53.2575 20.0607C51.6692 19.5233 51.7988 18.2906 53.7437 15.762L54.5541 14.6873L55.17 15.92C55.4942 16.5838 56.0776 17.4372 56.4342 17.8165ZM73.4846 16.0781C72.3177 16.6786 71.6369 16.647 71.6369 16.0464C71.6369 15.762 72.577 15.5091 73.906 15.4775C74.6191 15.4459 74.5543 15.5091 73.4846 16.0781ZM77.3744 16.2677C76.8882 16.7734 76.8234 16.7734 76.8234 16.2993C76.8234 16.0148 77.0179 15.7304 77.2448 15.6355C77.8931 15.4143 77.9579 15.6988 77.3744 16.2677ZM75.8509 15.9832C75.8509 16.1413 75.5592 16.5206 75.2026 16.8367C74.4895 17.4688 74.3598 17.2792 74.8785 16.3309C75.235 15.7304 75.8509 15.5091 75.8509 15.9832ZM79.1573 16.7734C78.8007 17.1211 78.3469 17.2792 78.12 17.1527C77.6013 16.8367 78.671 15.7304 79.3193 15.9516C79.7083 16.1097 79.6759 16.2361 79.1573 16.7734ZM81.9774 16.647C82.2691 16.8367 82.3015 16.9947 82.0422 17.1211C81.6208 17.374 81.0373 17.0895 81.0373 16.647C81.0373 16.2993 81.3939 16.2993 81.9774 16.647ZM86.6452 16.9947C86.4507 17.6585 86.1265 17.7217 85.0892 17.3424C84.5058 17.1211 84.5382 17.0579 85.4134 16.7418C86.7748 16.2677 86.8397 16.2993 86.6452 16.9947ZM63.3386 17.5004C63.6628 18.2906 63.5655 18.5751 63.0469 18.3538C62.7552 18.259 61.88 18.4171 61.102 18.7015C59.9999 19.1124 59.5136 19.1757 59.0274 18.8912C58.6384 18.7015 58.3467 18.4803 58.3467 18.3855C58.3467 18.2906 58.9626 17.9429 59.7406 17.6269C61.4261 16.8683 63.0793 16.805 63.3386 17.5004ZM69.8541 18.0062C69.5299 19.4285 69.3355 19.5866 67.7147 19.4601C66.4505 19.3653 66.2884 19.2705 66.2884 18.5751C66.2884 17.9429 66.5153 17.7217 67.585 17.4372C69.8217 16.7734 70.1134 16.8367 69.8541 18.0062ZM71.3128 17.6269C70.9238 18.3538 70.3403 18.4803 70.3403 17.8481C70.3403 17.3108 70.6645 16.9947 71.2155 16.9947C71.5721 16.9947 71.5721 17.1527 71.3128 17.6269ZM77.4717 17.5952C77.4717 18.0062 76.2723 18.3538 75.7861 18.0694C75.5268 17.9113 75.5916 17.7533 76.0454 17.5952C76.9206 17.2476 77.4717 17.2476 77.4717 17.5952ZM72.3177 18.259C71.3452 19.0808 70.7293 19.0808 71.4749 18.259C71.799 17.9113 72.2852 17.6269 72.577 17.6269C72.966 17.6585 72.9011 17.7849 72.3177 18.259ZM75.0405 18.2906C75.3647 18.7331 75.1054 18.8912 73.7115 19.2073C72.0907 19.555 72.0259 19.4285 73.3225 18.6067C74.5543 17.8481 74.7488 17.8165 75.0405 18.2906ZM80.8753 18.7964C80.6159 19.8394 79.8704 20.6929 78.7683 21.2618C77.9579 21.6727 77.9255 21.6411 77.2772 20.2819L76.5965 18.8596L77.4393 18.4171C77.8931 18.1642 78.9304 17.9745 79.7083 17.9429C81.0698 17.9429 81.1022 17.9745 80.8753 18.7964ZM84.2789 18.5435C84.4409 18.8912 84.603 19.3653 84.603 19.5866C84.603 19.9975 82.6257 21.4198 82.0746 21.4198C81.556 21.4198 81.1022 20.0291 81.3939 19.3021C81.8801 17.9745 83.6954 17.5004 84.2789 18.5435ZM85.8348 18.3222C85.6403 18.8912 85.0244 18.9544 84.8299 18.4171C84.6678 18.101 84.8299 17.9429 85.2837 17.9429C85.6727 17.9429 85.8996 18.101 85.8348 18.3222ZM88.4928 21.2618V22.3681H86.9045H85.3161L85.5106 21.0089C85.6079 20.2819 85.8996 19.3337 86.1914 18.9228L86.6776 18.1958L87.5852 19.1757C88.2011 19.871 88.4928 20.5032 88.4928 21.2618ZM58.7357 20.2503C58.3467 20.598 57.7956 20.7877 57.2122 20.7245L56.337 20.6296L57.0177 19.7762C57.6336 19.0176 57.8281 18.9544 58.5412 19.2705C59.3192 19.6182 59.3516 19.6498 58.7357 20.2503ZM62.5283 19.3653C62.2365 19.6498 61.7827 19.7762 61.4586 19.6498C61.0047 19.4917 60.9723 19.3653 61.3289 19.1757C61.5558 19.0176 62.042 18.8912 62.3986 18.8912C62.9497 18.8912 62.9821 18.9544 62.5283 19.3653ZM76.6613 20.1555C77.4717 21.6727 77.3096 21.9572 75.624 22.1784C73.4198 22.4629 70.9886 21.6727 70.9886 20.6612C70.9886 20.3768 74.2301 19.3969 75.7537 19.2389C75.9806 19.2389 76.3696 19.6182 76.6613 20.1555ZM61.2965 20.1555C61.491 20.1555 61.5234 20.2819 61.4261 20.4716C61.3289 20.6296 60.7778 20.7877 60.2268 20.7877C59.384 20.7877 59.2867 20.7245 59.6433 20.3136C59.8702 20.0291 60.2916 19.9026 60.5185 19.9975C60.7778 20.0923 61.1344 20.1555 61.2965 20.1555ZM68.8816 20.44C68.9789 20.598 68.9141 20.8193 68.7196 20.9457C68.5575 21.0405 68.3954 21.8307 68.3954 22.7158C68.3954 24.2014 68.363 24.2646 67.5202 24.233C67.0016 24.233 66.3533 24.1065 66.0291 23.9801C65.5105 23.7905 65.5105 23.6956 66.2884 23.0002C67.2285 22.1468 67.2933 21.5463 66.5477 20.7245C66.0615 20.1871 66.0939 20.1555 67.3581 20.1555C68.0713 20.1555 68.752 20.2819 68.8816 20.44ZM54.1327 20.9141C55.4942 21.2934 55.5914 21.4198 55.7859 22.6526C55.9804 24.2014 55.6238 24.3278 54.1327 23.1267C53.1279 22.3049 51.9609 20.4716 52.4147 20.4716C52.5768 20.4716 53.3223 20.6612 54.1327 20.9141ZM84.9272 21.0089C84.9272 21.9888 84.4085 22.4629 83.663 22.21C82.7553 21.9256 82.7878 21.6727 83.8899 21.0405C84.992 20.3452 84.9272 20.3452 84.9272 21.0089ZM66.1263 21.2618C66.645 21.894 66.3208 22.621 65.316 23.0635C64.6353 23.3479 64.4083 23.3163 63.8573 22.8422L63.209 22.2733L63.9221 21.5147C64.7325 20.6929 65.5429 20.5664 66.1263 21.2618ZM74.5867 22.5261C75.9806 22.5261 77.1475 22.621 77.1475 22.7158C77.1475 23.4428 75.0729 24.0433 71.2479 24.4226L69.0437 24.6439V23.0319C69.0437 20.9141 69.7569 20.44 71.0859 21.6727C71.9287 22.4629 72.2204 22.5261 74.5867 22.5261ZM81.0373 20.9141C81.0373 20.9773 81.1346 21.2618 81.2318 21.5147C81.3615 21.8624 80.8753 22.1468 79.449 22.621C77.0179 23.4112 76.6937 22.8422 78.8655 21.6411C80.1297 20.9141 81.0373 20.598 81.0373 20.9141ZM59.6757 22.4313C58.217 23.7905 57.7632 23.7272 58.1522 22.21C58.3143 21.6095 58.606 21.4198 59.5785 21.325C60.2268 21.2618 60.8427 21.1986 60.9399 21.167C61.0372 21.1354 60.4537 21.7043 59.6757 22.4313ZM57.4715 22.5893C57.3742 23.2531 57.2122 23.8537 57.1473 23.9169C56.9204 24.2014 56.4018 23.4112 56.2073 22.4313C56.0128 21.5147 56.0776 21.4198 56.8232 21.4198C57.6012 21.4198 57.6336 21.4831 57.4715 22.5893ZM82.885 22.4313C84.1492 22.9686 84.1492 22.937 83.4361 23.4744C81.4263 25.0232 77.1475 26.4771 74.684 26.4771H73.4198L74.8785 25.6553C75.6888 25.2128 76.4992 24.7071 76.6613 24.4858C76.8558 24.2646 78.0876 23.664 79.4166 23.1267C80.7456 22.5577 81.8801 22.1152 81.9125 22.0836C81.945 22.0836 82.3988 22.21 82.885 22.4313ZM87.8121 23.5376C86.6128 24.96 85.1541 25.9714 82.496 27.2674C79.2545 28.7845 74.4571 30.2701 72.739 30.2701C71.7018 30.2701 71.6369 30.2069 71.8314 29.4799C71.9611 28.9742 71.8314 28.4052 71.5073 27.8995C71.2155 27.457 71.0859 27.1093 71.2155 27.1093C74.2301 27.0777 77.4068 26.6984 78.9952 26.2243C81.1346 25.5605 83.5657 24.2962 84.2789 23.506C84.5382 23.1583 85.2513 23.0002 86.4507 23.0002C88.1039 23.0002 88.2011 23.0319 87.8121 23.5376ZM63.209 23.664C63.4683 23.664 63.2738 23.8853 62.7228 24.1065C61.6531 24.5807 61.2641 24.4858 61.2641 23.7272C61.2641 23.3795 61.4586 23.2847 62.0096 23.4428C62.3986 23.5376 62.9497 23.6324 63.209 23.664ZM60.8751 24.1698C60.9399 24.4226 60.6806 24.5807 60.162 24.5807C59.3516 24.5807 59.0922 24.2646 59.5461 23.8221C59.8702 23.506 60.713 23.7272 60.8751 24.1698ZM64.9918 24.549C65.2187 24.96 64.1166 25.5289 63.0793 25.5289C61.9124 25.5289 61.7503 24.9916 62.7876 24.6439C63.9545 24.2014 64.7325 24.2014 64.9918 24.549ZM75.5268 24.7387C75.3323 24.9916 74.3598 25.4657 73.3874 25.845C71.7666 26.4139 71.5397 26.4455 70.6645 26.003C69.0761 25.1812 69.2058 24.8967 71.2155 24.8651C72.2528 24.8335 73.5494 24.7071 74.0681 24.5807C75.7212 24.1698 75.9806 24.2014 75.5268 24.7387ZM69.4975 25.8766L70.47 26.7932H67.7147C64.8297 26.7932 63.5331 26.572 63.5331 26.1295C63.5331 25.9714 63.8249 25.845 64.1814 25.845C64.538 25.845 64.9918 25.5605 65.2187 25.2128C65.8346 24.2646 68.2009 24.6439 69.4975 25.8766ZM57.6012 25.3709C57.9577 25.6237 58.3467 26.2875 58.4115 26.8564C58.5088 27.4254 58.6709 28.1208 58.8005 28.3736C58.9626 28.7845 58.606 28.8478 56.4018 28.8478C53.5493 28.8478 53.3223 28.6265 54.392 27.0777C54.9107 26.2559 56.3694 24.9283 56.7259 24.8967C56.8232 24.8967 57.2122 25.118 57.6012 25.3709ZM61.5234 25.3709C61.8475 25.6869 61.4261 25.7502 60.2268 25.5921C59.5461 25.5289 58.995 25.3076 58.995 25.1496C58.995 24.8019 61.1668 24.9916 61.5234 25.3709ZM63.3711 26.73C63.8897 26.9829 65.1863 27.2674 66.2884 27.3622L68.2658 27.4886L68.1361 28.5317C68.0388 29.3219 68.1685 29.6696 68.752 30.0805C69.1734 30.3333 69.3679 30.681 69.2382 30.8075C69.1085 30.9655 67.6499 31.0603 66.0291 31.0603C63.3386 31.0603 62.8848 30.9655 61.491 30.1753C60.0323 29.3219 58.7033 27.4886 58.6709 26.2875C58.6709 25.8134 62.1717 26.1295 63.3711 26.73ZM70.7293 27.9627C71.9611 29.0374 71.0535 30.6494 69.6272 29.9224C68.3306 29.2587 68.1361 28.6897 68.9141 27.9311C69.5624 27.299 69.9838 27.299 70.7293 27.9627ZM58.5736 29.4799C60.1295 30.1121 59.6109 30.6494 57.2122 30.8391C54.5865 31.0603 52.7389 29.7328 54.9431 29.2271C56.2397 28.9426 57.4067 29.0058 58.5736 29.4799ZM54.0031 30.7443C54.8134 31.4712 54.8134 31.5345 54.1976 31.5345C53.3872 31.5345 51.5395 32.9884 51.5395 33.6206C51.5395 34.2528 50.8912 34.1579 50.8588 33.4942C50.7615 32.4195 50.956 31.977 51.9609 30.9655C52.512 30.4282 52.9982 29.954 53.0306 29.954C53.0954 29.954 53.5168 30.3017 54.0031 30.7443ZM56.7584 32.1666C57.8605 32.7672 57.4715 33.1781 56.0452 32.9568C54.9431 32.7672 54.5217 32.862 53.452 33.589C51.9933 34.5056 51.6043 34.474 52.1554 33.4626C52.9009 32.135 55.3321 31.4396 56.7584 32.1666ZM55.8831 33.747C55.7211 33.9051 55.0728 34.1263 54.4569 34.2528C53.3872 34.4108 53.3548 34.4108 53.9382 33.9367C54.6514 33.3993 56.4342 33.2097 55.8831 33.747Z" fill="#4F967D"/>
    <path d="M36.4023 39.2787C32.1559 40.4166 26.6453 44.0831 25.2514 46.7382C24.9273 47.402 24.6355 48.5083 24.6355 49.2036C24.6355 50.9105 25.6404 51.5743 28.0716 51.511C29.9841 51.4794 34.6194 50.0571 37.3099 48.7611C38.2175 48.287 39.0279 48.0025 39.0927 48.0658C39.3196 48.287 38.5741 49.9622 38.023 50.5628C37.7313 50.8789 37.1802 51.1317 36.8237 51.1317C35.9485 51.1317 34.6843 51.9852 34.6843 52.5857C34.6843 53.1863 35.7215 53.1547 36.8885 52.4909C37.7313 52.0168 37.9258 52.0168 38.4444 52.3961C39.2224 53.0598 39.8707 54.7035 39.6438 55.4937C39.5141 56.031 39.3196 56.1574 38.7037 55.9994C38.1851 55.873 37.7313 56.031 37.1802 56.5684L36.4023 57.327L35.1381 56.5367C32.7393 55.0828 30.5351 54.4822 27.2288 54.4822C23.4362 54.4506 20.2919 55.3356 17.2449 57.327L15.2027 58.6861L12.5447 58.4965C10.308 58.37 9.5949 58.4332 8.00655 59.0338C5.89957 59.824 3.33877 62.005 2.33389 63.9647C1.32902 65.8612 0 70.6656 0 72.3092C0 75.5965 1.68559 78.6941 4.18156 80.1481C5.38092 80.8434 6.06164 80.9699 7.94172 80.9699C9.88663 80.9699 10.5674 80.8118 12.6419 79.8636C15.5593 78.5044 18.2173 76.1338 19.1898 74.0161C19.5464 73.1943 19.9678 71.2978 20.1298 69.8122C20.2919 68.3266 20.5188 66.5249 20.6161 65.7979C20.7457 64.8497 20.6161 64.1543 20.1623 63.2377C19.5139 62.005 17.0828 59.5711 16.1752 59.2867C14.9758 58.8758 20.454 55.9046 23.6955 55.2408C25.8025 54.7983 29.9516 54.9563 31.929 55.5885C33.0311 55.9362 33.0959 56.031 32.48 56.1258C32.0586 56.1891 31.2482 55.9994 30.6324 55.7465C29.1737 55.0512 26.7101 55.3988 25.6728 56.4103C24.5707 57.485 24.7976 59.9188 26.0942 61.2464L27.0019 62.163L26.2563 64.2175C25.5432 66.1456 25.5432 66.3037 26.0618 67.0623C26.6453 67.9789 27.8771 68.1369 28.6226 67.4416C29.2385 66.8094 29.5951 63.7118 29.0764 63.3957C28.8819 63.2693 28.4605 63.2377 28.2012 63.3325C27.9419 63.4273 27.4881 63.617 27.2288 63.7118C26.8074 63.8698 26.8074 63.775 27.2612 63.1429C27.5529 62.7003 28.0716 62.2894 28.3957 62.2262C29.3358 62.0682 29.8868 61.4992 29.7247 60.8671C29.6275 60.551 29.6923 60.2981 29.8544 60.2981C30.5027 60.2981 31.7669 58.5913 31.7669 57.7379C31.7669 56.9477 31.8966 56.8212 32.7069 56.8212C33.6794 56.8212 35.3326 58.0539 35.3326 58.7809C35.3326 59.0338 35.0408 59.4447 34.6843 59.7608C34.3277 60.0453 34.036 60.5826 34.036 60.9303C34.036 61.8469 35.1381 61.7205 35.6567 60.7722C36.1754 59.824 36.6616 59.7608 37.3747 60.551C38.412 61.6573 38.0554 62.7636 36.1429 64.5652C34.7167 65.8612 34.0035 66.2721 32.6097 66.5882C30.6972 66.9991 29.2709 68.1686 29.1088 69.4645C29.0764 69.907 29.1413 70.9501 29.2709 71.7719C29.5302 73.2259 29.4654 73.4471 28.3957 75.0275C27.5205 76.3235 27.0343 76.7344 26.4508 76.7344C25.997 76.7344 25.219 77.0821 24.7004 77.5246C23.2093 78.7257 22.9175 80.6222 23.5334 84.51C24.1817 88.461 24.1493 98.9865 23.501 106.762C22.1072 122.724 23.7279 133.756 28.0391 138.117L29.1088 139.192L28.0391 142.954C27.4557 145.04 25.7052 151.235 24.1493 156.703C18.4118 176.932 18.1525 178.007 18.5739 178.26C18.8008 178.386 19.5788 178.513 20.3243 178.513C21.9451 178.513 20.6485 181.01 30.4703 158.726L37.6989 142.227L45.9647 142.29L54.2306 142.321L61.0054 158.125C64.7331 166.818 68.1692 174.846 68.6878 175.984L69.6278 178.039L71.1189 178.133C72.3507 178.228 72.61 178.133 72.61 177.691C72.61 177.248 68.1043 159.674 63.5662 142.479C62.7558 139.35 62.5613 138.181 62.9827 138.718C63.1772 138.971 66.1918 147.41 67.3264 150.856C69.3361 157.082 73.6473 169.315 74.0363 169.915C74.1336 170.073 74.5874 170.137 75.0736 170.042C75.7543 169.915 76.2081 170.2 77.6344 171.559C79.1255 172.981 79.32 173.297 78.9958 173.803C78.7041 174.277 78.7689 174.53 79.2876 175.099C79.6766 175.51 80.26 176.332 80.649 176.964L81.3621 178.102L87.0996 178.039C95.6248 177.944 94.9765 178.039 94.9765 176.932C94.9765 176.395 94.6848 175.7 94.2958 175.32C93.7123 174.751 93.3233 174.657 91.7026 174.783L89.7577 174.909L89.8549 173.487C89.9522 172.096 89.9198 172.033 89.0121 171.938L88.1045 171.812L88.299 170.042C88.7204 166.66 88.8501 166.186 89.4659 166.186C90.3411 166.186 92.7723 165.269 93.3882 164.732C93.9392 164.257 93.9068 164.036 92.8047 161.033C92.1888 159.263 91.4757 157.462 91.2488 157.019C90.6653 155.881 88.7528 150.571 87.359 146.114C83.534 134.072 77.1482 124.558 71.2486 122.092L69.0444 121.175V117.13C69.0444 114.949 68.9147 112.768 68.7202 112.325C68.3312 111.314 67.9098 111.314 62.3668 112.009C59.2226 112.42 58.2825 112.452 57.8935 112.167C57.5046 111.851 56.2728 109.291 55.2355 106.636C55.1058 106.32 57.148 106.225 65.3166 106.162C71.2486 106.13 75.9488 105.972 76.435 105.782L77.3102 105.466L76.5323 104.897L75.7543 104.328L77.0509 104.139C78.5744 103.886 79.4172 103.159 78.8338 102.59C78.542 102.305 77.9261 102.337 76.3378 102.621C73.777 103.127 73.1611 102.906 75.5274 102.337C77.1158 101.958 79.0931 100.725 79.0931 100.093C79.0931 99.6187 77.7316 99.7767 75.9164 100.441C73.4204 101.389 73.1287 101.199 75.3977 100.124C77.4075 99.1762 78.0882 98.386 77.5047 97.817C77.3102 97.6274 76.435 97.817 75.0736 98.3544C73.8742 98.7969 72.7721 99.1762 72.5776 99.1762C72.3831 99.1762 72.6749 98.5756 73.2259 97.8486C74.1984 96.5527 74.2632 96.0154 73.4204 96.0154C73.1935 96.0154 71.4107 96.774 69.4982 97.659C67.1319 98.7969 65.9649 99.2078 65.8677 98.9233C65.8028 98.6705 64.7331 98.544 62.302 98.544C56.2404 98.5124 52.7395 97.3745 51.5077 95.0039C50.5029 93.0442 46.84 83.4985 46.3537 81.4756C46.1268 80.5274 45.7378 79.2946 45.4785 78.7257C44.895 77.3349 44.895 77.3033 46.3861 76.4183C47.0993 76.0074 47.7476 75.312 47.8772 74.9327C48.1042 73.9529 47.4558 71.4874 46.5158 69.907C46.0944 69.2116 45.5758 67.9789 45.3813 67.1887C45.0895 66.114 44.5709 65.3554 43.4039 64.2491C42.5287 63.4273 41.8156 62.6371 41.8156 62.4475C41.8156 62.2894 42.4639 61.8785 43.2419 61.5308C44.733 60.8987 45.8675 61.0251 45.5758 61.7521C45.4785 61.9734 45.5434 62.2578 45.7054 62.3527C45.8999 62.4791 46.1592 62.1946 46.3537 61.7521C46.7103 60.7722 48.4607 59.666 49.6277 59.666C50.827 59.666 50.9567 59.9504 50.2111 60.8671C49.7897 61.4044 49.6925 61.7837 49.9194 62.005C50.1463 62.2262 50.6001 61.9417 51.3457 61.1199C52.3181 60.1085 52.6423 59.9504 53.712 60.0453C54.7493 60.1401 54.9438 60.2665 55.041 60.9303C55.1058 61.4044 54.8465 62.005 54.4575 62.4159C53.4851 63.4589 53.6796 63.8382 54.8789 63.1745C57.1804 61.8785 59.5791 62.0998 59.1253 63.5538C59.0281 63.9331 58.6067 64.5652 58.2501 64.9445C57.8935 65.3554 57.7639 65.6715 57.9584 65.6715C58.6067 65.6715 59.644 64.3124 59.644 63.4273C59.644 62.2262 58.9308 61.7837 57.0832 61.9417C55.4948 62.0366 55.4948 62.0366 55.6569 61.1832C55.7866 60.5194 55.6569 60.2349 54.9438 59.7924C54.2306 59.3499 53.8416 59.2867 52.8368 59.5395C51.9291 59.7924 51.4753 59.7608 51.0215 59.4447C49.9518 58.6861 47.78 59.1602 46.7103 60.3929C46.451 60.709 45.9323 60.8038 45.0895 60.709C44.3116 60.6142 43.5012 60.7406 42.8529 61.0567C41.4915 61.7205 41.4915 61.7205 41.4915 60.4562C41.4915 59.6343 41.7508 59.0654 42.3667 58.4648C42.8205 58.0223 43.2743 57.7695 43.3067 57.9275C43.3391 58.1172 43.4688 58.6229 43.566 59.097C43.7605 59.9188 44.733 60.3929 44.733 59.666C44.733 59.4763 45.0895 59.3499 45.4785 59.3499C46.3861 59.3499 47.1317 58.6229 47.6503 57.327C47.9745 56.4735 48.0393 56.4419 48.3959 56.9793C48.9469 57.6746 49.9842 57.485 50.4056 56.5684C50.5677 56.1891 50.9567 55.873 51.2484 55.873C51.5402 55.873 51.9616 55.6517 52.1885 55.3988C52.4802 55.0512 52.7395 55.0196 53.1933 55.2724C55.2031 56.3155 57.5694 52.9018 55.6893 51.6375L55.0086 51.1634L55.8838 50.8157C57.4721 50.2467 57.6018 50.3415 57.4721 52.1432C57.3749 53.0598 57.2128 54.1977 57.0507 54.6719C56.8563 55.2408 56.9211 55.6833 57.2128 56.0942C57.6018 56.5684 57.7963 56.6 58.6391 56.2839L59.644 55.9362V57.6114C59.644 59.5079 60.8433 63.0796 61.7834 64.1543C64.6359 67.2519 71.8645 65.2606 77.1806 59.982C79.8062 57.3586 80.8759 55.0512 80.8111 52.238C80.7138 46.8014 80.4869 44.6205 80.0007 43.7038C78.9958 41.8705 78.3799 41.5861 74.6846 41.27C70.2761 40.8907 68.9795 41.0803 65.8353 42.6292C63.8904 43.5774 62.9179 43.8619 61.6861 43.8619C59.644 43.8619 56.8563 45.1578 54.652 47.1491C53.3878 48.287 52.9664 48.5083 52.4802 48.287C50.5353 47.2755 47.6179 48.8876 45.5109 52.1116C45.0247 52.8702 44.1171 54.0081 43.4688 54.6403C42.8205 55.304 41.9128 56.5684 41.4915 57.4534L40.6811 59.1286L40.4217 58.0539C40.2597 57.4534 40.1624 56.2839 40.1948 55.4621C40.2273 53.9449 39.6762 52.6489 38.6389 51.8903C38.2499 51.6059 38.2823 51.3846 38.8658 50.2467C39.2224 49.5197 39.5465 48.6979 39.5465 48.3502C39.5465 48.0341 40.5514 46.8963 41.8156 45.8216C44.5709 43.3877 45.2516 41.8705 44.1819 40.4482C42.9826 38.8678 39.8059 38.3936 36.4023 39.2787ZM43.0474 40.0689C44.895 41.1752 44.2467 43.2929 41.3618 45.6003C40.2597 46.4853 39.741 46.7066 39.4817 46.4537C39.2224 46.2009 39.352 45.8532 40.0004 45.1262C40.9404 44.0199 41.1025 42.5659 40.3569 41.8389C39.8383 41.3332 37.9906 40.9855 35.3974 40.9223C34.2304 40.8591 33.9063 40.7643 34.2953 40.5746C36.5643 39.3419 41.3294 39.0574 43.0474 40.0689ZM33.2904 42.0918C30.2434 43.3245 28.3633 44.9998 28.5578 46.3273C28.6226 46.6118 28.2985 47.402 27.8771 48.0658C27.326 48.9508 27.0667 49.172 26.8722 48.856C25.7052 47.0859 29.0764 42.8188 32.3828 41.8389C34.7815 41.112 35.3326 41.27 33.2904 42.0918ZM72.5452 41.6177C72.8694 41.8073 72.6749 41.997 71.8969 42.3131C71.3134 42.5343 69.7575 43.451 68.4609 44.3044L66.0622 45.8532L65.0897 44.9049L64.1497 43.9567L66.2242 42.9768C69.1092 41.5861 71.6376 41.0487 72.5452 41.6177ZM37.7313 42.3447C38.2823 43.1033 38.412 44.3676 37.9906 44.6205C37.6016 44.8417 37.0506 44.3992 36.8885 43.7038C36.6616 42.5659 34.8463 42.9452 31.8641 44.7785C30.373 45.6635 29.1737 46.2325 29.1737 46.0428C29.1737 44.8733 31.3779 43.2613 34.5222 42.2182C36.6616 41.4913 37.1478 41.5229 37.7313 42.3447ZM39.9031 42.2498L40.6811 42.882L40.0328 44.0515C39.0927 45.79 38.5741 45.79 38.5741 44.0831C38.5741 43.2929 38.4768 42.4395 38.3796 42.155C38.0879 41.4596 38.9631 41.5229 39.9031 42.2498ZM78.3151 42.4395C79.32 43.0717 80.0655 44.8417 80.0655 46.5802V48.0974L79.1903 47.2755C78.6717 46.833 77.8937 46.2325 77.4075 45.9164C76.8888 45.6319 76.4999 45.1262 76.4999 44.8417C76.4999 44.5573 76.2081 43.767 75.8516 43.0717C75.495 42.3763 75.2033 41.7757 75.2033 41.7125C75.2033 41.4913 77.6992 42.0602 78.3151 42.4395ZM75.8516 44.5889C75.8516 45.2526 75.7219 45.2842 73.3232 45.3158C71.3783 45.3158 70.3734 45.5055 68.7202 46.1693C67.5857 46.6118 66.5808 46.9279 66.516 46.8646C66.0298 46.4221 70.1789 43.4826 72.5776 42.5659L74.0687 41.997L74.9763 42.9452C75.4626 43.451 75.8516 44.1779 75.8516 44.5889ZM62.5613 44.336C62.5613 44.4308 61.9779 44.9998 61.2971 45.6319C60.584 46.2325 59.5467 47.4336 58.9957 48.3186C58.3474 49.2985 57.7315 49.8674 57.3425 49.8674C56.9859 49.8674 56.1431 50.1519 55.43 50.4996L54.1982 51.1001L53.8416 50.1203C53.4851 49.172 53.5499 49.0456 54.6844 47.8761C56.1431 46.4537 58.1529 45.221 60.0654 44.6521C61.4916 44.2095 62.5613 44.0831 62.5613 44.336ZM65.2518 45.79C65.4787 46.1376 64.9925 46.9911 63.5014 48.9824C62.3668 50.4996 61.2647 51.7323 61.0378 51.7323C60.8433 51.7639 60.2274 51.3214 59.6764 50.7841L58.6715 49.8042L59.3198 48.7927C59.6764 48.2238 60.7785 47.0227 61.7509 46.106C63.4365 44.5573 63.5986 44.4624 64.2469 44.8733C64.6359 45.1262 65.0897 45.5371 65.2518 45.79ZM34.036 45.4423C32.8042 46.0744 32.5449 46.0428 32.8366 45.2842C32.9663 44.9998 33.4525 44.8101 34.1008 44.8101L35.1705 44.8417L34.036 45.4423ZM37.472 45.1894C37.8934 45.8532 34.8787 48.1606 32.6745 48.8876C30.7296 49.5513 27.8771 49.7726 27.8771 49.2985C27.8771 49.172 28.1688 48.6347 28.493 48.0974C29.044 47.2123 29.3033 47.0859 30.9241 46.9595C32.091 46.8646 33.3552 46.4853 34.587 45.8216C36.6616 44.7469 37.1154 44.6521 37.472 45.1894ZM31.4103 46.4221C31.151 46.5802 30.7296 46.7066 30.4703 46.7066C30.1461 46.675 30.2434 46.4853 30.7944 46.0428C31.3455 45.6003 31.6372 45.5055 31.7021 45.7584C31.7993 45.9796 31.6372 46.2641 31.4103 46.4221ZM26.2563 46.8646C25.8349 47.9077 26.0618 48.7295 27.1639 50.0887C27.8122 50.9737 27.8771 51.1317 27.4233 51.1317C26.7425 51.1317 25.5432 50.5312 25.219 50.0571C24.7976 49.4565 24.9273 48.5399 25.6404 47.1175C26.386 45.6003 26.8074 45.4423 26.2563 46.8646ZM75.9164 46.5486C75.884 46.8963 75.6895 47.7497 75.495 48.4451L75.1708 49.7094H72.6749C70.6327 49.7094 69.8223 49.899 68.1692 50.626C67.0346 51.1317 65.9649 51.7323 65.7704 51.9536C64.9925 52.9018 64.8952 52.3329 65.6408 51.0369C66.0946 50.3099 66.4511 49.2669 66.4511 48.7295C66.4511 47.8761 66.6456 47.6232 67.6829 47.1491C69.9196 46.1376 71.4431 45.79 73.7446 45.8532C75.8191 45.9164 76.0136 45.9796 75.9164 46.5486ZM38.8982 46.8646C38.8982 47.3072 37.2126 48.287 34.5546 49.3617C33.8415 49.6462 33.3552 49.8042 33.4525 49.6778C33.6794 49.4881 38.6713 46.4221 38.8334 46.3905C38.8658 46.3905 38.8982 46.6118 38.8982 46.8646ZM78.6068 47.4968C79.2227 48.129 79.7414 48.7611 79.7414 48.9508C79.7414 49.1404 79.3524 50.0887 78.8662 51.0685C78.1206 52.6489 77.9585 52.7754 77.6668 52.238C77.4723 51.8903 76.9213 51.2266 76.4674 50.7524C75.6247 49.9306 75.6247 49.8358 76.0461 48.6979C76.273 48.0341 76.4674 47.2439 76.4999 46.9279C76.4999 46.0744 77.3427 46.2957 78.6068 47.4968ZM65.8028 49.5197C65.6084 50.2467 65.0573 51.2898 64.5387 51.8271C63.7607 52.6805 63.5662 52.7438 62.9503 52.4277C62.5613 52.238 62.2372 51.8903 62.2372 51.7007C62.2372 51.2582 65.8028 47.8761 66.0298 48.0974C66.0946 48.1606 65.9973 48.8244 65.8028 49.5197ZM52.4154 48.856C52.9664 49.2036 51.5402 51.3214 50.1139 52.2696C49.4656 52.7122 48.9469 53.1863 48.9469 53.3443C48.9469 53.692 46.7103 53.7868 45.8675 53.4707C45.4137 53.2811 45.4137 53.1863 45.8999 52.4277C47.8124 49.5197 50.7946 47.8445 52.4154 48.856ZM31.4427 50.0255C31.4427 50.3415 28.8819 50.8157 28.3309 50.5944C27.8771 50.4048 28.0716 50.2783 29.1737 50.1519C31.4103 49.8674 31.4427 49.8674 31.4427 50.0255ZM53.4851 50.6892C53.4851 50.9421 53.1933 51.1317 52.8368 51.1317C52.2533 51.1317 52.2209 51.0369 52.5126 50.4996C52.9016 49.8042 53.4851 49.9306 53.4851 50.6892ZM74.555 50.4048C74.6198 50.468 74.4577 50.9105 74.166 51.3846C73.7446 52.08 73.2908 52.2696 71.9941 52.4277C68.9471 52.807 64.9276 55.873 64.1497 58.37C63.7283 59.7608 62.9179 60.0769 61.7834 59.2551C61.2323 58.8441 61.2647 58.7493 62.3668 57.2953C63.0476 56.4735 63.6634 55.3672 63.7607 54.8615C64.1821 52.7122 70.5031 49.6145 73.4204 50.1203C73.9715 50.2151 74.4577 50.3415 74.555 50.4048ZM80.3573 53.534C79.9359 55.7465 78.8338 57.4534 76.2081 59.982C73.0639 63.048 69.6927 64.7865 66.5808 64.9761C64.2145 65.1342 62.8531 64.7233 61.913 63.5222C61.0054 62.4475 61.1026 62.163 62.1723 62.7003C62.6586 62.9216 63.4041 63.1429 63.8255 63.1429C65.4139 63.1429 69.9196 62.0998 71.6376 61.3096C74.5874 59.9504 77.7965 56.5367 77.7965 54.7667C77.7965 54.5138 78.3475 53.2495 78.9958 51.9852L80.1952 49.7094L80.3897 50.9105C80.5193 51.5743 80.4869 52.7438 80.3573 53.534ZM59.4819 51.1317C59.806 51.4794 60.0005 51.8271 59.9357 51.8587C59.8709 51.922 59.3198 52.3012 58.7039 52.7122L57.6018 53.4391L57.8287 52.2064C58.2177 50.2783 58.5094 50.0887 59.4819 51.1317ZM77.2778 52.9018C77.8613 54.7983 69.4333 61.8785 66.6132 61.8785C65.8353 61.8785 64.5062 60.8987 64.5062 60.3297C64.5062 60.0769 67.5533 58.5281 69.6927 57.7695C71.281 57.1689 73.4853 55.6517 74.1011 54.7351C74.4253 54.261 74.555 53.692 74.4253 53.1863C74.2956 52.6489 74.4253 52.0168 74.7819 51.4162L75.3329 50.4996L76.2081 51.353C76.6944 51.8587 77.1806 52.5541 77.2778 52.9018ZM53.4851 51.6691C53.4851 51.8271 53.2582 52.2064 52.9988 52.5225C52.7395 52.8702 52.5126 53.4391 52.5126 53.7868C52.5126 54.419 51.6374 55.5569 51.1512 55.5569C50.7946 55.5569 50.827 53.8817 51.216 52.8702C51.5726 51.9852 53.5175 50.9421 53.4851 51.6691ZM36.1754 52.238C35.4946 52.7438 35.1381 52.6489 35.4946 52.1116C35.5919 51.922 35.9485 51.7639 36.2402 51.7639C36.7264 51.7955 36.7264 51.8271 36.1754 52.238ZM55.5596 52.2696C56.2404 52.9018 56.208 53.0915 55.3976 54.1029C54.7817 54.8615 53.8416 55.1776 53.4202 54.7667C53.1285 54.4506 54.1982 51.7639 54.6196 51.7639C54.8789 51.7639 55.3003 51.9852 55.5596 52.2696ZM62.4317 53.8501C61.2971 54.6719 60.9082 54.261 61.6213 52.965C61.9454 52.3645 62.0103 52.3645 62.4965 52.8386C63.0151 53.3443 63.0151 53.4075 62.4317 53.8501ZM50.4056 53.6288C50.276 54.0081 50.0166 54.1977 49.7249 54.0713C49.3035 53.9133 49.3035 53.8184 49.7897 53.3127C50.438 52.5857 50.6974 52.7438 50.4056 53.6288ZM59.9681 53.692C59.5791 54.9879 59.5143 55.0512 58.6715 54.6087L57.9584 54.2293L58.7039 53.4707C59.7736 52.3645 60.3247 52.4593 59.9681 53.692ZM72.1562 53.9449C71.7024 54.3874 70.892 54.9563 70.341 55.146C69.4658 55.4621 69.3685 55.4305 69.3685 54.8931C69.3685 54.5454 69.2389 54.3558 69.0444 54.4506C68.8823 54.5454 68.7202 54.9879 68.7202 55.3988C68.7202 55.8098 68.5581 56.2523 68.3636 56.3471C68.2016 56.4735 67.9098 56.916 67.7478 57.327C67.456 58.0539 64.9276 59.5711 64.6035 59.2234C64.2145 58.8441 65.3166 57.0741 66.7429 55.7465C68.4285 54.2293 69.952 53.3759 71.4755 53.0282C72.9018 52.7122 73.0963 52.9966 72.1562 53.9449ZM73.9066 53.7552C73.9066 54.2926 72.8045 55.304 72.5128 55.0512C72.2859 54.7983 73.2259 53.3443 73.6149 53.3443C73.777 53.3443 73.9066 53.534 73.9066 53.7552ZM45.5434 54.6087C44.895 55.3356 44.6033 55.2724 44.9275 54.4822C45.0247 54.1977 45.3489 53.9765 45.6406 53.9765C46.062 53.9765 46.0296 54.0713 45.5434 54.6087ZM48.2986 54.419C48.2986 55.1776 47.7476 55.304 47.5531 54.6087C47.4558 54.1977 47.5531 53.9765 47.8448 53.9765C48.1042 53.9765 48.2986 54.1661 48.2986 54.419ZM62.7882 54.5138C62.5289 54.8299 61.913 55.7149 61.4592 56.5051L60.6164 57.9275V56.6C60.6164 55.3672 60.7137 55.2092 61.8482 54.6403C63.3393 53.8501 63.4365 53.8501 62.7882 54.5138ZM47.3262 55.9362C47.3262 57.0741 46.5482 58.5597 45.8351 58.8441C45.122 59.097 44.7978 58.7809 44.5709 57.6114C44.4088 56.8528 44.5709 56.4103 45.3813 55.4621C46.2241 54.5138 46.5158 54.3558 46.8724 54.6403C47.1317 54.8299 47.3262 55.4305 47.3262 55.9362ZM50.2436 55.8414C50.2436 56.3787 49.3359 57.2005 49.0118 57.0109C48.5904 56.758 48.4931 54.8615 48.8497 54.4822C49.0766 54.261 50.2436 55.3988 50.2436 55.8414ZM58.5094 55.8414C57.926 56.4103 57.1804 55.873 57.4721 55.0828C57.6666 54.6719 57.7963 54.6719 58.3474 54.9879C58.8984 55.3356 58.9308 55.4305 58.5094 55.8414ZM43.8578 56.2839C43.7281 57.0741 43.5012 57.4534 43.1446 57.4534C42.8529 57.4534 42.4315 57.6114 42.2046 57.8327C41.297 58.7177 42.2694 56.7896 43.3715 55.4621C44.0198 54.7351 44.1171 54.8931 43.8578 56.2839ZM71.4431 56.3471C70.4382 57.1057 70.1789 56.8844 71.0217 55.9994C71.4431 55.5569 71.8321 55.3672 71.8969 55.5569C71.9617 55.7465 71.7672 56.1258 71.4431 56.3471ZM76.5323 56.6316C75.6895 57.9275 73.6797 59.7608 72.3183 60.4562C71.1514 61.0251 69.6927 61.5941 69.6927 61.436C69.6927 61.4044 70.4706 60.8355 71.4107 60.2033C72.3183 59.5711 73.9715 58.212 75.0088 57.1689C76.0785 56.1258 77.0185 55.304 77.0833 55.3988C77.1482 55.4621 76.9213 55.9994 76.5323 56.6316ZM30.4379 56.1574C30.762 56.3471 30.762 56.4735 30.4703 56.6632C30.2434 56.7896 29.8544 56.6632 29.5627 56.3787C29.1088 55.9678 29.1088 55.873 29.4978 55.873C29.7572 55.873 30.1785 55.9994 30.4379 56.1574ZM29.1413 56.6316C29.4006 56.9477 29.4006 57.2637 29.0116 57.9591C28.7523 58.4648 28.5254 59.1286 28.5254 59.4447C28.5254 59.9188 28.2985 60.0136 27.4881 59.9188C26.5156 59.824 26.4184 59.6976 26.3211 58.7177C26.1591 56.8844 28.1364 55.4305 29.1413 56.6316ZM38.8334 56.8844C38.6389 57.3902 37.6665 57.9591 37.4071 57.7063C37.3099 57.5798 37.2775 57.2637 37.3747 56.9793C37.6016 56.4419 39.0279 56.3155 38.8334 56.8844ZM31.151 58.1172C30.9889 58.5597 30.6324 59.097 30.3406 59.3183C29.8868 59.6976 29.8544 59.6343 30.0165 58.6861C30.1461 58.0855 30.373 57.4218 30.5675 57.2005C31.0862 56.5684 31.5076 57.2321 31.151 58.1172ZM37.6016 59.3183C38.4444 60.4878 38.4444 60.8038 37.6016 59.982C37.2451 59.6343 36.7588 59.3499 36.5319 59.3499C36.305 59.3499 35.8836 58.8441 35.5919 58.2436L35.1057 57.1689L36.0133 57.8011C36.4995 58.1488 37.2126 58.8441 37.6016 59.3183ZM39.9679 58.2752C40.13 59.2234 39.6762 61.1199 39.2224 61.4044C39.0279 61.5308 38.8982 61.3412 38.8982 61.0251C38.8982 60.709 38.6065 60.0136 38.2499 59.4447C37.634 58.4332 37.634 58.4332 38.2499 58.2436C38.6065 58.1172 38.8982 57.8959 38.8982 57.7379C38.8982 57.0741 39.8059 57.5166 39.9679 58.2752ZM14.1979 59.1918C14.2303 59.2234 14.1979 59.5079 14.0682 59.7924C13.9061 60.1717 13.4523 60.2981 12.0909 60.2981C10.2756 60.2981 8.88176 60.8038 8.07138 61.7521C7.84448 62.0366 7.00168 62.5423 6.25613 62.8584C5.51058 63.1745 4.31122 63.9331 3.59809 64.5652C2.1394 65.8612 2.00974 65.8296 2.78771 64.344C4.14915 61.7837 7.06651 59.5711 9.8218 59.0338C10.9563 58.8125 13.8737 58.9074 14.1979 59.1918ZM16.8883 60.3929C17.4718 60.7722 18.4442 61.7205 19.0277 62.4475C19.9029 63.5854 20.0974 64.1227 20.0974 65.387C20.0974 67.2203 19.7409 67.3784 19.1574 65.7663C18.9305 65.1342 17.7311 63.6802 16.5317 62.4791C14.9434 60.9619 14.4248 60.2665 14.6841 60.0136C15.2027 59.5079 15.6565 59.5711 16.8883 60.3929ZM63.7931 60.3613C63.8579 60.5194 64.2793 61.0567 64.7331 61.5624L65.5435 62.5107H64.0848C62.3668 62.5107 60.9406 61.5941 60.9406 60.4562C60.9406 59.7924 61.0378 59.7292 62.3344 59.8872C63.08 60.0136 63.7607 60.2033 63.7931 60.3613ZM28.2661 60.4562C28.8495 60.3613 29.1088 60.3929 28.8495 60.4878C28.5902 60.6142 28.104 60.8987 27.8122 61.1832C27.2936 61.6257 27.1639 61.5941 26.5805 61.0883C25.7701 60.3613 25.7377 59.8556 26.548 60.2981C26.9046 60.4562 27.6502 60.551 28.2661 60.4562ZM12.1557 60.9303C11.6371 61.0567 10.8915 61.1832 10.5349 61.1832L9.88663 61.2148L10.5349 60.9303C10.8915 60.7722 11.6371 60.6774 12.1557 60.6774H13.1282L12.1557 60.9303ZM41.1673 61.9417C41.1673 62.0998 41.0376 62.1946 40.8431 62.1946C40.6811 62.1946 40.519 61.8785 40.519 61.4676C40.519 60.8987 40.5838 60.8671 40.8431 61.2464C41.0052 61.4992 41.1673 61.8153 41.1673 61.9417ZM12.3178 62.2262C12.0909 62.6055 11.7667 62.7952 11.4426 62.7003C11.1832 62.6055 10.5998 62.5107 10.1784 62.5107C9.75697 62.5107 9.40041 62.3843 9.40041 62.2262C9.40041 61.8785 10.1784 61.6573 11.6046 61.5941C12.5771 61.5624 12.6419 61.6257 12.3178 62.2262ZM16.629 63.5538C17.4718 64.502 18.4767 67.0307 18.4767 68.2318C18.4767 68.7691 17.0504 70.0967 16.4993 70.0967C16.3373 70.0967 16.2076 69.749 16.2076 69.3697C16.2076 67.9473 14.911 63.617 14.3599 63.2061C14.0682 63.0164 13.5496 62.8268 13.2254 62.8268C12.7068 62.8268 12.6743 62.7319 12.9661 62.1946C13.2902 61.5941 13.3875 61.5941 14.522 62.0366C15.1703 62.2894 16.1428 62.9848 16.629 63.5538ZM41.0052 62.9848C41.0052 63.1429 40.519 63.3325 39.9679 63.3957C38.9307 63.4905 38.5093 63.048 39.3196 62.7003C39.9355 62.4475 41.0052 62.6371 41.0052 62.9848ZM11.6046 63.2693C11.7019 63.3957 11.475 63.775 11.1184 64.1859C10.0487 65.2922 9.04384 67.41 8.81693 68.9904L8.59003 70.476L7.77965 69.6541C6.74236 68.5479 6.45062 65.3554 7.29342 63.775C7.84448 62.7636 7.87689 62.7319 9.62731 62.9216C10.5998 63.0164 11.5074 63.1745 11.6046 63.2693ZM5.64024 64.9445C4.0519 67.9789 4.82986 72.1512 7.35825 74.1741C8.65486 75.2172 11.0536 75.9126 12.0909 75.5965C13.3875 75.1856 12.0909 76.3235 10.2432 77.1769C6.83961 78.8205 4.01948 78.4096 2.36631 76.039C0.680719 73.6052 0.583474 69.4961 2.1394 67.0307C2.9822 65.6715 5.47817 63.4589 6.12647 63.4589C6.28855 63.4589 6.06164 64.1227 5.64024 64.9445ZM14.2627 63.9331C14.911 64.6917 14.4572 64.8181 13.7765 64.0911C13.4523 63.7434 13.3551 63.4589 13.5171 63.4589C13.7116 63.4589 14.0358 63.6802 14.2627 63.9331ZM38.8334 63.7118C39.1251 63.9015 39.2224 64.9761 39.19 67.5996C39.1576 72.4357 38.8982 73.3207 37.2126 74.427C36.0457 75.1856 35.6891 75.6913 34.9436 77.6826C33.6794 81.0331 32.318 81.8865 30.1461 80.6538C28.104 79.4527 27.5853 77.1453 28.9468 75.2172C29.9192 73.8896 30.0165 73.2259 29.6599 70.8869C29.4654 69.5277 29.5302 69.18 30.1461 68.453C30.5351 67.9473 31.4103 67.4416 32.1883 67.2203C34.6843 66.5565 35.2029 66.3037 36.5968 64.8813C38.0879 63.3641 38.1851 63.3325 38.8334 63.7118ZM13.8413 64.9129C15.0731 66.2089 15.1055 66.9358 13.8737 68.5795C12.9337 69.907 12.7716 69.4329 13.6144 67.726C14.5868 65.7347 14.0682 65.1342 12.6743 66.6514L11.6695 67.6944V66.4617C11.6695 64.8497 11.9612 63.775 12.3826 63.775C12.5771 63.775 13.2254 64.2808 13.8413 64.9129ZM28.8495 64.2491C28.8495 64.9129 27.5853 65.5135 27.0991 65.0393C26.8398 64.7865 26.9046 64.5652 27.3584 64.2175C28.1688 63.6486 28.8495 63.6486 28.8495 64.2491ZM42.1398 64.6917C42.5612 65.7031 42.3667 66.3037 41.6211 66.3037C40.8431 66.3037 40.4217 67.6312 40.7783 68.9272C41.0376 69.8438 41.0052 70.0967 40.6162 70.2547C40.3245 70.3495 40.0004 70.3495 39.9031 70.2231C39.8059 70.1283 39.6762 68.7691 39.6762 67.2203C39.6114 64.9129 39.7086 64.344 40.13 64.0911C41.1025 63.5538 41.7184 63.7434 42.1398 64.6917ZM43.8578 65.3238C44.2792 65.8296 44.8302 66.9358 45.0247 67.7577C45.2516 68.5795 45.7054 69.6225 46.0296 70.0967C46.3537 70.5392 46.84 71.7403 47.1317 72.7834C47.5855 74.5218 47.5855 74.7115 47.0669 75.2488C46.4186 75.9758 44.733 76.8608 44.7006 76.5131C44.7006 76.3551 44.4412 74.6166 44.1495 72.6253L43.5984 68.9904L42.3991 68.8955C41.297 68.8007 41.1673 68.7059 41.1673 67.9473C41.1673 67.3467 41.4266 66.9358 42.1398 66.5565C42.9826 66.0824 43.0798 65.9244 42.7881 65.1974C42.3667 64.1227 42.8529 64.1859 43.8578 65.3238ZM11.2481 66.5565C11.3777 68.9588 11.1184 69.9702 10.1784 70.3495C9.07625 70.8553 8.88176 70.2547 9.53007 68.1369C9.91905 66.7778 10.8267 65.0393 11.1184 65.0393C11.1508 65.0393 11.2157 65.7031 11.2481 66.5565ZM6.93685 69.4013C7.87689 71.1713 10.1135 71.8351 11.9612 70.9185C13.0633 70.3495 15.5593 70.6024 15.5593 71.2662C15.5593 72.0248 14.2951 74.1425 13.5496 74.6482C12.6419 75.2804 10.697 75.312 9.30316 74.7115C7.22859 73.8896 5.18643 70.7604 5.18643 68.4846C5.18643 68.0737 5.34851 67.1571 5.57541 66.4617L5.9644 65.1974L6.1913 66.7778C6.28855 67.6628 6.64512 68.8323 6.93685 69.4013ZM28.5254 65.9244C28.5254 66.0824 28.1688 66.3669 27.715 66.5565C26.8074 66.9674 26.5805 66.5249 27.4881 66.0192C28.1688 65.6083 28.5254 65.5767 28.5254 65.9244ZM19.2222 67.2519C19.3195 67.5996 19.2546 67.9789 19.0926 68.0737C18.9305 68.1686 18.8008 67.8841 18.8008 67.4416C18.8008 66.4617 18.9953 66.3669 19.2222 67.2519ZM15.7214 68.7059C15.9807 70.0967 15.6241 70.5076 14.4896 70.2547L13.6468 70.0334L14.3599 68.8007C14.7489 68.1369 15.1703 67.568 15.2676 67.568C15.3972 67.568 15.5917 68.0737 15.7214 68.7059ZM18.7684 73.5736C17.3421 76.7976 12.5447 80.1165 8.7521 80.4325C6.48304 80.6538 4.86228 80.1481 3.33877 78.8521C2.20423 77.8723 0.648304 75.1856 0.648304 74.2057C0.648304 73.9529 1.00487 74.4586 1.42627 75.3436C2.39872 77.3981 3.79258 78.378 6.02923 78.5676C8.13621 78.7257 10.3729 78.0303 12.3178 76.5763C13.1282 75.9758 14.522 74.9959 15.4296 74.3954C17.1476 73.2891 18.2822 71.8667 18.6712 70.2547C19.0601 68.6111 19.287 68.6111 19.3843 70.3179C19.4491 71.4874 19.287 72.4357 18.7684 73.5736ZM43.1122 69.4645C43.1122 69.6225 42.8853 69.7806 42.626 69.7806C42.3667 69.7806 42.0425 69.7806 41.9128 69.8122C41.7832 69.8122 41.6211 69.6858 41.5563 69.4961C41.4915 69.3065 41.8156 69.1484 42.2694 69.1484C42.7232 69.1484 43.1122 69.2748 43.1122 69.4645ZM17.7311 71.2662C17.2773 72.0564 15.2351 74.2057 15.2351 73.858C15.2351 73.0678 16.5966 70.5708 17.2125 70.2231C18.1849 69.7174 18.347 70.0967 17.7311 71.2662ZM45.0247 79.0102C45.5434 80.6222 46.1268 82.5503 46.3213 83.2773C46.5158 84.0043 47.6179 86.9754 48.7525 89.8518C50.8594 95.1936 50.827 95.8257 48.6228 92.5069C47.4234 90.6736 46.84 89.346 45.8351 86.0588C44.9599 83.1192 43.3067 79.832 42.237 78.8521C40.8756 77.6194 39.2548 77.3981 38.3796 78.378C37.634 79.1682 36.7912 81.4756 36.4995 83.625C36.0781 86.5645 37.5368 96.2366 38.7362 98.544C40.4866 101.863 43.8578 103.917 49.3359 105.055C54.4251 106.098 54.5548 106.162 55.0734 107.584C55.3003 108.279 55.9162 109.67 56.4349 110.682L57.3101 112.546L53.2258 112.357C46.84 112.072 41.1673 110.429 39.5465 108.437C36.7912 104.992 34.587 95.7309 33.8739 84.5732C33.6794 81.444 33.7118 81.0963 34.3277 80.3693C34.6843 79.8952 35.2029 78.7889 35.4946 77.8407C35.8836 76.5131 36.305 75.9126 37.5692 74.8695C38.7362 73.9212 39.2224 73.2259 39.5465 72.1828C39.9355 70.8553 39.9679 70.792 41.5887 70.5392L43.2743 70.2547L43.6633 73.1627C43.8902 74.7747 44.4736 77.3981 45.0247 79.0102ZM27.6826 78.1567C27.8122 78.8205 28.3633 79.7372 29.044 80.3693C29.9841 81.3176 30.4055 81.4756 31.6048 81.4756C33.3552 81.4756 33.2256 81.0963 33.6794 87.8288C34.1656 94.6878 35.8836 102.906 37.5368 106.098C39.1576 109.228 40.4866 110.334 43.8253 111.314C45.3164 111.756 47.391 112.294 48.4607 112.483C51.4753 113.052 60.2274 112.957 63.9552 112.357C68.6554 111.567 68.3961 111.187 68.3961 118.552C68.3961 126.328 67.9098 129.267 65.9973 133.187C63.8255 137.612 61.8806 139.382 57.5046 140.962C55.819 141.563 54.7493 141.658 48.4283 141.784C36.6292 142.005 32.4476 141.278 29.1088 138.402C26.775 136.411 25.0245 132.396 24.1493 127.181C23.5658 123.673 23.4686 111.819 23.9872 107.236C24.1493 105.656 24.3762 101.009 24.5059 96.9004C24.7004 90.5472 24.6355 88.7771 24.1493 85.3634C23.7928 82.898 23.6631 80.8434 23.7928 80.0848C24.0845 78.5993 25.5756 77.0505 26.6777 77.0505C27.326 77.0505 27.5205 77.2401 27.6826 78.1567ZM41.9453 79.1998C42.8529 80.0216 43.9874 82.3922 45.4137 86.6277C46.8724 90.9265 48.2986 93.4551 50.3408 95.4148C52.934 97.8803 55.5921 98.7653 61.362 99.0814L65.2194 99.271L64.9601 101.199C64.8304 102.274 64.7656 103.633 64.7656 104.265L64.8304 105.403L62.8207 105.624C59.4819 105.94 55.3652 105.814 53.1609 105.308C51.994 105.055 49.887 104.613 48.4607 104.36C44.2143 103.57 40.8431 101.326 39.19 98.1647C37.3747 94.6878 36.4347 83.6566 37.6989 80.4325C38.6713 77.9987 40.0976 77.5878 41.9453 79.1998ZM73.2583 96.8372C73.2583 96.932 72.9018 97.4693 72.448 98.0383C71.9941 98.6072 71.6376 99.2394 71.6376 99.4291C71.6376 99.9032 73.2583 99.6187 75.3005 98.7653C76.1433 98.4176 76.9213 98.2279 77.0185 98.3228C77.2778 98.5756 75.5274 99.6503 73.8418 100.251C72.2535 100.82 71.7997 101.357 72.8694 101.42C74.0363 101.484 75.106 101.294 76.6619 100.725C78.6068 99.998 78.6393 99.998 78.1206 100.567C77.9261 100.82 77.0509 101.262 76.2405 101.578C73.2259 102.59 72.9342 102.748 72.9342 103.001C72.9342 103.759 74.7819 103.665 77.9585 102.748C78.5096 102.59 78.542 102.621 78.1855 103.064C77.9585 103.317 77.1482 103.633 76.4026 103.759C73.388 104.202 72.9342 104.328 72.9342 104.581C72.9342 104.739 73.4204 104.866 74.0039 104.897C74.555 104.897 75.3329 105.024 75.6895 105.15C76.6944 105.529 71.0217 105.909 68.0395 105.656L65.5111 105.435L65.2842 104.328C65.1545 103.728 65.187 102.495 65.349 101.61C65.5759 100.314 65.8028 99.9032 66.4187 99.6503C66.8401 99.4607 68.3636 98.7337 69.8223 98.0067C72.3183 96.7424 73.2583 96.4263 73.2583 96.8372ZM71.4107 122.724C73.9066 123.862 75.2357 125.095 78.1206 128.825C81.3621 132.997 84.4092 138.908 86.2244 144.534C87.6507 148.864 89.8225 154.901 91.9943 160.496C92.7075 162.329 93.2585 163.847 93.2261 163.878C93.1937 163.91 92.5454 163.783 91.7674 163.594C89.8225 163.12 87.4562 163.688 83.696 165.553C81.7835 166.533 80.6166 166.944 80.5518 166.723C79.709 164.289 78.2179 161.033 75.2357 154.807C68.9147 141.784 68.9471 141.816 66.4187 139.508L64.1497 137.39L64.8304 136.505C66.905 133.629 68.3961 129.014 68.9147 123.736C69.012 122.756 69.2389 121.934 69.4009 121.934C69.5954 121.934 70.5031 122.282 71.4107 122.724ZM66.3215 140.109C68.5906 142.321 68.3312 141.816 75.9488 157.651C77.8289 161.571 79.4496 165.079 79.5469 165.459C79.7414 166.028 79.5793 166.186 78.6068 166.502C77.9585 166.691 76.7268 167.355 75.8191 167.956C74.7494 168.651 74.166 168.872 74.0687 168.619C73.9715 168.398 73.4204 166.818 72.8045 165.079C72.1886 163.341 71.2486 160.717 70.6975 159.232C70.1141 157.746 69.174 154.901 68.5906 152.91C67.9747 150.919 66.6781 147.126 65.7056 144.534C62.8531 137.011 62.8855 136.758 66.3215 140.109ZM67.2291 158.663C69.8223 168.651 71.9617 177.027 71.9617 177.248C71.9617 177.47 71.5728 177.564 70.9244 177.501L69.8548 177.406L66.1918 168.872C64.1821 164.163 61.524 157.999 60.2923 155.123C59.0605 152.246 57.3425 148.2 56.4349 146.114L54.8141 142.321L57.3101 141.5C58.6715 141.057 60.3247 140.362 60.9406 140.014C61.9779 139.382 62.0751 139.382 62.2696 139.888C62.3993 140.204 64.6035 148.643 67.2291 158.663ZM31.8317 140.678C32.8366 141.152 34.3925 141.626 35.3001 141.752C36.2078 141.847 36.9533 142.037 36.9533 142.195C36.9533 142.479 33.4525 150.603 26.6777 166.028L21.5237 177.723L20.1623 177.817C19.4167 177.881 18.8008 177.817 18.8008 177.723C18.8008 177.596 19.3195 175.7 19.9678 173.519C21.1995 169.283 25.7701 153.037 27.9095 145.324C29.5302 139.508 29.4978 139.571 29.7572 139.698C29.8868 139.761 30.8269 140.204 31.8317 140.678ZM92.5454 164.289C93.2585 164.574 93.2909 164.542 90.795 165.395C89.2066 165.933 88.7528 165.743 89.0121 164.668C89.1742 164.099 89.4335 163.973 90.5681 164.005C91.2812 164.005 92.1888 164.131 92.5454 164.289ZM88.3962 165.775C88.2666 166.628 88.0073 168.619 87.8128 170.2L87.4238 173.139H85.9975H84.5713L83.1126 170.231L81.6863 167.292L82.3994 166.754C83.2422 166.122 87.4562 164.321 88.1369 164.289C88.4611 164.289 88.5259 164.637 88.3962 165.775ZM80.2276 167.481C80.3573 167.892 80.6166 168.05 80.9083 167.956C81.2649 167.829 81.6863 168.367 82.367 169.789C83.1774 171.464 83.3071 172.001 83.0477 172.886C82.8532 173.708 82.5939 173.961 81.8808 174.024C81.1352 174.119 80.5518 173.708 78.2179 171.433L75.4626 168.746L77.0185 167.766C78.8662 166.66 79.9359 166.533 80.2276 167.481ZM89.2715 174.593L89.077 176.016L90.3087 175.51C91.8971 174.846 93.5178 175.131 94.1986 176.142C94.4903 176.553 94.62 177.059 94.4903 177.248C94.1013 177.881 85.252 177.533 85.252 176.869C85.252 176.679 84.8954 175.858 84.474 175.004L83.6636 173.487L86.3217 173.361C87.7803 173.329 89.1094 173.234 89.239 173.203C89.4011 173.171 89.4011 173.803 89.2715 174.593ZM84.2471 175.636C84.6037 176.49 84.9278 177.28 84.9278 177.375C84.9278 177.47 84.1498 177.564 83.2422 177.564C81.5566 177.533 81.4918 177.501 80.649 176.142L79.7738 174.72L80.8111 174.688C81.3946 174.688 82.1401 174.562 82.4967 174.404C83.5015 173.993 83.5015 173.993 84.2471 175.636Z" fill="#4F967D"/>
    <path d="M152.999 54.2294C151.541 54.3874 150.503 54.9563 150.114 55.7465C149.693 56.6948 149.661 58.0855 150.05 58.6861C150.212 58.9074 150.244 59.4763 150.114 59.9504C149.693 61.436 149.985 61.8785 151.411 61.8785C152.578 61.8785 152.675 61.9417 152.675 62.7952C152.675 63.6486 152.546 63.7434 151.022 64.0911C150.114 64.3124 149.304 64.66 149.239 64.8813C149.142 65.1026 149.369 66.4301 149.725 67.8209C151.054 72.8466 150.633 74.9327 146.419 84.51C144.182 89.5673 143.275 92.1592 142.302 96.5211L141.686 99.2394L142.464 99.9348L143.242 100.63L142.302 102.211C141.816 103.064 140.844 104.265 140.13 104.897C138.477 106.446 131.865 110.903 129.725 111.978C127.78 112.926 127.164 112.863 124.279 111.63C123.307 111.219 122.302 110.871 122.043 110.871C121.103 110.871 121.589 112.167 123.048 113.716C124.766 115.486 124.766 115.486 121.232 115.739C119.903 115.865 118.704 116.118 118.574 116.339C118.185 116.908 119.223 117.509 120.714 117.572C121.589 117.604 121.232 117.699 119.774 117.793C117.796 117.951 117.505 118.046 117.505 118.615C117.505 119.184 117.764 119.247 120.584 119.405L123.664 119.563L120.973 119.848C118.153 120.132 117.667 120.385 118.347 121.175C118.672 121.586 119.255 121.65 121.006 121.555C122.561 121.46 123.015 121.523 122.497 121.713C122.075 121.871 121.395 122.124 120.973 122.282C120.001 122.661 120.228 123.325 121.362 123.514L122.237 123.673L120.649 125.411C116.208 130.279 111.54 137.643 109.822 142.479C108.85 145.198 107.586 153.005 108.039 153.289C108.266 153.416 109.044 153.605 109.822 153.732C110.892 153.89 111.184 154.048 111.054 154.459C110.957 154.743 109.79 158.852 108.396 163.594C106.192 171.274 105.803 172.286 105.122 172.539C104.668 172.697 104.377 173.076 104.377 173.455C104.377 174.53 103.469 174.53 101.751 173.487C100.843 172.95 99.8708 172.507 99.5791 172.507C98.5418 172.507 97.5693 173.424 97.5693 174.404C97.5693 175.257 97.7314 175.352 100.098 176.079C105.576 177.817 108.364 178.544 108.72 178.418C108.947 178.323 109.563 177.47 110.082 176.49C110.827 175.067 110.957 174.625 110.665 174.151C110.406 173.74 110.373 173.392 110.6 172.95C110.795 172.634 112.318 169.947 114.036 167.039C115.722 164.131 117.861 159.99 118.801 157.873C120.454 154.238 120.584 154.016 121.524 153.922C122.075 153.858 122.529 153.922 122.529 154.08C122.561 156.071 123.599 168.556 123.858 170.389C124.15 172.318 124.15 173.045 123.826 173.613C123.599 174.024 123.534 174.498 123.631 174.688C124.053 175.32 122.886 175.447 121.557 174.909C119.677 174.182 118.153 174.246 117.537 175.099C116.856 176.047 116.856 177.754 117.537 178.007C117.829 178.133 120.454 178.102 123.372 178.007L128.688 177.786L128.98 176.648C129.758 173.866 129.758 173.771 129.142 173.108C128.591 172.507 128.591 172.223 129.109 165.301C129.433 161.349 129.66 157.493 129.66 156.703C129.66 153.922 129.725 153.858 132.61 153.858C135.139 153.858 135.171 153.858 135.365 152.973C135.463 152.499 136.727 148.675 138.153 144.471L140.714 136.822L141.751 137.959C142.335 138.592 142.756 139.319 142.691 139.571C142.626 139.824 141.038 145.609 139.19 152.404C132.902 175.289 132.254 177.628 132.254 177.944C132.254 178.102 133.226 178.197 134.393 178.133L136.532 178.039L139.061 171.875C140.422 168.493 143.729 160.401 146.354 153.922C148.98 147.41 151.314 142.068 151.508 142.005C151.703 141.942 155.463 141.816 159.839 141.752L167.813 141.594L169.142 144.787C169.855 146.557 173.194 154.396 176.5 162.235C179.839 170.042 182.627 176.679 182.724 176.996C182.821 177.375 183.437 177.564 184.831 177.723C185.868 177.849 186.841 177.849 186.97 177.723C187.197 177.501 186.225 173.677 180.196 151.361L176.954 139.224L178.38 137.77C180.325 135.81 181.395 133.914 182.043 131.258C182.497 129.362 182.594 127.055 182.627 115.77C182.659 108.469 182.497 100.219 182.303 97.4377C182.043 93.9608 182.043 90.3259 182.238 85.7743C182.594 78.4728 182.432 77.5246 180.909 77.1453C179.936 76.924 175.982 73.858 174.458 72.1828C173.875 71.5506 173.356 70.6656 173.259 70.2547C173.162 69.8122 173.032 69.0852 172.902 68.6427C172.643 67.3467 171.119 66.0824 169.175 65.5451C166.581 64.7865 162.108 62.5107 161.427 61.5624C161.136 61.1199 160.26 59.6027 159.515 58.1804C158.769 56.7264 157.829 55.3356 157.343 55.0512C156.435 54.4506 154.328 54.0713 152.999 54.2294ZM156.241 55.0512C157.213 55.3989 157.635 55.9046 159.093 58.5913C160.066 60.2981 161.071 61.9734 161.362 62.321C162.076 63.0796 167.003 65.4503 168.98 65.9876C171.184 66.5565 172.286 67.6944 172.578 69.6225C172.805 71.1081 173 71.3926 176.403 74.585L180.001 77.9671L179.807 79.2946C179.58 80.875 178.867 81.8865 177.019 83.2773C175.463 84.4468 173.583 85.0789 169.337 85.8059C165.965 86.3749 164.442 86.2168 163.08 85.0789C161.784 84.0359 161.427 82.6451 161.427 78.5993C161.427 74.585 161.038 73.8264 158.024 71.8351C155.69 70.2863 155.074 69.2116 154.685 65.956C154.49 64.6284 154.101 63.1429 153.777 62.6687C153.453 62.1946 153.129 61.2148 152.999 60.4878C152.837 59.2867 152.74 59.1918 151.8 59.097C150.957 59.0022 150.698 58.8125 150.503 58.1488C150.082 56.5684 150.536 55.4305 151.865 54.9247C152.805 54.5138 154.944 54.6087 156.241 55.0512ZM152.578 59.8556C152.999 60.8987 151.443 62.0682 150.665 61.3096C150.471 61.1199 150.406 60.6142 150.536 60.1717C150.698 59.5711 150.957 59.3499 151.573 59.3499C152.027 59.3499 152.448 59.5711 152.578 59.8556ZM153.81 63.775C154.037 64.4388 153.81 65.0394 153.291 65.0394C153.129 65.0394 152.999 64.5968 152.999 64.0911C152.999 63.0164 153.486 62.8268 153.81 63.775ZM152.351 64.7233C152.351 65.1342 150.86 65.4819 150.374 65.1658C150.082 65.0077 150.147 64.8497 150.601 64.6917C151.508 64.344 152.351 64.344 152.351 64.7233ZM154.361 67.3784C154.685 69.8122 155.398 70.8553 157.764 72.3092C160.714 74.1109 160.941 74.5534 160.973 79.105C161.038 83.941 161.46 85.0473 163.729 86.0272C165.22 86.691 165.252 86.7226 165.771 88.9035C167.132 94.5614 168.04 103.665 167.489 105.877C167.165 107.047 164.863 109.765 163.437 110.713C161.298 112.072 157.148 112.799 150.244 112.989C146.873 113.052 143.275 113.021 142.302 112.863L140.519 112.61L143.761 110.966C147.78 108.975 152.643 106.225 153.388 105.593C153.712 105.308 154.037 104.613 154.166 104.044C154.296 103.412 154.62 102.906 154.977 102.811C155.333 102.685 155.722 102.116 155.949 101.294C156.597 98.9233 157.246 92.7913 157.44 87.007C157.602 82.171 157.537 81.0015 157.084 79.4527C156.014 75.881 153.583 74.7431 151.281 76.7344C150.665 77.2401 150.082 77.6826 149.985 77.6826C149.887 77.6826 150.114 76.8292 150.439 75.7545C151.216 73.2891 151.216 71.4558 150.406 68.3582C150.05 66.9991 149.758 65.8296 149.758 65.7979C149.758 65.7031 153.291 65.4503 153.81 65.5135C154.004 65.5451 154.231 66.3669 154.361 67.3784ZM154.588 76.5447C156.079 77.3033 157.213 80.559 157.213 84.1939C157.213 88.3978 155.852 100.63 155.301 101.168C155.139 101.326 154.134 101.009 153.032 100.441C150.147 99.0181 147.456 98.4492 144.669 98.6072C143.372 98.7021 142.302 98.6705 142.302 98.5756C142.302 98.2596 143.858 92.5069 144.344 90.9581C145.317 87.8921 148.883 80.1797 149.985 78.7889C151.022 77.4614 152.74 76.1022 153.421 76.1022C153.55 76.1022 154.069 76.2919 154.588 76.5447ZM181.492 78.1251C181.784 78.4728 181.816 80.717 181.654 86.9122C181.492 93.3603 181.557 96.932 182.011 102.969C182.594 110.934 182.53 120.891 181.849 128.54C181.46 132.649 180.39 135.083 177.894 137.517C175.56 139.793 173.324 140.425 165.317 141.089C157.862 141.721 150.828 141.531 147.975 140.646C141.622 138.686 140.13 136.6 138.51 127.624C137.635 122.724 137.083 112.768 137.667 112.768C137.829 112.768 139.482 112.989 141.362 113.273C148.202 114.285 160.131 113.305 163.243 111.472C164.636 110.65 166.743 108.374 167.586 106.762C168.234 105.529 169.952 95.5412 170.666 88.7139C170.795 87.576 170.99 86.5013 171.119 86.3117C171.217 86.1536 172.254 85.7743 173.421 85.4582C176.047 84.7629 177.927 83.7198 178.996 82.3606C179.969 81.1279 180.585 79.263 180.325 78.3148C180.131 77.5562 180.909 77.4298 181.492 78.1251ZM170.309 87.5444C168.429 101.231 168.332 101.831 168.137 100.441C168.04 99.6503 167.716 97.2481 167.424 95.0987C167.132 92.9178 166.679 90.2627 166.387 89.1564C166.127 88.0501 165.998 87.0386 166.095 86.9122C166.29 86.7542 167.294 86.5645 170.082 86.2484C170.374 86.2168 170.439 86.5961 170.309 87.5444ZM149.596 99.6819C150.503 99.9348 151.865 100.472 152.675 100.851C154.231 101.673 154.328 101.926 153.615 104.17C153.226 105.277 151.249 106.541 143.502 110.524C140.066 112.294 139.547 112.483 138.412 112.294C137.213 112.104 137.116 112.136 137.083 112.831C137.051 113.21 137.051 113.653 137.083 113.779C137.148 114.411 122.756 123.198 121.589 123.198C120.681 123.198 121.395 122.566 122.821 122.092C124.442 121.586 125.382 120.859 124.895 120.575C124.733 120.48 123.664 120.638 122.497 120.891C120.39 121.397 118.412 121.27 118.801 120.67C118.899 120.48 119.774 120.354 120.714 120.354C122.788 120.354 124.474 119.816 124.474 119.184C124.474 118.773 124.085 118.71 121.881 118.9C119.255 119.121 117.829 118.963 118.153 118.457C118.25 118.299 119.514 118.173 120.973 118.173C123.339 118.173 124.604 117.825 124.085 117.319C123.988 117.224 122.788 117.066 121.427 116.972C120.098 116.877 119.061 116.687 119.125 116.561C119.223 116.434 120.39 116.245 121.719 116.181C123.372 116.087 124.377 115.865 124.701 115.518C125.155 115.075 125.057 114.885 123.469 113.368C122.497 112.452 121.881 111.661 122.108 111.598C122.302 111.535 123.339 111.819 124.442 112.262C127.975 113.748 128.882 113.463 135.495 109.006C140.584 105.561 141.492 104.676 143.242 101.452L144.636 98.7969L146.289 99.0181C147.229 99.113 148.721 99.4291 149.596 99.6819ZM143.664 99.5555C143.372 99.84 143.178 99.84 142.886 99.5555C142.594 99.271 142.659 99.1762 143.275 99.1762C143.891 99.1762 143.955 99.271 143.664 99.5555ZM137.148 119.816C137.44 125.127 138.477 131.353 139.579 134.261L140.357 136.316L137.537 144.534C135.981 149.054 134.685 152.784 134.685 152.847C134.652 152.878 133.518 152.404 132.156 151.804C129.077 150.35 126.16 149.939 121.135 150.192C117.245 150.413 112.027 151.266 109.563 152.12L108.202 152.594L108.396 151.709C108.493 151.235 108.72 149.939 108.915 148.801C110.049 141.974 112.61 136.569 118.25 129.078C121.135 125.221 123.826 122.819 127.294 120.891C129.044 119.911 131.865 118.173 133.518 117.035C135.203 115.929 136.662 115.043 136.727 115.138C136.824 115.233 137.019 117.319 137.148 119.816ZM145.738 140.393C146.776 140.804 148.202 141.247 148.883 141.373C149.563 141.5 150.212 141.784 150.276 142.005C150.439 142.353 148.234 147.916 139.385 169.662L136.208 177.406L134.555 177.501C133.647 177.564 132.902 177.501 132.902 177.375C132.902 177.28 133.907 173.519 135.139 169.062C136.403 164.605 138.088 158.473 138.899 155.439C140.325 150.16 142.789 141.373 143.145 140.172C143.372 139.477 143.437 139.477 145.738 140.393ZM176.468 139.888C176.76 140.33 186.387 176.3 186.387 176.901C186.387 177.154 185.868 177.248 184.863 177.185L183.34 177.09L181.136 171.875C171.606 149.402 168.559 142.068 168.559 141.689C168.559 141.468 169.337 141.215 170.471 141.12C171.508 140.994 173.162 140.646 174.102 140.33C176.241 139.571 176.273 139.571 176.468 139.888ZM121.232 151.014C121.232 151.172 120.876 152.057 120.454 152.973C120.001 153.89 118.931 156.229 118.056 158.157C116.435 161.792 109.855 173.455 109.109 174.056C108.785 174.309 108.331 174.309 107.424 173.993C106.451 173.677 106.192 173.455 106.257 172.981C106.321 172.634 107.229 169.504 108.266 166.027C110.503 158.568 111.832 153.637 111.832 152.847C111.832 152.057 112.707 151.709 115.787 151.203C119.061 150.666 121.232 150.603 121.232 151.014ZM122.529 151.993C122.529 152.531 122.335 153.005 122.043 153.1C121.168 153.447 120.973 153.068 121.459 151.899C122.01 150.539 122.529 150.603 122.529 151.993ZM128.526 150.982C129.498 151.172 129.498 151.203 129.433 153.226C129.336 155.976 127.975 173.582 127.878 173.708C127.813 173.771 127.197 173.898 126.484 173.993C125.414 174.119 125.155 174.056 125.025 173.582C124.571 172.128 124.182 169.157 123.858 164.921C123.631 162.393 123.339 158.6 123.177 156.45C122.983 154.332 122.853 152.152 122.853 151.646V150.698L125.22 150.729C126.484 150.761 128.007 150.856 128.526 150.982ZM132.156 152.31C133.485 152.847 133.615 153.005 133.129 153.258C132.837 153.447 132.027 153.542 131.346 153.479C130.309 153.384 130.147 153.258 130.049 152.499C129.92 151.488 130.114 151.456 132.156 152.31ZM111.281 153.226C111.151 153.384 110.503 153.384 109.887 153.258C108.753 153.005 108.753 153.005 109.563 152.689C111.119 152.088 111.346 152.057 111.443 152.531C111.508 152.784 111.443 153.1 111.281 153.226ZM101.913 174.119C103.761 175.099 104.701 175.162 104.701 174.246C104.701 173.645 105.057 173.645 106.451 174.214C107.035 174.435 108.137 174.751 108.882 174.878C109.628 175.004 110.211 175.194 110.146 175.289C108.817 177.881 108.785 177.944 107.942 177.786C106.743 177.596 99.1577 175.352 98.477 175.004C97.7638 174.625 97.7314 174.277 98.4121 173.645C99.1253 172.918 99.806 173.013 101.913 174.119ZM128.818 175.099C128.331 177.375 128.688 177.248 122.918 177.438L117.667 177.628V176.679C117.667 176.174 117.958 175.51 118.315 175.194C118.899 174.688 119.028 174.657 120.552 175.162C122.821 175.889 124.15 175.826 124.15 175.036C124.15 174.498 124.409 174.404 126.354 174.309C127.553 174.246 128.656 174.182 128.785 174.151C128.947 174.119 128.947 174.562 128.818 175.099Z" fill="#4F967D"/>
</svg>