<svg xmlns="http://www.w3.org/2000/svg" width="18" height="18" viewBox="0 0 18 18" fill="none">
    <path fill-rule="evenodd" clip-rule="evenodd" d="M17.3203 7.93594L13.7969 11.0109L14.8523 15.5891C14.9665 16.0784 14.7766 16.5885 14.3703 16.884C13.964 17.1796 13.4202 17.2031 12.9898 16.9438L8.99687 14.5219L5.0125 16.9438C4.58216 17.2031 4.03836 17.1796 3.63203 16.884C3.22569 16.5885 3.03581 16.0784 3.15 15.5891L4.20391 11.0156L0.679688 7.93594C0.298576 7.60724 0.151757 7.08205 0.307166 6.60337C0.462575 6.12469 0.889898 5.78589 1.39141 5.74375L6.03672 5.34141L7.85 1.01641C8.04363 0.55236 8.49718 0.250156 9 0.250156C9.50282 0.250156 9.95637 0.55236 10.15 1.01641L11.9688 5.34141L16.6125 5.74375C17.114 5.78589 17.5413 6.12469 17.6967 6.60337C17.8521 7.08205 17.7053 7.60724 17.3242 7.93594H17.3203Z" fill="#17DE99"/>
</svg>